<svg width="160" height="160" viewBox="0 0 160 160" fill="none" xmlns="http://www.w3.org/2000/svg">
<mask id="mask0_845_77832" style="mask-type:alpha" maskUnits="userSpaceOnUse" x="0" y="0" width="160" height="160">
<circle cx="80" cy="80" r="80" fill="#F6F4FF"/>
</mask>
<g mask="url(#mask0_845_77832)">
<circle cx="80" cy="80" r="80" fill="url(#paint0_linear_845_77832)"/>
<path d="M184.86 76.7703C183.525 76.1324 182.039 75.762 180.445 75.762C175.879 75.762 172.067 78.7044 170.926 82.7168C169.892 80.1242 167.265 78.2723 164.163 78.2723C163.001 78.2723 161.902 78.5398 160.911 79.0131C159.253 76.2147 156.13 74.3217 152.512 74.3217C148.248 74.3217 144.608 76.976 143.359 80.6592C141.916 78.7867 139.59 77.5933 136.985 77.5933C135.714 77.5933 134.486 77.8814 133.431 78.3958C131.622 75.3299 128.176 73.2518 124.214 73.2518C119.54 73.2518 115.599 76.1324 114.178 80.1448C113.316 79.6921 112.347 79.4452 111.292 79.4452C110.323 79.4452 109.397 79.6715 108.6 80.0625C107.221 77.7373 104.615 76.1736 101.622 76.1736C99.3606 76.1736 97.3146 77.0789 95.8502 78.5192C93.9765 73.7867 89.1954 70.4122 83.5744 70.4122C78.6642 70.4122 74.4 72.9843 72.1386 76.7908C70.8034 76.153 69.3174 75.7826 67.7237 75.7826C65.4193 75.7826 63.3087 76.5439 61.6289 77.7991C59.7337 75.0625 56.5033 73.2723 52.799 73.2723C47.6734 73.2723 43.4092 76.7497 42.44 81.3793C42.117 81.3176 41.7939 81.2764 41.4709 81.2764C40.4371 81.2764 39.4895 81.6057 38.7142 82.1406C37.4867 79.4863 34.6869 77.6345 31.4565 77.6345C30.1858 77.6345 28.9583 77.9225 27.903 78.4369C26.0939 75.3711 22.6481 73.2929 18.6854 73.2929C15.0243 73.2929 11.8153 75.0625 9.92013 77.7579C8.02493 75.0213 4.79448 73.2518 1.15483 73.2518C-3.97082 73.2518 -8.23501 76.7291 -9.20415 81.3587C-9.52719 81.297 -9.85024 81.2559 -10.1733 81.2559C-10.5825 81.2559 -10.9917 81.3176 -11.3793 81.3999C-12.9084 78.0871 -16.3757 75.762 -20.403 75.762C-21.9967 75.762 -23.4827 76.1324 -24.818 76.7703C-27.1009 72.9431 -31.3866 70.3711 -36.2969 70.3711L-36.2969 122.223L-10.5825 122.223L2.68392 122.223L21.8513 122.223L36.819 122.223L39.4034 122.223L57.8816 122.223L73.5385 122.223L89.5185 122.223L103.409 122.223L108.212 122.223L117.3 122.223L137.954 122.223L144.932 122.223L170.56 122.223L196.296 122.223L196.296 70.3711C191.385 70.3711 187.1 72.9431 184.86 76.7703Z" fill="url(#paint1_linear_845_77832)"/>
<circle cx="114.075" cy="20.001" r="41.4815" fill="url(#paint2_linear_845_77832)"/>
<circle cx="135.371" cy="41.4102" r="155.5" fill="url(#paint3_linear_845_77832)"/>
<path d="M217.777 48.8456L191.772 43.7213C190.069 41.805 187.59 40.5911 184.823 40.5911C183.405 40.5911 182.066 40.9187 180.863 41.4844C179.131 35.9477 173.961 31.9288 167.849 31.9288C164.403 31.9288 161.266 33.2158 158.865 35.323C156.787 26.9531 149.239 20.7422 140.221 20.7422C131.381 20.7422 123.953 26.7103 121.705 34.828C119.391 33.0178 116.483 31.9288 113.317 31.9288C107.206 31.9288 102.035 35.9477 100.304 41.4844C99.101 40.9164 97.7636 40.5911 96.3436 40.5911C93.5414 40.5911 91.0341 41.8356 89.331 43.7943L63.7031 48.8456L87.1044 48.8456C87.102 48.8597 87.0996 48.8762 87.0973 48.8903L194.067 48.8903C194.065 48.8762 194.062 48.8597 194.06 48.8456L217.777 48.8456Z" fill="url(#paint4_linear_845_77832)"/>
<path d="M94.8131 39.2233L73.9338 35.043C72.5665 33.4797 70.5761 32.4894 68.3547 32.4894C67.2165 32.4894 66.1408 32.7567 65.1749 33.2182C63.7849 28.7013 59.6337 25.4228 54.7268 25.4228C51.9599 25.4228 49.4412 26.4727 47.5133 28.1918C45.8448 21.3636 39.7846 16.2969 32.5446 16.2969C25.4466 16.2969 19.483 21.1656 17.6782 27.788C15.8203 26.3112 13.4853 25.4228 10.9438 25.4228C6.03692 25.4228 1.88569 28.7013 0.495632 33.2182C-0.470211 32.7548 -1.544 32.4894 -2.68407 32.4894C-4.93392 32.4894 -6.94704 33.5047 -8.31437 35.1026L-28.8906 39.2233L-10.1021 39.2233C-10.104 39.2348 -10.1059 39.2483 -10.1078 39.2598L75.7765 39.2598C75.7746 39.2483 75.7727 39.2348 75.7708 39.2233L94.8131 39.2233Z" fill="url(#paint5_linear_845_77832)"/>
<circle cx="63.605" cy="76.2915" r="45.3041" transform="rotate(-12.4008 63.605 76.2915)" fill="#381AE3"/>
<path d="M54.0857 31.9983C29.4595 37.4131 13.9148 61.2654 19.4663 86.5134C21.0196 93.5776 24.0419 99.9074 28.1877 105.167L108.288 87.5549C109.845 81.0411 109.933 74.0274 108.38 66.9632C102.828 41.7152 78.7119 26.5835 54.0857 31.9983Z" fill="url(#paint6_linear_845_77832)"/>
<path d="M64.8842 40.3209L69.8094 39.238C70.7167 39.0385 71.6669 39.6524 71.8683 40.5681C72.0696 41.4839 71.4646 42.4398 70.5573 42.6392L65.632 43.7222C64.7248 43.9217 63.7745 43.3078 63.5732 42.392C63.3718 41.4763 63.9769 40.5204 64.8842 40.3209Z" fill="white"/>
<path d="M42.849 45.1686L47.7743 44.0856C48.6815 43.8861 49.6318 44.5 49.8331 45.4158C50.0345 46.3315 49.4294 47.2874 48.5221 47.4869L43.5969 48.5699C42.6896 48.7694 41.7393 48.1554 41.538 47.2397C41.3366 46.324 41.9417 45.3681 42.849 45.1686Z" fill="white"/>
<path d="M80.9977 62.3122L80.4793 62.4262C79.3415 62.8135 78.3334 63.1723 77.2965 63.4003L77.1669 63.4288C71.9537 64.4379 67.5185 64.0417 63.5733 62.1663C61.5719 61.0978 59.887 61.4683 58.3888 63.3063C53.7072 68.5871 47.4855 71.1894 39.5366 70.8801C32.2645 70.559 26.7213 66.9779 24.7501 61.1027L24.9085 61.205C26.1755 62.0236 27.6008 62.9444 29.4296 63.2281C32.5975 64.0401 35.4923 62.9922 37.2642 60.5454C38.7623 58.7074 40.1021 56.7671 42.0466 55.1052C46.4974 51.2466 50.9618 50.5393 56.3756 52.9146C56.9804 53.1931 59.0826 54.1023 60.7824 51.9456C64.1534 47.5016 69.5683 46.1738 75.6015 48.2758C77.6749 49.0542 79.6475 49.9919 81.0441 50.782C84.4421 52.6405 87.4519 52.1159 90.2608 49.4411C91.2547 48.3997 92.119 47.3868 92.7962 46.1408C93.6438 53.0858 88.9619 59.601 80.9977 62.3122Z" fill="white"/>
<g style="mix-blend-mode:multiply" opacity="0.12">
<path d="M80.0007 70.7422L19.2578 85.557C20.1467 90.2977 21.9739 94.9397 22.9615 95.9274L95.9266 94.0755L105.186 78.52L80.0007 70.7422Z" fill="#1F08A4"/>
</g>
<path d="M140.258 130.516L80.0023 116.462L80.0023 78.5156L140.258 92.5697L140.258 130.516Z" fill="url(#paint7_linear_845_77832)"/>
<g style="mix-blend-mode:multiply" opacity="0.3">
<path d="M83.7044 87.7771C82.2517 84.2905 83.7044 80.8635 84.8155 79.6289L126.667 95.9252L92.6207 104.067C92.6032 104.112 92.5933 104.116 92.5933 104.073L92.6207 104.067C92.7548 103.718 93.334 100.921 93.334 97.7771C93.334 93.3326 85.5562 92.2215 83.7044 87.7771Z" fill="#E6940D"/>
</g>
<path d="M19.7461 130.516L80.0016 116.462L80.0017 78.5156L19.7461 92.5697L19.7461 130.516Z" fill="url(#paint8_linear_845_77832)"/>
<path d="M19.7461 93.1836L80.0016 107.238L80.0016 167.406L19.7461 153.352L19.7461 93.1836Z" fill="url(#paint9_linear_845_77832)"/>
<path d="M143.036 67.8008L137.482 64.449C136.532 63.8757 135.547 62.5333 135.285 61.4782L133.716 55.1476C133.076 52.5685 130.446 50.9808 127.87 51.6194L121.576 53.1797C120.523 53.4409 118.877 53.1955 117.927 52.6222L112.373 49.2704C110.108 47.9032 107.122 48.6434 105.758 50.9105L102.355 56.483C101.812 57.4264 100.471 58.412 99.3884 58.6805L93.0949 60.2408C90.519 60.8794 88.9346 63.5121 89.574 66.0912L91.1363 72.3926C91.3978 73.4477 91.1537 75.0948 90.5816 76.0455L87.2367 81.6034C85.8724 83.8705 86.6135 86.86 88.8789 88.2271L94.4326 91.5789C95.3826 92.1523 96.3679 93.4946 96.6295 94.5497L98.1917 100.851C98.8311 103.43 101.462 105.018 104.038 104.379L110.331 102.819C111.385 102.558 113.03 102.803 113.98 103.376L119.534 106.728C121.799 108.095 124.785 107.355 126.15 105.088L129.494 99.5302C130.067 98.5795 131.407 97.5939 132.461 97.3327L138.754 95.7724C141.33 95.1338 142.914 92.5011 142.275 89.9219L140.713 83.6206C140.451 82.5655 140.695 80.9184 141.267 79.9677L144.612 74.4097C146.072 72.1502 145.331 69.1607 143.036 67.8008Z" fill="#CDC5F7"/>
<path d="M142.411 64.9531L136.857 61.6013C135.907 61.028 134.922 59.6857 134.66 58.6306L133.091 52.3C132.451 49.7208 129.821 48.1331 127.245 48.7717L120.951 50.332C119.898 50.5933 118.252 50.3479 117.302 49.7745L111.748 46.4227C109.483 45.0556 106.497 45.7958 105.133 48.0628L101.73 53.6353C101.187 54.5787 99.8464 55.5643 98.7634 55.8328L92.4699 57.3931C89.894 58.0317 88.3096 60.6644 88.949 63.2436L90.5113 69.5449C90.7728 70.6 90.5287 72.2471 89.9566 73.1978L86.6117 78.7558C85.2474 81.0228 85.9885 84.0123 88.2539 85.3795L93.8076 88.7313C94.7576 89.3046 95.7429 90.647 96.0045 91.7021L97.5667 98.0034C98.2061 100.583 100.837 102.17 103.413 101.532L109.706 99.9713C110.76 99.7101 112.405 99.9554 113.355 100.529L118.909 103.881C121.174 105.248 124.16 104.508 125.525 102.24L128.869 96.6825C129.442 95.7318 130.782 94.7463 131.836 94.485L138.129 92.9247C140.705 92.2861 142.289 89.6534 141.65 87.0743L140.088 80.7729C139.826 79.7178 140.07 78.0707 140.642 77.12L143.987 71.5621C145.447 69.3025 144.706 66.3131 142.411 64.9531Z" fill="#EBE8FF"/>
<path d="M113.787 82.0996C113.025 81.9009 112.489 81.495 112.179 80.882C111.869 80.269 111.821 79.552 112.036 78.7312C112.242 77.9397 112.521 77.2297 112.873 76.6013C113.261 75.9512 113.749 75.3425 114.335 74.7753C114.958 74.1863 115.713 73.6318 116.6 73.1117C117.199 72.7356 117.68 72.3914 118.044 72.0791C118.436 71.7744 118.733 71.4761 118.934 71.1842C119.143 70.863 119.294 70.5265 119.385 70.1747C119.561 69.5005 119.446 68.9225 119.039 68.4407C118.633 67.959 117.96 67.5958 117.022 67.3512C116.084 67.1066 115.178 66.9799 114.303 66.9711C113.429 66.9623 112.557 67.0638 111.688 67.2754C110.686 67.5152 109.867 67.4739 109.231 67.1515C108.603 66.7998 108.167 66.3104 107.923 65.6834C107.68 65.0563 107.62 64.3833 107.745 63.6645C107.899 62.9532 108.27 62.314 108.856 61.7467C109.471 61.1871 110.291 60.8059 111.314 60.6031C112.669 60.3302 114.055 60.2376 115.473 60.3254C116.898 60.3838 118.196 60.5659 119.369 60.8717C121.392 61.3991 123.081 62.184 124.438 63.2264C125.823 64.2765 126.788 65.4987 127.333 66.893C127.885 68.2579 127.958 69.7173 127.553 71.2711C127.324 72.1505 126.974 72.9516 126.504 73.6744C126.034 74.3971 125.406 75.0632 124.621 75.6725C123.843 76.2525 122.828 76.7861 121.574 77.2731C120.489 77.7104 119.629 78.128 118.993 78.5257C118.364 78.8942 117.872 79.2823 117.515 79.6902C117.187 80.1058 116.892 80.5768 116.63 81.1032C116.39 81.5417 116.038 81.8725 115.573 82.0956C115.115 82.2894 114.52 82.2907 113.787 82.0996ZM110.915 92.575C109.567 92.2234 108.6 91.5487 108.015 90.5508C107.459 89.5605 107.349 88.4204 107.685 87.1305C108.014 85.8699 108.659 84.9579 109.62 84.3944C110.618 83.8092 111.791 83.6925 113.139 84.0441C114.488 84.3957 115.44 85.0666 115.996 86.0569C116.559 87.0178 116.677 88.1286 116.348 89.3892C116.012 90.6791 115.359 91.6204 114.391 92.2132C113.422 92.806 112.264 92.9266 110.915 92.575Z" fill="#4E3EA9"/>
<path d="M113.369 80.6035C112.607 80.4048 112.071 79.9989 111.761 79.3859C111.451 78.7729 111.404 78.0559 111.618 77.2351C111.824 76.4436 112.103 75.7336 112.455 75.1052C112.843 74.4551 113.331 73.8464 113.917 73.2792C114.54 72.6903 115.295 72.1357 116.182 71.6156C116.781 71.2395 117.262 70.8953 117.626 70.583C118.018 70.2783 118.315 69.98 118.516 69.6881C118.725 69.3669 118.876 69.0304 118.967 68.6786C119.143 68.0044 119.028 67.4264 118.621 66.9446C118.215 66.4629 117.542 66.0997 116.604 65.8551C115.666 65.6105 114.76 65.4838 113.885 65.475C113.011 65.4662 112.139 65.5677 111.27 65.7794C110.268 66.0191 109.449 65.9778 108.813 65.6554C108.185 65.3037 107.749 64.8143 107.505 64.1873C107.262 63.5602 107.203 62.8873 107.327 62.1684C107.481 61.4572 107.852 60.8179 108.438 60.2507C109.053 59.691 109.873 59.3098 110.896 59.107C112.251 58.8341 113.637 58.7415 115.055 58.8293C116.48 58.8877 117.778 59.0698 118.951 59.3756C120.974 59.903 122.663 60.6879 124.02 61.7303C125.405 62.7804 126.37 64.0026 126.915 65.3969C127.467 66.7618 127.54 68.2212 127.135 69.775C126.906 70.6544 126.556 71.4556 126.086 72.1783C125.616 72.901 124.988 73.5671 124.203 74.1764C123.425 74.7564 122.41 75.29 121.156 75.777C120.071 76.2143 119.211 76.6319 118.575 77.0296C117.946 77.3981 117.454 77.7862 117.097 78.1941C116.77 78.6097 116.475 79.0807 116.212 79.6071C115.972 80.0456 115.62 80.3764 115.155 80.5995C114.697 80.7933 114.102 80.7946 113.369 80.6035ZM110.497 91.0789C109.149 90.7273 108.182 90.0526 107.597 89.0547C107.041 88.0644 106.931 86.9243 107.267 85.6344C107.596 84.3738 108.241 83.4618 109.202 82.8983C110.2 82.3131 111.373 82.1964 112.721 82.548C114.07 82.8996 115.022 83.5705 115.578 84.5608C116.141 85.5217 116.259 86.6325 115.93 87.8931C115.594 89.183 114.941 90.1243 113.973 90.7171C113.004 91.3099 111.846 91.4305 110.497 91.0789Z" fill="url(#paint10_linear_845_77832)"/>
<g style="mix-blend-mode:multiply" opacity="0.3">
<path d="M20 92.5898L80 107.034L69.6296 147.775L20 129.257L20 92.5898Z" fill="#ECA814"/>
</g>
<path d="M140.258 93.1836L80.0023 107.238L80.0023 167.406L140.258 153.352L140.258 93.1836Z" fill="url(#paint11_linear_845_77832)"/>
<g style="mix-blend-mode:multiply" opacity="0.3">
<path d="M140 93.332L80 107.776L90.3704 148.517L140 129.999L140 93.332Z" fill="#ECA814"/>
</g>
<path d="M31.298 50.3756C31.7917 52.6505 30.3553 54.8932 28.0898 55.385C25.8242 55.8767 23.5873 54.4312 23.0936 52.1563C22.5998 49.8815 23.321 44.3436 25.5866 43.8518C27.8521 43.3601 30.8042 48.1008 31.298 50.3756Z" fill="#DAD3FF"/>
<path d="M31.298 50.3756C31.7917 52.6505 30.3553 54.8932 28.0898 55.385C25.8242 55.8767 23.5873 54.4312 23.0936 52.1563C22.5998 49.8815 23.321 44.3436 25.5866 43.8518C27.8521 43.3601 30.8042 48.1008 31.298 50.3756Z" fill="url(#paint12_linear_845_77832)"/>
</g>
<path d="M140.164 92.5938L79.9991 107.127L95.39 140.001L155.555 120.524L140.164 92.5938Z" fill="url(#paint13_linear_845_77832)"/>
<path d="M19.8363 92.5938L80.0009 107.127L64.61 140.001L4.44531 120.524L19.8363 92.5938Z" fill="url(#paint14_linear_845_77832)"/>
<defs>
<linearGradient id="paint0_linear_845_77832" x1="80" y1="0" x2="80" y2="160" gradientUnits="userSpaceOnUse">
<stop stop-color="#F6F4FF"/>
<stop offset="1" stop-color="#EBE8FF"/>
</linearGradient>
<linearGradient id="paint1_linear_845_77832" x1="79.9994" y1="70.3711" x2="79.9994" y2="104.445" gradientUnits="userSpaceOnUse">
<stop stop-color="#D0C9FF"/>
<stop offset="1" stop-color="#917FFE" stop-opacity="0"/>
</linearGradient>
<linearGradient id="paint2_linear_845_77832" x1="114.075" y1="-21.4805" x2="114.075" y2="61.4825" gradientUnits="userSpaceOnUse">
<stop stop-color="#FEE493"/>
<stop offset="1" stop-color="#FEE493" stop-opacity="0"/>
</linearGradient>
<linearGradient id="paint3_linear_845_77832" x1="135.371" y1="-114.09" x2="135.371" y2="196.91" gradientUnits="userSpaceOnUse">
<stop stop-color="#FEE493"/>
<stop offset="1" stop-color="#FEE493" stop-opacity="0"/>
</linearGradient>
<linearGradient id="paint4_linear_845_77832" x1="140.74" y1="23.6293" x2="140.74" y2="55.5707" gradientUnits="userSpaceOnUse">
<stop stop-color="white" stop-opacity="0.62"/>
<stop offset="1" stop-color="white" stop-opacity="0"/>
</linearGradient>
<linearGradient id="paint5_linear_845_77832" x1="32.9608" y1="18.6522" x2="32.9608" y2="44.7096" gradientUnits="userSpaceOnUse">
<stop stop-color="white" stop-opacity="0.8"/>
<stop offset="0.723958" stop-color="white" stop-opacity="0"/>
</linearGradient>
<linearGradient id="paint6_linear_845_77832" x1="54.0857" y1="31.9983" x2="68.2377" y2="96.3611" gradientUnits="userSpaceOnUse">
<stop stop-color="#9886FF"/>
<stop offset="0.713542" stop-color="#5F44F6"/>
<stop offset="1" stop-color="#3112E0"/>
</linearGradient>
<linearGradient id="paint7_linear_845_77832" x1="110.13" y1="73.3156" x2="101.849" y2="127.661" gradientUnits="userSpaceOnUse">
<stop stop-color="#FFE53B"/>
<stop offset="1" stop-color="#E28800"/>
</linearGradient>
<linearGradient id="paint8_linear_845_77832" x1="49.8739" y1="73.3156" x2="58.1546" y2="127.661" gradientUnits="userSpaceOnUse">
<stop stop-color="#FFE53B"/>
<stop offset="0.744792" stop-color="#E28800"/>
</linearGradient>
<linearGradient id="paint9_linear_845_77832" x1="49.8739" y1="174.828" x2="66.3565" y2="99.0422" gradientUnits="userSpaceOnUse">
<stop stop-color="#E28800"/>
<stop offset="1" stop-color="#FFE53B"/>
</linearGradient>
<linearGradient id="paint10_linear_845_77832" x1="118.95" y1="59.3752" x2="110.672" y2="91.1244" gradientUnits="userSpaceOnUse">
<stop stop-color="#6F56F8"/>
<stop offset="1" stop-color="#9583FE"/>
</linearGradient>
<linearGradient id="paint11_linear_845_77832" x1="80.0022" y1="176.665" x2="155.623" y2="111.181" gradientUnits="userSpaceOnUse">
<stop stop-color="#E28800"/>
<stop offset="1" stop-color="#FFE53B"/>
</linearGradient>
<linearGradient id="paint12_linear_845_77832" x1="25.5866" y1="43.8518" x2="28.0898" y2="55.385" gradientUnits="userSpaceOnUse">
<stop stop-color="white" stop-opacity="0"/>
<stop offset="1" stop-color="white"/>
</linearGradient>
<linearGradient id="paint13_linear_845_77832" x1="79.999" y1="176.016" x2="155.115" y2="110.46" gradientUnits="userSpaceOnUse">
<stop stop-color="#FFEFC1"/>
<stop offset="1" stop-color="#FED75A"/>
</linearGradient>
<linearGradient id="paint14_linear_845_77832" x1="80.001" y1="176.016" x2="4.88508" y2="110.46" gradientUnits="userSpaceOnUse">
<stop stop-color="#FFEFC1"/>
<stop offset="1" stop-color="#FED75A"/>
</linearGradient>
</defs>
</svg>
