<svg width="134" height="54" viewBox="0 0 134 54" fill="none" xmlns="http://www.w3.org/2000/svg">
<path d="M89.2126 32.129C88.2237 32.129 87.2348 32.129 86.2459 32.129C86.0367 32.129 85.9797 32.2048 85.9987 32.3945C86.0557 33.3428 86.8544 34.1773 87.8433 34.3101C88.7752 34.4428 89.65 34.2721 90.4867 33.798C90.8481 33.5894 91.2094 33.3428 91.6468 33.3049C92.2363 33.248 92.7498 33.3807 93.0921 33.8928C93.4344 34.4049 93.3583 34.917 93.0541 35.4101C92.8258 35.7894 92.5216 36.0929 92.1222 36.3015C89.8592 37.4774 87.52 37.6292 85.257 36.4153C83.6405 35.5429 82.7087 34.1204 82.6516 32.2238C82.6136 31.1807 82.5375 30.1185 82.7087 29.0944C83.051 26.9512 84.3632 25.5856 86.398 24.9408C88.528 24.277 90.5057 24.6563 92.1983 26.1736C93.2442 27.1029 93.7577 28.2978 93.7957 29.6823C93.8147 30.0237 93.8147 30.3651 93.7767 30.7255C93.6626 31.522 93.0731 32.091 92.2553 32.11C91.2284 32.1479 90.2205 32.129 89.2126 32.129ZM88.1666 29.6065C88.8132 29.6065 89.4598 29.5875 90.1064 29.6065C90.3726 29.6065 90.4297 29.5306 90.4107 29.284C90.2966 28.4116 89.5359 27.6909 88.528 27.5202C87.3109 27.3305 86.0938 28.203 85.9987 29.3599C85.9797 29.5496 86.0367 29.6065 86.2269 29.6065C86.8544 29.6065 87.52 29.6065 88.1666 29.6065Z" fill="#EF2E60"/>
<path d="M58.0228 32.4505C58.0228 33.3988 58.0228 34.3471 58.0228 35.2954C58.0228 36.3385 57.3381 37.0023 56.2922 37.0403C54.6377 37.0972 52.9832 37.192 51.3287 37.2489C49.9214 37.3058 48.7043 36.8506 47.8105 35.7316C46.6314 34.2523 46.9167 31.9953 48.4001 30.8383C49.2939 30.1366 50.3208 29.7952 51.4428 29.7193C52.4317 29.6435 53.4016 29.6624 54.3905 29.6814C54.6377 29.6814 54.6757 29.5676 54.6567 29.3779C54.5806 28.4296 53.877 27.7279 52.9071 27.5951C52.1464 27.4813 51.4808 27.7089 50.8723 28.1451C50.6251 28.3158 50.3778 28.4865 50.1306 28.6383C49.7693 28.8659 49.3699 28.9228 48.9706 28.8469C47.9627 28.6762 47.5253 27.7089 48.0387 26.8175C48.4761 26.0589 49.1607 25.5847 49.9595 25.2433C52.1464 24.3519 54.2193 24.4847 56.1591 25.9071C57.4713 26.8744 58.0037 28.202 58.0228 29.7762C58.0228 30.6487 58.0228 31.5401 58.0228 32.4505ZM54.6757 33.247C54.6757 32.9246 54.6567 32.6212 54.6757 32.2987C54.6757 32.1091 54.5997 32.0332 54.4285 32.0332C54.2383 32.0332 54.0482 32.0711 53.858 32.0522C53.1163 32.0142 52.3556 32.0522 51.614 32.128C50.8723 32.2039 50.3969 32.7729 50.4729 33.4746C50.511 34.0057 50.9484 34.4609 51.5949 34.5557C52.4887 34.7074 53.4016 34.7643 54.3144 34.5936C54.5997 34.5367 54.7138 34.404 54.7138 34.1195C54.6757 33.854 54.6757 33.5505 54.6757 33.247Z" fill="#EF2E60"/>
<path d="M133.997 32.4504C133.997 33.3797 133.997 34.3091 133.997 35.2384C133.997 36.3384 133.332 36.9833 132.21 37.0212C130.574 37.0781 128.92 37.173 127.284 37.2299C125.953 37.2678 124.793 36.8505 123.899 35.8643C122.796 34.6505 122.549 31.9952 124.66 30.6107C125.497 30.0606 126.428 29.7761 127.417 29.6813C128.406 29.6055 129.376 29.6244 130.365 29.6434C130.593 29.6434 130.631 29.5675 130.631 29.3589C130.612 28.4485 129.889 27.6899 128.882 27.5571C128.216 27.4623 127.607 27.614 127.037 27.9744C126.752 28.164 126.485 28.3537 126.2 28.5433C125.782 28.8278 125.306 28.9037 124.812 28.7709C123.88 28.5433 123.5 27.6519 123.956 26.8174C124.241 26.2864 124.66 25.8501 125.192 25.5657C127.417 24.3708 129.623 24.257 131.81 25.6605C133.198 26.5519 133.902 27.8606 133.959 29.4917C134.016 30.4969 133.997 31.4831 133.997 32.4504ZM130.669 33.247C130.669 32.9435 130.65 32.64 130.669 32.3176C130.688 32.109 130.574 32.0142 130.384 32.0331C130.194 32.0331 130.004 32.0711 129.813 32.0521C129.053 31.9952 128.311 32.0521 127.569 32.128C126.828 32.2228 126.39 32.7728 126.447 33.4746C126.485 33.9866 126.904 34.4418 127.512 34.5367C128.444 34.7074 129.376 34.7643 130.327 34.5936C130.574 34.5556 130.688 34.4039 130.688 34.1573C130.669 33.8728 130.669 33.5504 130.669 33.247Z" fill="#FCB213"/>
<path d="M115.645 32.4516C115.645 33.4188 115.645 34.3861 115.645 35.3534C115.645 36.3017 114.998 36.9845 114.047 37.0034C112.355 37.0603 110.643 37.1552 108.951 37.231C107.543 37.2879 106.326 36.8327 105.432 35.7137C104.386 34.3861 104.215 31.7498 106.668 30.4032C107.6 29.8911 108.589 29.7015 109.635 29.6825C110.434 29.6635 111.233 29.6635 112.031 29.6635C112.241 29.6635 112.298 29.6066 112.298 29.398C112.298 28.4876 111.537 27.71 110.548 27.5583C109.825 27.4634 109.179 27.6531 108.589 28.0704C108.304 28.26 108.038 28.4497 107.752 28.6394C107.391 28.8669 106.992 28.9049 106.573 28.829C105.565 28.6204 105.166 27.6721 105.68 26.7996C106.155 25.9841 106.916 25.5099 107.771 25.1685C109.825 24.3909 111.784 24.5237 113.61 25.7755C114.941 26.6858 115.588 27.9755 115.626 29.5497C115.664 30.517 115.645 31.4843 115.645 32.4516ZM112.317 32.7929C112.317 32.6602 112.298 32.5274 112.317 32.3947C112.355 32.1102 112.202 32.0153 111.936 32.0343C111.765 32.0533 111.613 32.0722 111.442 32.0533C110.7 32.0153 109.939 32.0343 109.198 32.1291C108.684 32.186 108.285 32.4516 108.114 32.9636C107.886 33.6464 108.285 34.3671 109.046 34.5378C109.977 34.7275 110.909 34.7844 111.841 34.6137C112.202 34.5568 112.279 34.443 112.279 34.0637C112.317 33.6464 112.317 33.2292 112.317 32.7929Z" fill="#FCB213"/>
<path d="M59.81 32.1474C59.81 31.1422 59.829 30.137 59.81 29.1318C59.753 26.742 61.4265 25.4713 63.0049 25.1489C64.3932 24.8644 65.8195 24.8454 67.2267 25.1299C69.2235 25.5282 70.4787 27.0265 70.6879 29.0749C70.7639 29.7956 70.7449 30.5353 70.7449 31.256C70.7449 32.6784 70.7449 34.1009 70.7449 35.5234C70.7449 36.2062 70.4597 36.7372 69.8321 37.0217C69.1665 37.3252 68.5389 37.2493 67.9684 36.7941C67.512 36.4337 67.4169 35.9217 67.4169 35.3716C67.4169 33.5509 67.4169 31.7491 67.4169 29.9283C67.4169 29.568 67.3789 29.2266 67.2648 28.8852C67.0366 28.2404 66.6182 27.8421 65.8955 27.7852C65.4962 27.7472 65.1158 27.7283 64.7165 27.7852C63.7276 27.9369 63.2331 28.468 63.1951 29.4732C63.157 30.2318 63.1761 30.9905 63.1761 31.7491C63.1761 33.0009 63.1761 34.2526 63.1761 35.4854C63.1761 36.1872 62.9098 36.7372 62.2442 37.0217C61.5406 37.3252 60.913 37.2114 60.3425 36.7372C59.9812 36.4148 59.848 35.9975 59.848 35.5234C59.81 34.4044 59.81 33.2664 59.81 32.1474Z" fill="#EF2E60"/>
<path d="M77.155 30.6879C77.155 31.4466 77.136 32.2052 77.155 32.9639C77.1741 33.6277 77.4783 34.045 77.9918 34.1777C78.1249 34.2156 78.277 34.2156 78.4292 34.2156C78.9997 34.2156 79.5892 34.2156 80.1597 34.2156C80.8254 34.2346 81.3388 34.576 81.548 35.145C81.7572 35.695 81.6051 36.3019 81.1677 36.7002C80.9395 36.9088 80.6542 37.0606 80.3309 37.0606C79.304 37.0606 78.277 37.0985 77.2501 36.9657C75.5576 36.7571 73.9792 35.0881 73.8651 33.3811C73.751 31.769 73.808 30.1379 73.808 28.5258C73.808 28.1275 73.808 28.1085 73.3896 28.0896C72.2866 28.0137 71.7161 27.274 71.9633 26.2688C72.0965 25.6998 72.5909 25.3205 73.3136 25.2446C73.808 25.1877 73.808 25.1877 73.808 24.6946C73.808 24.2963 73.77 23.898 73.827 23.5187C73.9411 22.6463 74.7018 22.1152 75.6527 22.1721C76.4704 22.229 77.117 22.8928 77.136 23.7274C77.155 24.1446 77.155 24.5619 77.136 24.9602C77.117 25.1877 77.2121 25.2257 77.4213 25.2257C78.258 25.2257 79.0948 25.1877 79.9315 25.2636C80.7112 25.3395 81.1867 25.9085 81.1677 26.724C81.1486 27.4637 80.6162 27.9947 79.8745 28.0516C79.0568 28.1085 78.239 28.0896 77.4213 28.0896C77.1931 28.0896 77.136 28.1654 77.136 28.3551C77.136 29.1327 77.136 29.9103 77.155 30.6879Z" fill="#EF2E60"/>
<path d="M117.831 32.2037C117.831 30.326 117.831 28.4674 117.831 26.5897C117.831 25.3759 118.915 24.5983 120.037 24.9776C120.703 25.2052 121.159 25.7931 121.159 26.5328C121.159 30.2881 121.178 34.0624 121.159 37.8177C121.14 40.1885 119.428 41.9144 117.07 42.0471C116.576 42.0851 116.081 42.0661 115.606 42.0471C114.902 42.0092 114.37 41.5161 114.294 40.8333C114.218 40.0936 114.655 39.4488 115.34 39.2781C115.701 39.1832 116.062 39.2212 116.424 39.2212C117.394 39.2212 117.812 38.8039 117.812 37.8367C117.812 37.8177 117.812 37.7987 117.812 37.7798C117.831 35.9211 117.831 34.0624 117.831 32.2037Z" fill="#FCB213"/>
<path d="M95.9057 31.1241C95.9057 29.7206 95.9057 28.2981 95.9057 26.8946C95.9057 25.9463 96.4002 25.3015 97.1799 25.1687C97.9216 25.036 98.5301 25.2446 98.9675 25.8705C99.0055 25.9274 99.0436 25.9843 99.0816 26.0412C99.3288 26.4015 99.3288 26.4015 99.6331 26.0791C100.071 25.6239 100.565 25.2446 101.193 25.0929C101.82 24.9411 102.486 24.9411 103.113 25.036C103.893 25.1498 104.33 25.7567 104.311 26.5532C104.292 27.2171 103.76 27.7481 103.018 27.843C102.524 27.8998 102.029 27.8809 101.554 27.8809C100.128 27.8809 99.2337 28.7723 99.2337 30.2137C99.2337 32.0345 99.2337 33.8363 99.2147 35.657C99.2147 36.4915 98.6252 37.1174 97.7314 37.2122C96.9137 37.3071 96.1149 36.795 95.9438 36.0363C95.8867 35.8277 95.8867 35.6001 95.8867 35.3725C95.8867 33.9501 95.9057 32.5276 95.9057 31.1241Z" fill="#EF2E60"/>
<path d="M119.297 19.8203C120.799 19.8203 121.636 20.9393 121.179 22.0773C120.913 22.7601 120.248 23.1584 119.392 23.1394C118.631 23.1204 118.061 22.7221 117.813 22.0204C117.585 21.3566 117.775 20.6359 118.327 20.1807C118.669 19.8962 119.068 19.8203 119.297 19.8203Z" fill="#FCB213"/>
<path d="M32.5782 6.9028L21.7574 11.8719C21.0538 11.6443 20.3501 11.5116 19.6465 11.4547C17.0221 11.2271 14.626 11.9478 12.3249 13.1047C11.0888 13.7306 9.94772 14.5082 8.82571 15.3048C8.46438 15.5514 8.14109 15.8548 7.79878 16.1393C5.32654 18.2635 1.48506 17.3721 0.305998 14.0151C-0.435673 11.8909 0.191895 9.76669 1.9605 8.34423C3.9573 6.71314 6.10625 5.30964 8.42634 4.17167C10.9937 2.9199 13.6751 2.06643 16.5087 1.78193C19.8367 1.44054 23.0506 1.87676 26.1504 3.12853C28.3374 4.00098 30.2961 5.25274 32.0457 6.80797C32.2169 6.9597 32.35 6.99763 32.5782 6.9028Z" fill="#EF2E60"/>
<path d="M57.8897 2.56027C57.8136 2.54131 57.7376 2.52234 57.6615 2.50337C55.7408 2.16198 53.82 1.83956 51.8993 1.49817C49.0467 1.00505 46.1941 0.511926 43.3415 0.0188052C43.0943 -0.0191272 42.8661 -0.0191272 42.733 0.208467C42.5809 0.455027 42.714 0.663655 42.8661 0.853317C43.3606 1.44127 43.836 2.04819 44.3304 2.6551C44.2734 2.67407 44.2354 2.712 44.1973 2.712C43.3225 2.97753 42.4287 3.26202 41.5539 3.52755C38.4922 4.45689 35.5255 5.65176 32.5778 6.88456L21.757 11.8537C21.6429 11.9106 21.5668 11.9675 21.4718 12.0054C19.3038 13.1624 17.1929 14.3952 15.158 15.7607C12.0392 17.847 9.11058 20.1798 6.63834 23.0248C5.66846 24.1438 4.77465 25.3007 4.03298 26.5714C3.53854 27.2922 3.12016 28.0887 2.73981 28.8853C1.16138 32.0906 0.362662 35.4476 0.762023 39.0322C1.02826 41.4409 1.7319 43.7169 2.98704 45.8032C5.19303 49.4826 8.54006 51.7206 12.5337 53.0482C15.4623 54.0155 18.4861 54.1862 21.5478 53.8258C24.1342 53.5224 26.6064 52.8396 28.9075 51.6068C30.524 50.7344 31.9883 49.6722 33.3575 48.4774C34.3464 47.6049 35.2402 46.6377 36.077 45.6135C36.9708 44.5135 37.7695 43.3375 38.4731 42.1047C38.7394 41.6306 39.0437 41.1375 39.2148 40.6064C39.2719 40.5116 39.3289 40.4168 39.386 40.303C40.546 37.7994 41.1546 35.1442 41.4398 32.413C41.63 30.6492 41.611 28.9043 41.5159 27.1404C41.4018 25.2248 41.0595 23.3472 40.6031 21.4885C40.3178 20.3316 39.9565 19.1936 39.5381 18.0746C39.1958 17.1453 38.7964 16.2159 38.359 15.3245C38.283 15.1728 38.264 15.0969 38.4161 15.021L38.4731 15.0021C39.8043 14.49 41.1165 13.9779 42.4668 13.5417C44.0452 13.0486 45.6046 12.5175 47.183 12.0623C47.5444 11.9485 47.5444 11.9675 47.5634 12.3279C47.5634 13.0296 47.5824 13.7503 47.5824 14.4521C47.5824 14.6797 47.5824 14.9262 47.8676 15.021C48.1339 15.1159 48.286 14.9452 48.4191 14.7745C49.5031 13.5607 50.6061 12.3658 51.6901 11.1519C52.9833 9.72949 54.2764 8.28806 55.5886 6.86559C56.4824 5.87935 57.3762 4.89311 58.251 3.92584C58.7645 3.35685 58.6124 2.78787 57.8897 2.56027ZM27.234 40.834C25.3893 42.6168 23.2594 43.8876 20.673 44.2669C18.0677 44.6462 15.6145 44.2669 13.4275 42.7496C11.6589 41.5168 10.7841 39.7719 10.651 37.6477C10.4988 35.3528 11.2976 33.3424 12.4766 31.4458C12.7809 30.9716 13.1042 30.5354 13.4275 30.0802C15.8997 27.0077 19.0756 24.7507 22.3846 22.7023C23.8869 21.773 25.4464 20.9385 27.0058 20.104C27.6904 19.7436 28.375 19.4212 29.0596 19.0798C29.1167 19.0608 29.1547 19.0419 29.1927 19.0229C29.2688 19.0229 29.3259 19.0608 29.3829 19.1746C30.524 21.4316 31.2656 23.8024 31.6079 26.3059C31.8361 27.8801 31.9122 29.4543 31.7791 31.0475C31.6079 33.0958 31.1896 35.0873 30.2007 36.927C30.1246 37.0597 30.0105 37.1925 29.9725 37.3442C29.2118 38.596 28.318 39.7719 27.234 40.834ZM30.1816 37.3253C30.2197 37.3442 30.2767 37.3442 30.3148 37.3632C30.8092 37.5718 31.3227 37.7615 31.8361 37.9512C31.3227 37.7615 30.8282 37.5718 30.3148 37.3632C30.2577 37.3442 30.2197 37.3442 30.1816 37.3253Z" fill="url(#paint0_linear_404_8289)"/>
<defs>
<linearGradient id="paint0_linear_404_8289" x1="10.7053" y1="52.4896" x2="44.0625" y2="-5.44225" gradientUnits="userSpaceOnUse">
<stop stop-color="#FCB213"/>
<stop offset="0.5251" stop-color="#EF2E60"/>
</linearGradient>
</defs>
</svg>
