<svg width="158" height="26" viewBox="0 0 158 26" fill="none" xmlns="http://www.w3.org/2000/svg">
<path d="M0 25.7717L6.55526 0.210938H16.8538L15.5722 5.18947H10.4552L9.4134 9.25282H14.2723L13.0091 14.1764H8.15027L5.17228 25.7625H0V25.7717Z" fill="#EC6927"/>
<path d="M11.7188 25.7717L18.2833 0.210938H23.262L16.6975 25.7717H11.7188Z" fill="#EC6927"/>
<path d="M18.7441 25.7717L25.2994 0.210938H33.2008C34.5192 0.210938 35.432 0.512944 35.9576 1.1078C36.4831 1.70267 36.7135 2.53547 36.6674 3.60622C36.6213 4.67697 36.4185 5.93076 36.0405 7.37673C35.6809 8.76779 35.22 9.88429 34.6483 10.7171C34.0767 11.5499 33.2561 12.1265 32.1958 12.4468C32.9611 12.6115 33.4313 13.0142 33.5972 13.6456C33.7632 14.2771 33.7171 15.1008 33.4589 16.1075L30.9789 25.7808H25.8987L28.4711 15.778C28.6647 15.0367 28.6277 14.57 28.3696 14.3869C28.1114 14.2039 27.632 14.1215 26.9498 14.1215L23.9533 25.7808H18.7441V25.7717ZM28.1114 9.6738H29.3561C30.066 9.6738 30.6192 8.90506 31.0157 7.36757C31.2738 6.37004 31.3569 5.72027 31.2831 5.40911C31.2093 5.09795 30.9512 4.94237 30.5271 4.94237H29.3285L28.1114 9.6738Z" fill="#EC6927"/>
<path d="M39.0831 26C36.732 26 35.1831 25.4234 34.4455 24.2612C33.708 23.0989 33.6619 21.2503 34.3072 18.7152L34.9526 16.2168H40.042L39.2214 19.4108C39.0739 20.0056 39.037 20.4632 39.1385 20.8018C39.2307 21.1313 39.5072 21.3052 39.9498 21.3052C40.42 21.3052 40.7796 21.1679 41.0285 20.9025C41.2775 20.628 41.4802 20.1887 41.6462 19.5664C41.849 18.7793 41.9413 18.1295 41.9136 17.5987C41.8952 17.0679 41.7477 16.5646 41.4895 16.0887C41.2314 15.6128 40.8349 15.0546 40.3186 14.4139L38.5668 12.2358C37.2576 10.616 36.8703 8.76734 37.4051 6.6899C37.9675 4.51179 38.8987 2.85533 40.2171 1.71137C41.5263 0.567406 43.1491 0 45.0852 0C47.4455 0 48.9576 0.622316 49.6306 1.8761C50.3036 3.12073 50.3036 5.02429 49.6582 7.56846H44.4214L44.8731 5.81133C44.9653 5.46357 44.9284 5.18902 44.7809 4.99683C44.6334 4.80465 44.3845 4.70398 44.0433 4.70398C43.6377 4.70398 43.3058 4.8138 43.0569 5.04259C42.808 5.27138 42.642 5.56424 42.5498 5.92116C42.4576 6.27807 42.4575 6.66244 42.5405 7.08342C42.6327 7.5044 42.8909 7.98029 43.3242 8.52024L45.5646 11.3481C46.0164 11.9064 46.4129 12.5012 46.7448 13.1235C47.0859 13.7459 47.298 14.478 47.3902 15.3017C47.4824 16.1253 47.3718 17.1411 47.0675 18.3309C46.4498 20.7286 45.5186 22.6139 44.2831 23.9775C43.02 25.3228 41.2958 26 39.0831 26Z" fill="#EC6927"/>
<path d="M49.0586 25.7717L54.36 5.11625H51.299L52.5621 0.210938H63.8288L62.5656 5.11625H59.5046L54.2032 25.7717H49.0586Z" fill="#EC6927"/>
<path d="M62.0778 9.88281H64.0877L60.5565 23.647H67.204L66.7706 25.3217H58.1133L62.0778 9.88281Z" fill="#C4C2BF"/>
<path d="M83.4209 17.4425C82.0564 22.7597 78.0827 25.5692 74.1089 25.5692C70.0061 25.5692 67.9316 22.4119 69.1302 17.7354C70.3841 12.8301 74.284 9.62695 78.433 9.62695C82.6833 9.62695 84.6011 12.8575 83.4209 17.4425ZM71.2876 17.6896C70.4394 20.9842 71.4813 23.9402 74.6437 23.9402C77.8245 23.9402 80.3784 21.03 81.2727 17.5249C82.0564 14.4591 81.2727 11.2468 77.9259 11.2468C74.6067 11.256 72.1635 14.3035 71.2876 17.6896Z" fill="#C4C2BF"/>
<path d="M96.0247 24.6366C95.0382 24.957 93.1297 25.4878 91.0276 25.4878C88.6765 25.4878 86.8878 24.8929 85.7354 23.4469C84.7304 22.1657 84.4262 20.1066 85.0439 17.6997C86.2517 13.0963 90.2992 9.72852 95.5084 9.72852C97.3062 9.72852 98.6155 10.122 99.2056 10.4423L98.302 12.0714C97.5644 11.7053 96.6056 11.4033 95.0382 11.4033C91.2581 11.4033 88.1878 13.737 87.1921 17.6081C86.1871 21.5251 87.9666 23.8405 91.59 23.8405C92.9084 23.8405 93.8488 23.6574 94.3744 23.4286L95.5545 18.8253H92.3921L92.807 17.2238H97.9332L96.0247 24.6366Z" fill="#C4C2BF"/>
<path d="M104.885 9.88281L100.92 25.3217H98.9102L102.875 9.88281H104.885Z" fill="#C4C2BF"/>
<path d="M104.776 22.8878C105.532 23.4369 106.731 23.8945 108.114 23.8945C110.17 23.8945 111.645 22.8146 112.042 21.2588C112.41 19.8128 111.793 18.9892 109.903 18.193C107.598 17.2961 106.362 15.9965 106.915 13.8184C107.533 11.4115 109.995 9.62695 113.019 9.62695C114.614 9.62695 115.674 9.99302 116.264 10.3865L115.296 12.0155C114.863 11.741 113.941 11.2834 112.53 11.2834C110.41 11.2834 109.276 12.5463 109.008 13.5988C108.64 15.0448 109.405 15.7494 111.332 16.5731C113.701 17.5798 114.715 18.8427 114.134 21.1123C113.526 23.4918 111.221 25.5601 107.552 25.5601C106.049 25.5601 104.527 25.1208 103.836 24.5717L104.776 22.8878Z" fill="#C4C2BF"/>
<path d="M122.282 11.5759H117.553L117.986 9.88281H129.502L129.068 11.5759H124.311L120.78 25.3217H118.751L122.282 11.5759Z" fill="#C4C2BF"/>
<path d="M133.246 9.88281L129.281 25.3217H127.271L131.236 9.88281H133.246Z" fill="#C4C2BF"/>
<path d="M143.783 24.8194C142.953 25.1855 141.376 25.5515 139.486 25.5515C135.098 25.5515 132.507 22.806 133.807 17.7451C135.052 12.913 139.191 9.63672 144.013 9.63672C145.949 9.63672 147.065 10.0485 147.526 10.3231L146.623 11.9521C145.959 11.586 144.945 11.3115 143.645 11.3115C140.003 11.3115 136.979 13.6269 135.946 17.6811C134.978 21.4607 136.545 23.8859 140.325 23.8859C141.552 23.8859 142.861 23.6297 143.764 23.2453L143.783 24.8194Z" fill="#C4C2BF"/>
<path d="M146.513 22.8878C147.269 23.4369 148.467 23.8945 149.85 23.8945C151.906 23.8945 153.381 22.8146 153.778 21.2588C154.147 19.8128 153.529 18.9892 151.639 18.193C149.334 17.2961 148.099 15.9965 148.652 13.8184C149.269 11.4115 151.731 9.62695 154.755 9.62695C156.35 9.62695 157.41 9.99302 158.001 10.3865L157.032 12.0155C156.599 11.741 155.677 11.2834 154.267 11.2834C152.146 11.2834 151.012 12.5463 150.745 13.5988C150.376 15.0448 151.141 15.7494 153.068 16.5731C155.437 17.5798 156.452 18.8427 155.871 21.1123C155.262 23.4918 152.957 25.5601 149.288 25.5601C147.785 25.5601 146.264 25.1208 145.572 24.5717L146.513 22.8878Z" fill="#C4C2BF"/>
</svg>
