<svg width="142" height="61" viewBox="0 0 142 61" fill="none" xmlns="http://www.w3.org/2000/svg">
<path d="M93.3535 31.5846C93.1689 32.1772 93.0868 32.7918 92.9637 33.3844C92.2456 36.918 91.548 40.4737 90.8504 44.0073C90.7684 44.4683 90.6658 44.9072 90.5837 45.3681C90.5221 45.7193 90.4606 45.6535 90.2349 45.6535C90.1939 45.6535 90.1528 45.6535 90.0913 45.6535C85.1466 45.6535 80.202 45.6535 75.2778 45.6535C75.2573 45.6535 75.2573 45.6535 75.2368 45.6535C74.9701 45.6974 74.8059 45.6096 74.7239 45.3242C74.6213 44.995 74.4571 44.6877 74.334 44.3805C72.8568 40.9565 71.4001 37.5326 69.9228 34.1087C69.8818 33.9989 69.8407 33.8672 69.7381 33.7575C69.7381 33.6697 69.6971 33.6039 69.6561 33.5161C68.343 30.4872 67.0504 27.4583 65.7373 24.4295C65.7168 24.3636 65.7168 24.2539 65.5937 24.2319C65.5732 24.3636 65.5321 24.4734 65.5116 24.6051C65.0807 26.7779 64.6293 28.9289 64.1985 31.1017C63.9728 32.2431 63.7471 33.3844 63.5214 34.5037C63.3162 35.5134 63.1111 36.523 62.9059 37.5326C62.3724 40.1225 61.8595 42.7343 61.3261 45.3242C61.2645 45.6315 61.2645 45.6315 60.9567 45.6315C55.6017 45.6315 50.2467 45.6315 44.9123 45.6315C44.8097 45.6315 44.7071 45.6535 44.584 45.5876C45.1585 42.7124 45.733 39.8372 46.328 36.9619C46.7383 34.9427 47.1486 32.9454 47.559 30.9262C47.7847 29.8507 47.9898 28.7972 48.195 27.7217C48.2155 27.6778 48.2155 27.6339 48.236 27.59C48.7695 24.9562 49.303 22.3224 49.8364 19.6886C51.088 13.4773 52.36 7.26591 53.6116 1.05454C53.6731 0.725319 53.7962 0.396095 53.7757 0.0449219C59.2949 0.0449219 64.814 0.0449219 70.3332 0.0449219C70.3332 0.176612 70.4152 0.264405 70.4563 0.374146C73.0414 6.1246 75.6266 11.8751 78.2118 17.6255C78.6221 18.5473 79.053 19.4911 79.4839 20.4129C79.5044 20.5227 79.5249 20.6105 79.6069 20.6763C79.648 20.5666 79.689 20.4788 79.6685 20.391C79.689 20.3032 79.7095 20.2154 79.73 20.1057C80.4276 16.6817 81.1252 13.2578 81.8228 9.85581C82.4794 6.58551 83.1564 3.31522 83.8335 0.0449219C89.0859 0.0449219 94.3384 0.0449219 99.5908 0.0449219C99.6113 0.154663 99.5703 0.264405 99.5497 0.352198C99.283 1.64715 99.0368 2.92015 98.7906 4.2151C97.9904 8.18774 97.2108 12.1823 96.4106 16.155C96.308 16.7037 96.1644 17.2304 96.1028 17.8011C95.9182 18.3937 95.8361 19.0082 95.713 19.6008C95.0154 23.0248 94.3383 26.4707 93.6613 29.8946C93.5587 30.4653 93.4151 31.014 93.3535 31.5846Z" fill="#1E3278"/>
<path d="M42.6362 37.5535C42.5952 37.6194 42.5541 37.6633 42.5131 37.7291C41.0564 40.1654 39.0457 41.9651 36.6862 43.282C34.8807 44.2916 32.9315 44.8843 30.9208 45.2135C29.1153 45.5208 27.2893 45.6305 25.4632 45.6305C21.7906 45.6305 18.118 45.6305 14.4455 45.6305C14.3429 45.6305 14.2403 45.6305 14.1172 45.6305C14.2198 45.1037 14.3224 44.6209 14.4044 44.1161C14.4865 43.699 14.5891 43.304 14.6301 42.887C14.7943 42.2944 14.8968 41.6579 15.02 41.0433C15.1636 40.2971 15.3482 39.5508 15.4508 38.7826C15.6355 38.0583 15.7586 37.334 15.9022 36.5878C16.2099 35.0953 16.4972 33.5809 16.7844 32.0884C16.846 31.7592 16.846 31.7592 17.1537 31.7811C18.713 31.8689 20.2724 31.847 21.8317 31.7811C22.5908 31.7592 23.35 31.7153 24.0886 31.6714C25.0119 31.6055 25.8941 31.3861 26.7353 31.0129C27.9869 30.4423 28.8075 29.4327 29.1974 28.0499C29.4231 27.2378 29.5667 26.4038 29.7308 25.5917C30.3874 22.2775 31.0439 18.9414 31.7005 15.6272C32.4186 11.9838 33.1367 8.34035 33.8753 4.69693C34.1831 3.13861 34.4908 1.55833 34.8191 0C40.1536 0 45.5086 0 50.8431 0C50.6995 0.746242 50.5559 1.51443 50.4122 2.26067C49.6736 6.05773 48.9145 9.85478 48.1758 13.6518C47.4167 17.4708 46.6781 21.2679 45.9395 25.0869C45.7138 26.2282 45.5086 27.3695 45.2829 28.5108C45.0777 29.5863 44.852 30.6398 44.6469 31.7153C44.3801 33.1419 44.0108 34.5466 43.4364 35.8855C43.1902 36.4781 42.8824 37.0048 42.6362 37.5535Z" fill="#1E3278"/>
<path d="M93.3535 31.5834C93.4151 31.0128 93.5587 30.4641 93.6613 29.9154C94.3383 26.4914 95.0154 23.0455 95.713 19.6216C95.8361 19.029 95.9182 18.4145 96.1028 17.8219C96.4516 17.778 96.8004 17.7341 97.1697 17.6902C97.8263 17.6024 98.4623 17.5146 99.1189 17.4268C99.7549 17.4048 100.37 17.2951 101.006 17.2293C102.443 17.0756 103.879 16.9 105.315 16.7683C106.874 16.6147 108.434 16.4611 109.993 16.3513C111.429 16.2416 112.865 16.1538 114.322 16.044C114.917 16.0001 115.492 16.0001 116.087 15.9124C116.333 15.8904 116.6 15.8904 116.846 15.8685C118.754 15.7807 120.662 15.6709 122.57 15.5831C125.689 15.4514 128.787 15.4075 131.905 15.3636C133.937 15.3417 135.968 15.4075 137.999 15.4075C138.963 15.4075 139.907 15.5173 140.871 15.4075C141.241 15.3636 141.631 15.3198 142 15.2539C142 15.4075 142 15.5392 142 15.6929C141.877 15.9782 141.877 16.2855 141.815 16.5708C140.954 20.9166 140.092 25.2623 139.189 29.5861C139.128 29.8715 139.004 30.0251 138.758 30.1129C137.855 30.4202 136.932 30.6177 135.968 30.5738C133.937 30.508 131.905 30.4641 129.874 30.4421C128.151 30.4421 126.427 30.4202 124.704 30.4202C122.509 30.4202 120.313 30.4421 118.138 30.4641C116.518 30.486 114.897 30.5299 113.276 30.5738C113.214 30.5738 113.173 30.5958 113.112 30.5958C112.763 30.5738 112.414 30.6177 112.086 30.6397C110.67 30.6836 109.254 30.7275 107.859 30.7933C106.956 30.8372 106.054 30.8372 105.151 30.903C104.597 30.925 104.064 30.9469 103.51 30.9689C102.053 31.0567 100.576 31.1445 99.1189 31.2323C98.1956 31.2762 97.2723 31.342 96.349 31.4078C96.0618 31.364 95.7746 31.4298 95.4873 31.4517C94.7487 31.4737 94.0511 31.5176 93.3535 31.5834Z" fill="#E01B22"/>
<path d="M116.046 15.8916C115.471 15.9794 114.876 15.9794 114.281 16.0233C112.845 16.133 111.409 16.2208 109.952 16.3306C108.393 16.4622 106.834 16.5939 105.274 16.7476C103.838 16.9012 102.402 17.0768 100.966 17.2085C100.33 17.2743 99.7142 17.3841 99.0781 17.406C99.2217 16.7037 99.3654 15.9794 99.509 15.277C100.35 11.063 101.191 6.82694 102.033 2.61287C102.197 1.75689 102.381 0.900905 102.566 0.0449219C113.625 0.0449219 124.684 0.0449219 135.742 0.0449219C135.804 0.176612 135.742 0.33025 135.722 0.461939C135.045 3.90782 134.368 7.33175 133.691 10.7776C133.65 10.9752 133.67 11.2166 133.547 11.3483C133.404 11.48 133.178 11.3922 132.993 11.3922C127.782 11.3922 122.55 11.3922 117.338 11.3922C116.887 11.3922 116.949 11.2824 116.846 11.8092C116.723 12.4018 116.6 13.0164 116.477 13.609C116.333 14.3772 116.19 15.1234 116.046 15.8916Z" fill="#1E3278"/>
<path d="M96.3089 31.3863C97.2322 31.3205 98.1555 31.2766 99.0787 31.2107C100.535 31.1229 102.013 31.0351 103.469 30.9473C104.023 30.9254 104.557 30.9034 105.111 30.8815C106.014 30.8376 106.916 30.8156 107.819 30.7718C109.235 30.7059 110.65 30.662 112.046 30.6181C112.394 30.6181 112.743 30.5742 113.071 30.5742C112.887 31.4522 112.723 32.3301 112.538 33.23C112.477 33.5592 112.415 33.9104 112.333 34.2835C117.893 34.2835 123.433 34.2835 129.013 34.2835C128.89 34.92 128.788 35.4906 128.665 36.0832C128.049 39.156 127.434 42.2288 126.818 45.3235C126.757 45.6307 126.757 45.6307 126.449 45.6307C115.575 45.6307 104.68 45.6307 93.8058 45.6307C93.7032 45.6307 93.6006 45.6527 93.498 45.5868C93.6212 44.9723 93.7442 44.3577 93.8673 43.7432C94.606 39.99 95.3651 36.2149 96.1242 32.4618C96.1858 32.1106 96.2474 31.7594 96.3089 31.3863Z" fill="#1E3278"/>
<path d="M109.378 56.6484C110.014 57.9873 110.281 59.392 110.609 60.8186C110.014 60.8186 109.46 60.8186 108.906 60.8186C108.763 60.8186 108.763 60.7089 108.722 60.5991C108.619 60.0943 108.496 59.6114 108.393 59.1066C108.25 58.4921 108.106 57.8556 107.901 57.263C107.778 56.9118 107.696 56.846 107.347 56.7801C107.244 57.1093 107.244 57.4825 107.203 57.8336C107.08 58.7555 106.978 59.6773 106.875 60.5991C106.855 60.7967 106.793 60.8406 106.629 60.8406C106.198 60.8406 105.788 60.8406 105.357 60.8406C105.111 60.8406 105.111 60.8186 105.131 60.5772C105.213 59.787 105.316 58.9969 105.418 58.2068C105.562 56.9777 105.706 55.7485 105.849 54.5414C105.993 53.4001 106.116 52.2588 106.26 51.1175C106.28 50.9638 106.342 50.9199 106.465 50.9199C107.47 50.9199 108.496 50.9199 109.501 50.9199C110.076 50.9199 110.466 51.2491 110.691 51.7979C110.876 52.2149 110.958 52.6758 110.999 53.1367C111.04 53.7513 110.999 54.3658 110.835 54.9804C110.63 55.7705 110.219 56.407 109.378 56.6484ZM107.532 54.9145C107.798 54.9145 108.045 54.9145 108.291 54.9145C108.434 54.9145 108.578 54.8706 108.722 54.8487C108.947 54.8048 109.112 54.6731 109.214 54.4536C109.358 54.1463 109.419 53.8171 109.378 53.4879C109.317 53.0928 109.153 52.9392 108.783 52.9172C108.537 52.8953 108.291 52.9172 108.045 52.9172C107.778 52.9172 107.778 52.9172 107.737 53.2025C107.655 53.7732 107.614 54.3219 107.532 54.9145Z" fill="#1E3278"/>
<path d="M89.7409 58.5588C90.7257 58.5588 91.7106 58.5588 92.7364 58.5588C92.6543 59.2831 92.5723 59.9855 92.4902 60.6659C92.4697 60.7756 92.4287 60.8195 92.3466 60.8195C92.285 60.8195 92.244 60.8195 92.1825 60.8195C90.7873 60.8195 89.3921 60.8195 88.0174 60.8195C87.9764 60.8195 87.9354 60.8195 87.8738 60.8195C87.7097 60.8415 87.6892 60.7537 87.7097 60.6C87.8328 59.6343 87.9354 58.6686 88.0585 57.7029C88.2021 56.4957 88.3457 55.2666 88.4894 54.0595C88.6125 53.0718 88.715 52.1061 88.8381 51.1184C88.8587 50.9208 88.9407 50.877 89.1254 50.877C90.4795 50.877 91.8337 50.877 93.1878 50.877C93.4135 50.877 93.4135 50.877 93.393 51.1403C93.3314 51.6671 93.2699 52.1939 93.2083 52.7426C93.1673 53.0279 93.1673 53.0279 92.9006 53.0279C92.1414 53.0279 91.3823 53.0279 90.6232 53.0279C90.3359 53.0279 90.3359 53.0279 90.2949 53.3132C90.2333 53.7302 90.1923 54.1472 90.1512 54.5423C90.2538 54.6301 90.3769 54.6082 90.4795 54.6082C91.1771 54.6082 91.8747 54.6082 92.5723 54.6082C92.839 54.6082 92.839 54.6082 92.798 54.8935C92.7364 55.3983 92.6749 55.8812 92.6133 56.386C92.5928 56.5835 92.5107 56.6274 92.3261 56.6274C91.5875 56.6274 90.8488 56.6274 90.1307 56.6274C89.8845 56.6274 89.864 56.6055 89.823 56.9127C89.7819 57.3736 89.6999 57.8346 89.6588 58.2955C89.6999 58.3833 89.6588 58.4491 89.7409 58.5588Z" fill="#1E3278"/>
<path d="M116.169 58.5575C116.087 59.2818 116.005 59.9842 115.923 60.6646C115.903 60.7743 115.862 60.8402 115.759 60.8402C115.698 60.8402 115.615 60.8402 115.554 60.8402C114.2 60.8402 112.846 60.8402 111.491 60.8402C111.45 60.8402 111.43 60.8402 111.389 60.8402C111.122 60.8402 111.122 60.8402 111.143 60.5548C111.184 60.1598 111.245 59.7866 111.286 59.3916C111.45 57.9649 111.635 56.5163 111.799 55.0897C111.963 53.7728 112.107 52.4559 112.271 51.139C112.292 50.9854 112.333 50.8976 112.497 50.9195C112.661 50.9195 112.805 50.9195 112.969 50.9195C114.138 50.9195 115.308 50.9195 116.477 50.9195C116.6 50.9195 116.723 50.8976 116.867 50.9634C116.785 51.5999 116.703 52.2364 116.641 52.8949C116.621 53.0924 116.498 53.0705 116.375 53.0705C115.636 53.0705 114.877 53.0705 114.138 53.0705C113.789 53.0705 113.789 53.0705 113.748 53.4216C113.707 53.707 113.687 54.0142 113.646 54.2996C113.605 54.6068 113.605 54.6288 113.892 54.6288C114.569 54.6288 115.246 54.6288 115.923 54.6288C115.985 54.6288 116.067 54.6288 116.128 54.6288C116.272 54.6068 116.313 54.6727 116.293 54.8483C116.21 55.375 116.149 55.9018 116.108 56.4285C116.087 56.6261 116.005 56.648 115.862 56.648C115.164 56.648 114.466 56.648 113.769 56.648C113.687 56.648 113.605 56.648 113.543 56.648C113.441 56.648 113.379 56.6919 113.379 56.8017C113.318 57.3284 113.256 57.8332 113.194 58.36C113.174 58.5356 113.235 58.5795 113.379 58.5795C114.2 58.5795 115.02 58.5795 115.841 58.5795C115.903 58.5575 116.005 58.5575 116.169 58.5575Z" fill="#1E3278"/>
<path d="M15.4495 38.8262C15.3469 39.5944 15.1623 40.3406 15.0187 41.0868C14.8956 41.7014 14.793 42.316 14.6288 42.9305C13.5619 43.1719 12.495 43.3914 11.4281 43.6328C8.67882 44.2474 5.92949 44.9059 3.18018 45.6082C3.07759 45.6301 2.95449 45.6521 2.85191 45.6521C1.90811 45.6521 0.964312 45.6521 0 45.6521C0.0615518 45.4985 0.18466 45.4985 0.287247 45.4326C2.6057 44.2913 4.96519 43.2378 7.32468 42.2062C10.0124 41.021 12.7207 39.9016 15.4495 38.8262Z" fill="#E01B22"/>
<path d="M100.043 50.8984C100.023 51.096 99.9407 51.1838 99.8792 51.3155C99.12 52.786 98.3609 54.2565 97.6018 55.7051C97.4992 55.9026 97.4787 56.0782 97.5402 56.2977C97.9711 57.6805 98.3609 59.0632 98.7918 60.4459C98.8328 60.5557 98.8533 60.6654 98.8943 60.7971C98.7712 60.863 98.6482 60.841 98.5251 60.841C98.1557 60.841 97.7659 60.841 97.3966 60.841C97.1299 60.841 97.1299 60.841 97.0683 60.5557C96.8631 59.8094 96.658 59.0851 96.4528 58.3389C96.4323 58.2511 96.4323 58.1633 96.3297 58.0755C96.145 58.4487 95.9604 58.8437 95.7757 59.2168C95.55 59.6778 95.3243 60.1387 95.0987 60.6215C95.0371 60.7313 94.9961 60.841 94.8319 60.841C94.1959 60.841 93.5599 60.841 92.9238 60.841C92.9238 60.6874 93.0059 60.5776 93.0674 60.4679C93.8471 58.9315 94.6473 57.3732 95.4475 55.8368C95.55 55.6393 95.5706 55.4637 95.4885 55.2442C95.0576 53.9273 94.6473 52.5885 94.2164 51.2716C94.1754 51.1618 94.1549 51.074 94.1344 50.9862C94.1959 50.8984 94.278 50.9204 94.36 50.9204C94.7909 50.9204 95.2218 50.9423 95.6526 50.9204C95.8578 50.9204 95.9194 50.9862 95.9809 51.1838C96.2066 51.9739 96.4323 52.764 96.658 53.5761C96.7811 53.5761 96.7811 53.4664 96.8221 53.3786C97.1914 52.6543 97.5402 51.93 97.889 51.2057C97.9916 50.9862 98.1147 50.9204 98.3199 50.9204C98.8944 50.8984 99.4483 50.8984 100.043 50.8984Z" fill="#1E3278"/>
<path d="M119.186 60.9955C118.919 61.0175 118.673 60.9736 118.406 60.9078C117.893 60.7761 117.483 60.4688 117.216 59.942C116.847 59.2397 116.744 58.4934 116.744 57.7033C116.744 57.5716 116.765 57.5058 116.908 57.4838C117.319 57.4399 117.749 57.3741 118.16 57.3302C118.365 57.3082 118.365 57.3302 118.386 57.5497C118.386 57.8569 118.427 58.1642 118.529 58.4495C118.673 58.8227 118.939 58.9983 119.309 58.9763C119.555 58.9544 119.76 58.8227 119.883 58.6032C120.15 58.1642 120.13 57.4619 119.658 57.0888C119.514 56.979 119.37 56.8693 119.227 56.7595C118.96 56.5839 118.693 56.3864 118.427 56.1889C117.811 55.706 117.483 55.0695 117.401 54.2574C117.339 53.5331 117.38 52.8308 117.647 52.1504C118.201 50.7018 119.883 50.197 121.073 51.1188C121.402 51.3602 121.607 51.7114 121.771 52.1065C121.935 52.5235 121.997 52.9405 122.038 53.3795C122.058 53.5331 122.038 53.6209 121.853 53.6429C121.422 53.6648 121.012 53.7087 120.581 53.7526C120.478 53.7746 120.417 53.7307 120.396 53.599C120.376 53.4014 120.355 53.2039 120.273 53.0064C120.191 52.7869 120.068 52.6113 119.863 52.5235C119.576 52.4138 119.288 52.4796 119.124 52.743C118.919 53.0503 118.919 53.4673 119.124 53.7526C119.247 53.9282 119.432 54.0599 119.617 54.1916C119.924 54.3891 120.212 54.6086 120.499 54.85C121.237 55.4646 121.607 56.2547 121.648 57.2424C121.689 57.9447 121.627 58.6471 121.381 59.3055C121.34 59.4153 121.299 59.525 121.237 59.6348C120.827 60.5566 120.15 61.0394 119.186 60.9955Z" fill="#1E3278"/>
<path d="M124.745 60.994C124.52 61.0159 124.273 60.9501 124.027 60.8842C123.494 60.7525 123.083 60.4233 122.817 59.8966C122.468 59.2162 122.365 58.4699 122.365 57.7017C122.365 57.57 122.406 57.5042 122.529 57.5042C122.94 57.4603 123.371 57.4164 123.781 57.3506C123.945 57.3286 124.007 57.3944 124.007 57.57C124.007 57.8773 124.027 58.1846 124.15 58.4699C124.314 58.865 124.581 59.0406 124.95 59.0186C125.197 58.9967 125.361 58.865 125.504 58.6675C125.833 58.1626 125.73 57.5261 125.279 57.1311C125.135 56.9994 124.971 56.8896 124.807 56.8018C124.52 56.6043 124.253 56.4068 123.986 56.1873C123.453 55.7483 123.145 55.1777 123.042 54.4753C122.94 53.7071 122.981 52.9389 123.268 52.1927C123.822 50.7661 125.484 50.2393 126.674 51.1392C126.982 51.3587 127.187 51.6659 127.33 52.0171C127.536 52.478 127.597 52.9609 127.659 53.4657C127.679 53.5974 127.618 53.6632 127.495 53.6632C127.064 53.7071 126.633 53.751 126.202 53.7949C126.079 53.8169 126.038 53.751 126.038 53.6413C126.017 53.4438 125.997 53.2682 125.935 53.0926C125.853 52.8731 125.751 52.6756 125.525 52.5878C125.279 52.478 125.032 52.478 124.848 52.6975C124.643 52.917 124.561 53.2023 124.643 53.5096C124.684 53.7071 124.807 53.8827 124.971 53.9925C125.197 54.1681 125.402 54.3217 125.627 54.4753C126.92 55.2874 127.412 56.5165 127.289 58.0968C127.248 58.6236 127.125 59.1503 126.879 59.6332C126.428 60.5989 125.792 61.0159 124.745 60.994Z" fill="#1E3278"/>
<path d="M63.543 34.5257C63.7687 33.3844 63.9943 32.2431 64.22 31.1237C64.6509 28.9508 65.1023 26.778 65.5331 24.627C65.5537 24.4953 65.5947 24.3856 65.6152 24.2539C65.7178 24.2759 65.7178 24.3856 65.7588 24.4514C67.0719 27.4803 68.3645 30.5092 69.6776 33.538C69.7186 33.6039 69.7597 33.6917 69.7597 33.7795C69.0621 33.8673 68.344 33.9551 67.6464 34.0428C66.559 34.1745 65.4716 34.3062 64.3842 34.4379C64.0969 34.4599 63.8097 34.4818 63.543 34.5257Z" fill="#E01B22"/>
<path d="M102.381 50.8989C102.771 50.9208 103.243 50.877 103.715 50.9208C104.248 50.9647 104.618 51.2501 104.864 51.7549C105.028 52.0841 105.11 52.4353 105.151 52.8084C105.254 53.7961 105.172 54.7837 104.782 55.7056C104.392 56.6493 103.735 57.1542 102.751 57.1542C102.504 57.1542 102.258 57.1542 102.012 57.1542C101.848 57.1542 101.786 57.22 101.786 57.3736C101.684 58.3613 101.561 59.327 101.438 60.3147C101.438 60.3586 101.438 60.4025 101.417 60.4464C101.376 60.8195 101.376 60.8195 101.007 60.8195C100.617 60.8195 100.227 60.8195 99.8372 60.8195C99.6936 60.8195 99.6115 60.7976 99.632 60.6C99.8167 59.0856 100.001 57.5931 100.186 56.0787C100.35 54.7179 100.514 53.3352 100.678 51.9744C100.719 51.689 100.76 51.3818 100.781 51.0964C100.802 50.9208 100.863 50.877 101.007 50.877C101.479 50.8989 101.889 50.8989 102.381 50.8989ZM102.053 55.2008C102.279 55.2008 102.443 55.2008 102.628 55.2008C102.894 55.2008 103.099 55.0691 103.243 54.8276C103.551 54.3448 103.612 53.818 103.489 53.2693C103.428 53.0059 103.264 52.8742 102.997 52.8523C102.833 52.8523 102.669 52.8523 102.504 52.8523C102.381 52.8523 102.32 52.8962 102.32 53.0279C102.238 53.7522 102.156 54.4545 102.053 55.2008Z" fill="#1E3278"/>
<path d="M45.261 28.5543C46.1842 28.2909 47.087 28.0275 48.0103 27.7861C48.0718 27.7641 48.1334 27.7641 48.1949 27.7422C47.9898 28.8177 47.7846 29.8712 47.5589 30.9466C47.1486 32.9659 46.7382 34.9632 46.3279 36.9824C45.0968 37.18 43.8658 37.3775 42.6348 37.575C42.9015 37.0263 43.1887 36.4996 43.4349 35.9289C43.9889 34.5901 44.3582 33.1854 44.6454 31.7587C44.8301 30.6833 45.0353 29.6297 45.261 28.5543Z" fill="#E01B22"/>
<path d="M79.4648 20.4126C79.5264 20.4126 79.588 20.3906 79.6495 20.3906C79.67 20.4784 79.629 20.5662 79.5879 20.676C79.5059 20.6101 79.4854 20.5223 79.4648 20.4126Z" fill="#E01B22"/>
</svg>
