<svg width="146" height="33" viewBox="0 0 146 33" fill="none" xmlns="http://www.w3.org/2000/svg">
<path d="M38.2579 0.080785C38.2579 0.0577036 38.2461 0.0230814 38.2461 0C45.3514 0 52.445 0 59.5503 0C59.5503 0.0230814 59.5621 0.0577036 59.5621 0.080785C52.7616 0.080785 45.9729 0.080785 39.1724 0.080785C38.8676 0.080785 38.5627 0.080785 38.2579 0.080785Z" fill="#03883C"/>
<path d="M103.403 0C103.391 0.0230814 103.391 0.0577036 103.379 0.080785C96.9542 0.080785 90.529 0.080785 84.1037 0.080785C83.9748 0.080785 83.8575 0.0692443 83.7285 0.0692443C83.7402 0.0461629 83.752 0.0230814 83.752 0C90.3179 0 96.8604 0 103.403 0Z" fill="#03883C"/>
<path d="M38.2548 0.0800781C38.5597 0.0800781 38.8645 0.0800781 39.1694 0.0800781C45.9698 0.0800781 52.7586 0.0800781 59.559 0.0800781C59.6177 0.126241 59.5825 0.172404 59.559 0.218567C59.4418 0.4263 59.3362 0.622492 59.219 0.830225C57.7768 3.41535 56.3346 5.98893 54.8924 8.57405C54.8338 8.68945 54.7869 8.8164 54.6814 8.89719C54.5876 8.87411 54.6111 8.80486 54.6111 8.7587C54.6346 8.40094 54.658 8.05471 54.6697 7.69695C54.6814 7.4546 54.7049 7.2007 54.6814 6.95835C54.6462 6.41593 54.4352 5.9543 54.0483 5.57346C53.7787 5.30802 53.4737 5.08875 53.1337 4.93872C51.9495 4.41939 50.7184 4.24628 49.4403 4.56942C47.3181 5.11183 46.0753 6.94681 45.9463 8.68945C45.876 9.73966 46.1574 10.6745 46.7085 11.5631C47.6113 13.0518 48.7604 14.3444 49.9798 15.5793C51.5274 17.1257 53.1806 18.5568 54.9159 19.907C55.2325 20.1494 55.3028 20.1378 55.5256 19.8032C55.678 19.5724 55.7836 19.3185 55.8774 19.0646C56.1939 18.2105 56.4167 17.3219 56.616 16.4217C56.7098 15.9947 56.7919 15.5677 56.8857 15.1407C56.9443 14.8753 56.9443 14.8637 57.2023 14.933C58.023 15.1638 58.8555 15.3946 59.6763 15.637C60.8605 15.9716 62.0447 16.2948 63.2289 16.641C63.5572 16.7333 63.5923 16.6525 63.5337 17.0796C63.4047 18.0259 63.1937 18.9607 62.9123 19.8724C62.2792 21.9151 61.3646 23.8424 60.1921 25.6428C60.1687 25.6774 60.1453 25.712 60.1218 25.7466C60.0163 25.9082 60.0162 25.9197 60.1335 26.0698C60.6611 26.7045 61.1887 27.3393 61.7164 27.974C62.9709 29.4858 64.2256 30.9977 65.4801 32.5095C65.5505 32.5903 65.609 32.6826 65.6794 32.7749C65.5856 32.8903 65.4683 32.8442 65.3745 32.8442C63.2054 32.8442 61.048 32.8442 58.8789 32.8442C58.3396 32.8442 57.8002 32.8442 57.2609 32.8442C57.0967 32.8442 56.9796 32.798 56.8623 32.6711C56.4285 32.1979 55.9828 31.7247 55.5373 31.2516C55.467 31.1823 55.4084 31.1131 55.3381 31.0438C55.1856 30.8938 55.1739 30.8823 54.9863 30.9746C54.5056 31.1939 54.0249 31.39 53.5207 31.5632C52.0551 32.0825 50.5543 32.4518 49.0183 32.6941C47.9396 32.8673 46.8491 32.9711 45.747 32.9942C44.8559 33.0173 43.9766 32.9596 43.0972 32.8673C41.7488 32.7288 40.4474 32.4518 39.1694 32.0248C37.9148 31.6093 36.7306 31.0438 35.6402 30.3168C35.1829 30.0167 34.8077 29.6474 34.4794 29.2204C33.8228 28.3433 33.2952 27.4085 33.0021 26.3583C32.5917 24.9157 32.6503 23.4731 33.1076 22.0421C33.4007 21.1073 33.8462 20.2533 34.3738 19.4339C35.1711 18.2105 36.1443 17.1257 37.2113 16.1217C38.1727 15.2215 39.1928 14.4137 40.2832 13.6866C40.377 13.6289 40.4591 13.5596 40.5529 13.5019C40.5412 13.3519 40.4239 13.2827 40.3419 13.1903C39.3804 12.0709 38.5831 10.836 38.0203 9.47422C37.4575 8.10088 37.1527 6.69291 37.1761 5.20416C37.1879 4.80023 37.223 4.38477 37.3168 3.98084C37.5982 2.73444 37.8796 1.47651 38.1727 0.230107C38.1845 0.149322 38.1962 0.10316 38.2548 0.0800781ZM51.1991 25.7582C51.0115 25.4581 45.3601 18.8337 45.1021 18.6029C44.2931 19.1453 43.4724 19.6762 42.7455 20.3225C42.4758 20.5649 42.2178 20.8072 41.9833 21.0842C41.7137 21.3958 41.4674 21.7305 41.2798 22.0882C41.0688 22.4922 40.9281 22.9192 40.9046 23.3808C40.8695 24.004 41.0571 24.5695 41.3971 25.0773C42.0889 26.1275 43.0386 26.843 44.2697 27.1777C45.3249 27.4662 46.3801 27.4316 47.4471 27.2238C48.6665 26.9815 49.8039 26.5429 50.8943 25.9544C50.9998 25.9082 51.1287 25.862 51.1991 25.7582Z" fill="#01873B"/>
<path d="M83.7392 0.0697784C83.8682 0.0697784 83.9854 0.0813191 84.1144 0.0813191C90.5397 0.0813191 96.965 0.0813191 103.39 0.0813191C103.425 0.150563 103.378 0.185186 103.343 0.219808C102.71 0.843007 102.089 1.45466 101.467 2.07786C101.362 2.18173 101.245 2.23943 101.104 2.22789C101.01 2.21635 100.905 2.22789 100.811 2.22789C97.903 2.22789 94.9835 2.22789 92.0757 2.22789C91.9819 2.22789 91.8764 2.22789 91.7826 2.22789C91.677 2.22789 91.5949 2.25097 91.5246 2.32022C91.1963 2.64336 90.8563 2.97804 90.528 3.30118C90.5163 3.31272 90.5162 3.34734 90.5045 3.37042C90.5162 3.38196 90.5163 3.39351 90.528 3.40505C90.5397 3.41659 90.5514 3.41659 90.5631 3.41659C90.5749 3.41659 90.5866 3.41659 90.6101 3.41659C90.6335 3.41659 90.6687 3.41659 90.6922 3.41659C90.7039 3.41659 90.7156 3.41659 90.739 3.41659C90.7624 3.41659 90.7976 3.41659 90.8211 3.41659C90.8445 3.41659 90.8797 3.41659 90.9032 3.41659C93.811 3.41659 96.7305 3.41659 99.6383 3.41659C99.65 3.41659 99.6616 3.41659 99.6851 3.41659C99.6968 3.41659 99.7086 3.41659 99.732 3.41659C99.7555 3.41659 99.7555 3.41659 99.779 3.41659C99.7907 3.41659 99.8024 3.41659 99.8258 3.41659C99.8375 3.41659 99.8493 3.41659 99.8728 3.41659C99.8845 3.41659 99.8961 3.41659 99.9196 3.41659C99.9313 3.41659 99.9431 3.41659 99.9665 3.41659C99.9783 3.41659 99.99 3.41659 100.002 3.42813C100.013 3.43967 100.013 3.45121 100.025 3.46275C100.037 3.54353 99.9665 3.57816 99.9196 3.61278C99.4623 4.07441 98.9934 4.5245 98.5479 4.98612C98.4072 5.12461 98.2664 5.18232 98.0671 5.17078C97.774 5.15924 97.4808 5.17078 97.1877 5.17078C94.4441 5.17078 91.7005 5.17078 88.9451 5.17078C88.4292 5.17078 88.5699 5.11307 88.1947 5.48238C87.9719 5.70165 87.7374 5.92092 87.5146 6.15174C87.4677 6.20944 87.3506 6.24406 87.4092 6.34793C87.4561 6.42871 87.5615 6.38255 87.6319 6.38255C87.7257 6.39409 87.8312 6.38255 87.925 6.38255C90.8093 6.38255 93.6937 6.38255 96.578 6.38255C96.707 6.38255 96.8478 6.38255 96.965 6.38255C97.0119 6.47488 96.9532 6.5095 96.9181 6.54412C96.1325 7.31735 95.347 8.07904 94.5614 8.85227C94.4559 8.95613 94.3503 9.01383 94.1978 9.00229C94.1041 8.99075 93.9985 9.00229 93.9047 9.00229C90.6452 9.00229 87.3857 9.00229 84.1262 9.00229C83.5869 9.00229 83.6923 8.97921 83.5868 9.41776C82.8247 12.4183 82.0626 15.4189 81.3122 18.4311C80.3625 22.2164 79.401 26.0018 78.4513 29.7871C78.2285 30.6873 77.9941 31.5875 77.7713 32.4877C77.7478 32.5684 77.7361 32.6492 77.7127 32.73C77.6892 32.7993 77.6306 32.8454 77.5603 32.8454C77.4899 32.8454 77.4195 32.8454 77.3491 32.8454C74.4413 32.8454 71.5218 32.8454 68.6141 32.8454C68.532 32.8454 68.45 32.8454 68.3562 32.8454C68.2976 32.7185 68.3444 32.6146 68.3679 32.5107C68.9424 30.0179 69.5521 27.5482 70.1852 25.0785C71.1232 21.4201 72.0496 17.7502 72.9875 14.0918C73.3862 12.5222 73.7847 10.9411 74.1834 9.3716C74.2068 9.26773 74.2655 9.16387 74.2069 9.02538C73.773 9.01383 73.3392 9.02538 72.8937 9.02538C72.4598 9.02538 72.0377 9.02538 71.6039 9.02538C71.1584 9.02538 70.7129 9.02538 70.2673 9.02538C69.8218 9.02538 69.3762 9.02538 68.9307 9.02538C68.4851 9.02538 68.0396 9.02538 67.5941 9.02538C67.1603 9.02538 66.7382 9.02538 66.3043 9.02538C65.8588 9.02538 65.4132 9.02538 64.9677 9.02538C64.5221 9.02538 64.0765 9.02538 63.631 9.02538C63.1854 9.02538 62.7399 9.02538 62.2944 9.02538C61.8606 9.02538 61.4385 9.02538 61.0047 9.02538C60.5591 9.02538 60.1252 9.02538 59.668 9.02538C59.6797 8.84072 59.7853 8.71378 59.8556 8.58683C60.8288 6.8211 61.8019 5.06691 62.7751 3.30118C63.3027 2.3433 63.8304 1.38542 64.3697 0.427541C64.4166 0.346756 64.4634 0.25443 64.5103 0.173645C64.5572 0.0928598 64.6277 0.0582377 64.7215 0.0582377C64.8153 0.0582377 64.9208 0.0582377 65.0146 0.0582377C71.1116 0.046697 77.2202 0.046697 83.3172 0.0351562C83.4344 0.046697 83.5868 0.0582377 83.7392 0.0697784Z" fill="#01873B"/>
<path d="M25.7462 32.8457C17.1402 32.8457 8.58099 32.8457 0.0335202 32.8457C-0.0368293 32.7764 0.0217495 32.7187 0.0451993 32.661C1.18252 30.6414 2.21433 28.5756 3.29302 26.5329C3.31647 26.4983 3.33992 26.4637 3.35165 26.4291C3.38682 26.3252 3.46894 26.279 3.57447 26.279C3.70344 26.279 3.8206 26.279 3.94957 26.279C8.34642 26.279 12.7433 26.279 17.1401 26.279C17.7615 26.279 17.6326 26.3598 17.7733 25.7828C18.5471 22.459 19.3092 19.1353 20.0713 15.8116C20.8921 12.2571 21.7012 8.71405 22.5102 5.15951C22.8737 3.57843 23.2371 1.99735 23.6006 0.416275C23.6827 0.0585125 23.6358 0.0815939 24.0344 0.0815939C26.9891 0.0815939 29.9438 0.0815939 32.8984 0.0815939C33.0157 0.0815939 33.1447 0.0469717 33.2737 0.127757C33.2619 0.208542 33.262 0.289327 33.2385 0.370112C30.7411 11.1722 28.2436 21.9974 25.7462 32.8457Z" fill="#01873B"/>
<path d="M119.465 32.7988C119.359 32.8681 119.277 32.8565 119.195 32.8565C118.41 32.8565 117.612 32.8565 116.827 32.8565C116.756 32.8565 116.686 32.8565 116.616 32.845C116.534 32.845 116.498 32.7988 116.475 32.718C116.393 32.3487 116.346 31.9679 116.311 31.5871C116.264 30.9985 116.217 30.4214 116.205 29.8329C116.205 29.5097 116.17 29.175 116.076 28.8634C115.901 28.2402 115.561 27.9402 114.904 27.8709C114.552 27.8363 114.189 27.8479 113.825 27.8479C113.708 27.8479 113.649 27.894 113.638 28.0094C113.567 28.4249 113.473 28.8404 113.391 29.2558C113.169 30.3984 112.946 31.5294 112.723 32.6719C112.688 32.8335 112.676 32.8565 112.5 32.8565C111.644 32.8565 110.777 32.8565 109.921 32.8565C109.897 32.8565 109.874 32.8335 109.827 32.8219C109.804 32.6373 109.874 32.4526 109.909 32.2795C110.507 29.2212 111.105 26.1745 111.703 23.1162C111.879 22.2506 112.043 21.3735 112.207 20.508C112.254 20.2772 112.254 20.2772 112.489 20.2425C113.942 20.0348 115.408 19.9656 116.885 20.0117C117.554 20.0348 118.21 20.1156 118.855 20.3118C119.137 20.4041 119.406 20.508 119.653 20.658C120.438 21.1312 120.837 21.8236 120.86 22.7238C120.907 24.074 120.356 25.1589 119.324 26.0244C118.949 26.3476 118.668 26.4976 117.976 26.8207C117.952 26.9131 118.023 26.9361 118.081 26.9592C118.492 27.2016 118.75 27.5709 118.902 28.0094C119.031 28.3557 119.101 28.7134 119.137 29.0827C119.183 29.6828 119.23 30.283 119.277 30.8831C119.312 31.5178 119.359 32.1525 119.465 32.7988ZM114.13 25.6897C114.153 25.7013 114.189 25.7244 114.212 25.7244C114.716 25.7359 115.209 25.759 115.713 25.7013C116.147 25.6551 116.557 25.5282 116.921 25.2858C117.601 24.8357 117.917 24.2125 117.905 23.4162C117.894 22.92 117.648 22.5622 117.19 22.3545C117.003 22.2622 116.803 22.216 116.592 22.1814C116.065 22.1006 115.537 22.1583 115.021 22.2045C114.798 22.216 114.787 22.2391 114.74 22.4814C114.576 23.3239 114.411 24.1664 114.247 25.0088C114.189 25.2397 114.107 25.4589 114.13 25.6897Z" fill="#03883C"/>
<path d="M138.549 32.8227C137.928 32.8227 137.166 32.765 136.451 32.488C135.126 31.9918 134.282 31.057 133.883 29.7298C133.637 28.9104 133.59 28.0679 133.684 27.2139C133.824 26.0021 134.176 24.8596 134.774 23.8094C135.56 22.4476 136.638 21.3628 138.08 20.6819C139.511 20.001 141.012 19.7932 142.571 20.1395C144.377 20.5434 145.444 21.6859 145.854 23.4516C146.065 24.3634 146.03 25.2635 145.854 26.1753C145.631 27.387 145.221 28.518 144.529 29.5451C143.45 31.1608 141.973 32.211 140.05 32.6381C139.605 32.7419 139.147 32.7765 138.549 32.8227ZM136.662 27.6755C136.673 27.8602 136.673 28.0679 136.697 28.2757C136.744 28.668 136.838 29.0489 137.025 29.4067C137.412 30.1337 138.034 30.5146 138.854 30.5607C139.628 30.5953 140.296 30.353 140.894 29.8914C141.317 29.5682 141.645 29.1643 141.926 28.7257C142.325 28.0795 142.583 27.3755 142.759 26.6484C142.899 26.0252 142.982 25.3905 142.923 24.7442C142.888 24.2595 142.782 23.7979 142.548 23.3709C142.126 22.5745 141.422 22.2283 140.543 22.2399C139.91 22.2514 139.323 22.4707 138.807 22.8515C138.303 23.2208 137.905 23.694 137.6 24.2364C136.99 25.2866 136.697 26.4407 136.662 27.6755Z" fill="#03883C"/>
<path d="M96.7637 32.8343C96.7754 32.6612 96.8575 32.5574 96.9044 32.4535C98.6631 28.9451 100.422 25.4367 102.192 21.9284C102.474 21.3744 102.743 20.832 103.013 20.278C103.083 20.1396 103.165 20.0703 103.33 20.0703C104.455 20.0703 105.581 20.0703 106.695 20.0703C106.882 20.0703 106.917 20.1049 106.941 20.2665C106.976 20.555 107.011 20.832 107.046 21.1205C107.211 22.5169 107.375 23.9134 107.539 25.3098C107.691 26.6139 107.832 27.918 107.984 29.2106C108.102 30.2492 108.242 31.2994 108.36 32.3381C108.383 32.4881 108.383 32.6382 108.395 32.7651C108.336 32.8343 108.278 32.8343 108.231 32.8343C107.328 32.8343 106.425 32.8343 105.522 32.8343C105.51 32.8343 105.499 32.8343 105.475 32.8343C105.299 32.8228 105.264 32.8113 105.241 32.6151C105.206 32.2573 105.17 31.9111 105.135 31.5533C105.077 30.9532 105.018 30.3531 104.948 29.7645C104.924 29.5799 104.912 29.5568 104.713 29.5568C103.634 29.5568 102.544 29.5568 101.465 29.5568C101.301 29.5568 101.219 29.626 101.149 29.7645C100.785 30.5493 100.422 31.3225 100.047 32.1073C99.9294 32.3496 99.8473 32.6151 99.6714 32.8228C99.4135 32.8343 99.1438 32.8343 98.8858 32.8343C98.2644 32.8343 97.643 32.8343 97.0098 32.8343C96.9512 32.8459 96.8692 32.8459 96.7637 32.8343ZM102.181 27.4217C102.943 27.4217 103.693 27.4217 104.432 27.4217C104.971 27.4217 104.913 27.4795 104.877 26.937C104.877 26.9255 104.877 26.914 104.877 26.8909C104.737 25.5637 104.584 24.2365 104.537 22.9093C104.526 22.7362 104.526 22.5631 104.467 22.4015C104.432 22.4362 104.397 22.4477 104.397 22.4708C103.717 24.1096 102.943 25.7022 102.181 27.3063C102.181 27.3063 102.181 27.341 102.181 27.4217Z" fill="#03883C"/>
<path d="M128.232 27.7326C128.185 27.5826 128.22 27.4672 128.244 27.3518C128.338 26.8671 128.443 26.3939 128.525 25.9092C128.595 25.4707 128.642 25.5053 129.029 25.5053C130.085 25.5053 131.14 25.4937 132.195 25.4937C132.289 25.4937 132.394 25.4937 132.488 25.4937C132.594 25.4937 132.641 25.5514 132.629 25.6438C132.605 25.8284 132.57 26.0246 132.535 26.2093C132.183 27.975 131.843 29.7407 131.492 31.5065C131.468 31.6449 131.433 31.7719 131.421 31.9104C131.398 32.1066 131.28 32.222 131.105 32.2912C130.671 32.4759 130.214 32.5913 129.745 32.6721C128.56 32.8683 127.376 32.8913 126.18 32.7413C125.57 32.6605 124.984 32.522 124.421 32.2681C123.096 31.6911 122.299 30.6871 121.971 29.3137C121.76 28.4366 121.795 27.548 121.959 26.6709C122.205 25.3322 122.733 24.1089 123.601 23.0471C124.691 21.7199 126.086 20.8544 127.751 20.3812C128.596 20.1388 129.451 20.0234 130.331 20.0234C131.292 20.0234 132.242 20.0581 133.192 20.2312C133.649 20.312 133.684 20.2312 133.567 20.7736C133.45 21.3506 133.344 21.9277 133.227 22.5047C133.192 22.6778 133.168 22.7009 133.016 22.6547C132.043 22.3893 131.046 22.3316 130.049 22.3777C128.513 22.447 127.153 22.9779 126.075 24.0858C125.008 25.1937 124.527 26.5209 124.633 28.0442C124.703 29.0367 125.219 29.7523 126.157 30.1677C126.438 30.2947 126.731 30.3755 127.036 30.4216C127.74 30.5255 128.443 30.5255 129.147 30.3755C129.334 30.3408 129.428 30.237 129.463 30.0523C129.592 29.3714 129.721 28.6905 129.862 27.9981C129.874 27.9635 129.873 27.9173 129.873 27.8711C129.885 27.7903 129.85 27.7442 129.756 27.7442C129.381 27.7442 129.006 27.7442 128.631 27.7326C128.49 27.7557 128.349 27.7673 128.232 27.7326Z" fill="#03883C"/>
<path d="M95.9298 30.3643C95.8243 30.9413 95.7188 31.4491 95.625 31.9453C95.5898 32.1415 95.5429 32.3493 95.5077 32.5455C95.496 32.6378 95.4373 32.6839 95.3435 32.6955C95.0152 32.7416 94.687 32.7878 94.3587 32.8109C93.4793 32.8686 92.6117 32.857 91.7557 32.6724C90.8647 32.4762 90.0439 32.13 89.3638 31.5068C88.6603 30.8605 88.2734 30.0411 88.0976 29.1179C87.8748 27.8715 88.039 26.6597 88.4611 25.4941C89.5046 22.5281 91.6385 20.7739 94.7573 20.1738C95.7187 19.9891 96.6919 20.0007 97.6534 20.1392C97.841 20.1623 97.8644 20.1969 97.8292 20.3815C97.7354 20.8662 97.6417 21.351 97.5479 21.8241C97.5127 22.0088 97.4776 22.205 97.4307 22.3896C97.4072 22.505 97.3603 22.5281 97.2548 22.505C97.0672 22.4704 96.8795 22.4358 96.6802 22.4012C95.7891 22.2858 94.9098 22.3665 94.0656 22.7012C92.9048 23.1744 92.0957 24.0053 91.5916 25.1248C91.2046 26.0019 91.0171 26.9136 91.0874 27.8715C91.1109 28.2523 91.2047 28.6216 91.3805 28.9678C91.7675 29.7526 92.4358 30.1796 93.2683 30.3643C93.9718 30.5258 94.6753 30.4912 95.3788 30.4104C95.5429 30.4104 95.707 30.3873 95.9298 30.3643Z" fill="#03883C"/>
</svg>
