<svg width="127" height="41" viewBox="0 0 127 41" fill="none" xmlns="http://www.w3.org/2000/svg">
<path d="M46.6316 0.100369C46.6316 0.0716923 46.6172 0.0286769 46.6172 0C55.2777 0 63.9239 0 72.5843 0C72.5843 0.0286769 72.5987 0.0716923 72.5987 0.100369C64.3098 0.100369 56.0351 0.100369 47.7462 0.100369C47.3747 0.100369 47.0031 0.100369 46.6316 0.100369Z" fill="#EB2629"/>
<path d="M126.035 0C126.021 0.0286769 126.021 0.0716923 126.007 0.100369C118.175 0.100369 110.344 0.100369 102.512 0.100369C102.355 0.100369 102.212 0.0860308 102.055 0.0860308C102.069 0.0573539 102.083 0.0286769 102.083 0C110.086 0 118.061 0 126.035 0Z" fill="#EB2629"/>
<path d="M46.6289 0.0996094C47.0005 0.0996094 47.372 0.0996094 47.7436 0.0996094C56.0325 0.0996094 64.3072 0.0996094 72.5961 0.0996094C72.6675 0.156963 72.6246 0.214317 72.5961 0.271671C72.4532 0.529763 72.3245 0.773517 72.1816 1.03161C70.4237 4.24343 68.6659 7.4409 66.9081 10.6527C66.8366 10.7961 66.7795 10.9538 66.6508 11.0542C66.5365 11.0255 66.5651 10.9395 66.5651 10.8821C66.5937 10.4376 66.6223 10.0075 66.6366 9.563C66.6509 9.26189 66.6794 8.94644 66.6508 8.64534C66.608 7.97143 66.3508 7.39789 65.8792 6.92472C65.5505 6.59493 65.1788 6.3225 64.7644 6.1361C63.321 5.49087 61.8204 5.2758 60.2626 5.67727C57.6759 6.35118 56.1611 8.631 56.0039 10.7961C55.9181 12.1009 56.2611 13.2623 56.9328 14.3664C58.0332 16.216 59.4338 17.822 60.9201 19.3562C62.8066 21.2775 64.8216 23.0555 66.9367 24.7331C67.3225 25.0342 67.4083 25.0199 67.6798 24.6041C67.8656 24.3173 67.9942 24.0018 68.1086 23.6864C68.4944 22.6253 68.7659 21.5213 69.0089 20.4029C69.1232 19.8724 69.2232 19.3418 69.3376 18.8113C69.409 18.4815 69.409 18.4672 69.7234 18.5532C70.7238 18.84 71.7386 19.1268 72.739 19.4279C74.1824 19.8437 75.6258 20.2452 77.0692 20.6753C77.4693 20.79 77.5122 20.6896 77.4407 21.2202C77.2835 22.3959 77.0263 23.5573 76.6833 24.6901C75.9116 27.228 74.7968 29.6225 73.3677 31.8593C73.3391 31.9023 73.3106 31.9453 73.282 31.9884C73.1534 32.1891 73.1533 32.2034 73.2962 32.3898C73.9394 33.1785 74.5825 33.9671 75.2256 34.7557C76.7547 36.634 78.284 38.5124 79.8131 40.3907C79.8989 40.4911 79.9702 40.6058 80.056 40.7205C79.9416 40.8639 79.7988 40.8065 79.6844 40.8065C77.0406 40.8065 74.4109 40.8065 71.7671 40.8065C71.1097 40.8065 70.4523 40.8065 69.7949 40.8065C69.5948 40.8065 69.452 40.7492 69.3091 40.5914C68.7803 40.0036 68.2371 39.4157 67.6941 38.8278C67.6083 38.7418 67.537 38.6558 67.4512 38.5697C67.2654 38.3833 67.2512 38.369 67.0225 38.4837C66.4366 38.7561 65.8506 38.9999 65.2361 39.215C63.4497 39.8602 61.6204 40.319 59.7482 40.6201C58.4334 40.8352 57.1043 40.9642 55.7609 40.9929C54.6748 41.0216 53.603 40.9499 52.5311 40.8352C50.8877 40.6631 49.3013 40.319 47.7436 39.7885C46.2144 39.2723 44.7711 38.5697 43.442 37.6664C42.8846 37.2936 42.4273 36.8348 42.0271 36.3042C41.2268 35.2145 40.5838 34.0531 40.2265 32.7483C39.7263 30.956 39.7977 29.1637 40.355 27.3857C40.7123 26.2243 41.2553 25.1633 41.8984 24.1452C42.8702 22.6253 44.0564 21.2775 45.3569 20.0301C46.5288 18.9117 47.7722 17.908 49.1013 17.0047C49.2156 16.933 49.3156 16.8469 49.4299 16.7752C49.4156 16.5888 49.2728 16.5028 49.1727 16.3881C48.0008 14.9973 47.0291 13.4631 46.3431 11.7711C45.6571 10.0648 45.2855 8.31555 45.3141 6.46589C45.3284 5.96404 45.3713 5.44786 45.4856 4.94601C45.8286 3.39746 46.1716 1.83456 46.5288 0.286009C46.5431 0.18564 46.5574 0.128286 46.6289 0.0996094ZM62.4063 32.0027C62.1777 31.6299 55.2893 23.3996 54.9749 23.1129C53.9888 23.7868 52.9885 24.4463 52.1024 25.2493C51.7737 25.5504 51.4593 25.8515 51.1735 26.1956C50.8448 26.5828 50.5447 26.9986 50.316 27.4431C50.0588 27.9449 49.8872 28.4754 49.8587 29.049C49.8158 29.8233 50.0445 30.5258 50.4589 31.1567C51.3021 32.4615 52.4597 33.3505 53.9603 33.7663C55.2465 34.1248 56.5326 34.0818 57.8331 33.8237C59.3194 33.5226 60.7057 32.9777 62.0348 32.2465C62.1634 32.1891 62.3206 32.1317 62.4063 32.0027Z" fill="#EB2629"/>
<path d="M102.066 0.0820779C102.224 0.0820779 102.367 0.0964164 102.524 0.0964164C110.355 0.0964164 118.187 0.0964164 126.019 0.0964164C126.061 0.182447 126.004 0.225463 125.961 0.268478C125.19 1.04276 124.432 1.80269 123.675 2.57697C123.546 2.70602 123.403 2.77771 123.232 2.76337C123.117 2.74903 122.989 2.76337 122.874 2.76337C119.33 2.76337 115.772 2.76337 112.228 2.76337C112.113 2.76337 111.985 2.76337 111.87 2.76337C111.742 2.76337 111.642 2.79205 111.556 2.87808C111.156 3.27956 110.741 3.69537 110.341 4.09685C110.327 4.11119 110.327 4.1542 110.312 4.18288C110.327 4.19722 110.327 4.21156 110.341 4.2259C110.355 4.24023 110.37 4.24023 110.384 4.24023C110.398 4.24023 110.413 4.24023 110.441 4.24023C110.47 4.24023 110.513 4.24023 110.541 4.24023C110.555 4.24023 110.57 4.24023 110.598 4.24023C110.627 4.24023 110.67 4.24023 110.698 4.24023C110.727 4.24023 110.77 4.24023 110.798 4.24023C114.343 4.24023 117.901 4.24023 121.445 4.24023C121.46 4.24023 121.474 4.24023 121.502 4.24023C121.517 4.24023 121.531 4.24023 121.56 4.24023C121.588 4.24023 121.588 4.24023 121.617 4.24023C121.631 4.24023 121.645 4.24023 121.674 4.24023C121.688 4.24023 121.703 4.24023 121.731 4.24023C121.745 4.24023 121.76 4.24023 121.788 4.24023C121.803 4.24023 121.817 4.24023 121.845 4.24023C121.86 4.24023 121.874 4.24023 121.888 4.25457C121.903 4.26891 121.903 4.28325 121.917 4.29759C121.931 4.39796 121.845 4.44097 121.788 4.48399C121.231 5.05753 120.659 5.61673 120.116 6.19027C119.945 6.36233 119.773 6.43402 119.53 6.41968C119.173 6.40534 118.816 6.41968 118.458 6.41968C115.114 6.41968 111.77 6.41968 108.412 6.41968C107.783 6.41968 107.954 6.34799 107.497 6.80682C107.226 7.07925 106.94 7.35168 106.668 7.63845C106.611 7.71014 106.468 7.75316 106.54 7.8822C106.597 7.98257 106.725 7.92522 106.811 7.92522C106.925 7.93956 107.054 7.92522 107.168 7.92522C110.684 7.92522 114.2 7.92522 117.715 7.92522C117.872 7.92522 118.044 7.92522 118.187 7.92522C118.244 8.03993 118.173 8.08294 118.13 8.12596C117.172 9.08664 116.215 10.033 115.257 10.9937C115.129 11.1227 115 11.1944 114.814 11.1801C114.7 11.1657 114.571 11.1801 114.457 11.1801C110.484 11.1801 106.511 11.1801 102.538 11.1801C101.881 11.1801 102.009 11.1514 101.881 11.6962C100.952 15.4242 100.023 19.1522 99.1082 22.8946C97.9506 27.5976 96.7787 32.3006 95.6211 37.0036C95.3496 38.122 95.0638 39.2404 94.7922 40.3588C94.7637 40.4592 94.7494 40.5596 94.7208 40.6599C94.6922 40.746 94.6208 40.8033 94.535 40.8033C94.4493 40.8033 94.3634 40.8033 94.2777 40.8033C90.7335 40.8033 87.1749 40.8033 83.6307 40.8033C83.5307 40.8033 83.4308 40.8033 83.3164 40.8033C83.245 40.6456 83.3021 40.5166 83.3307 40.3875C84.0309 37.2904 84.7741 34.222 85.5458 31.1535C86.6891 26.6082 87.8182 22.0486 88.9615 17.5033C89.4474 15.5533 89.9331 13.5889 90.4191 11.6389C90.4476 11.5098 90.5191 11.3808 90.4477 11.2087C89.9189 11.1944 89.3901 11.2087 88.847 11.2087C88.3182 11.2087 87.8038 11.2087 87.275 11.2087C86.7319 11.2087 86.1889 11.2087 85.6459 11.2087C85.1028 11.2087 84.5597 11.2087 84.0166 11.2087C83.4736 11.2087 82.9306 11.2087 82.3875 11.2087C81.8587 11.2087 81.3442 11.2087 80.8155 11.2087C80.2724 11.2087 79.7293 11.2087 79.1862 11.2087C78.6432 11.2087 78.1 11.2087 77.557 11.2087C77.0139 11.2087 76.4709 11.2087 75.9278 11.2087C75.3991 11.2087 74.8846 11.2087 74.3558 11.2087C73.8128 11.2087 73.2839 11.2087 72.7266 11.2087C72.7409 10.9793 72.8696 10.8216 72.9553 10.6639C74.1415 8.47008 75.3276 6.29063 76.5137 4.09685C77.1568 2.90676 77.8 1.71666 78.4574 0.52657C78.5146 0.426201 78.5716 0.311493 78.6288 0.211124C78.686 0.110755 78.7718 0.0677394 78.8862 0.0677394C79.0005 0.0677394 79.1291 0.0677394 79.2434 0.0677394C86.6749 0.053401 94.1205 0.053401 101.552 0.0390625C101.695 0.053401 101.881 0.0677394 102.066 0.0820779Z" fill="#EB2629"/>
<path d="M31.3815 40.8098C20.8917 40.8098 10.4591 40.8098 0.0408569 40.8098C-0.0448903 40.7238 0.0265099 40.6521 0.0550923 40.5804C1.44134 38.0712 2.69899 35.5046 4.01379 32.9667C4.04237 32.9237 4.07095 32.8806 4.08524 32.8376C4.12811 32.7086 4.22821 32.6512 4.35683 32.6512C4.51403 32.6512 4.65683 32.6512 4.81404 32.6512C10.1732 32.6512 15.5324 32.6512 20.8916 32.6512C21.6491 32.6512 21.4919 32.7516 21.6634 32.0347C22.6066 27.9052 23.5355 23.7757 24.4644 19.6462C25.4648 15.23 26.451 10.8281 27.4371 6.41184C27.8802 4.44747 28.3232 2.4831 28.7662 0.518729C28.8662 0.0742362 28.8091 0.102913 29.295 0.102913C32.8964 0.102913 36.4977 0.102913 40.0991 0.102913C40.242 0.102913 40.3992 0.0598976 40.5564 0.160267C40.5421 0.260636 40.5422 0.361005 40.5136 0.461375C37.4696 13.8822 34.4255 27.3317 31.3815 40.8098Z" fill="#EB2629"/>
</svg>
