<svg width="160" height="28" viewBox="0 0 160 28" fill="none" xmlns="http://www.w3.org/2000/svg">
<path d="M75.8176 23.9287C75.0098 24.2836 74.1657 24.4667 73.2855 24.5354C72.9479 24.5583 72.8394 24.6384 72.8997 24.9703C72.9841 25.4167 73.0685 25.8631 72.96 26.3324C72.7429 27.3511 71.8869 27.8433 70.7535 27.4999C71.8266 26.5041 71.8145 25.2107 71.8869 23.9402C71.8989 23.6655 71.8025 23.5853 71.5251 23.5396C71.1875 23.4823 71.1996 23.6769 71.1755 23.8715C71.0429 24.936 70.8258 25.9661 70.223 26.8933C69.7286 27.6487 69.0534 28.1294 68.0405 27.9692C67.727 27.9234 67.4497 27.809 67.2689 27.5228C69.0896 26.7445 69.9215 25.2336 70.5847 23.5853C70.6932 23.3221 70.5364 23.2649 70.3555 23.1504C70.0782 22.9902 70.03 23.1847 69.9577 23.3335C69.4151 24.398 68.8122 25.4167 67.8958 26.2408C67.2809 26.7903 66.5695 27.168 65.7375 27.3282C64.8935 27.4885 64.2545 27.1794 63.7963 26.4125C66.1595 26.0348 67.8717 24.7185 69.2945 22.9787C69.4754 22.7498 69.4995 22.6468 69.2704 22.4293C68.993 22.1546 68.8725 22.3492 68.7037 22.5094C67.7391 23.4938 66.678 24.3637 65.412 24.9932C64.2906 25.5426 63.1211 25.6456 61.9033 25.4167C61.0713 25.2565 60.5167 24.6956 60.3961 23.9287C60.372 23.7685 60.2996 23.5968 60.6252 23.6655C63.2537 24.1805 65.5808 23.4022 67.7994 22.1775C67.92 22.1088 68.0526 22.0516 68.149 21.9714C68.2817 21.8455 68.6675 21.8455 68.4384 21.4907C68.2575 21.216 68.1491 21.0672 67.7391 21.2503C66.1957 21.9257 64.5921 22.4751 62.8799 22.6468C61.5777 22.7727 60.2996 22.7154 59.0818 22.1889C57.9122 21.6739 57.2611 20.5178 57.454 19.3961C57.5023 19.1214 57.5264 19.0298 57.852 19.2015C60.2635 20.5063 62.8679 20.9184 65.6049 20.6666C66.2198 20.6094 66.8348 20.5636 67.4377 20.4262C67.6547 20.3804 67.8838 20.3919 67.7994 20.0485C67.727 19.7624 67.6306 19.6479 67.293 19.6708C65.6049 19.7852 63.9169 19.6593 62.2529 19.3617C60.372 19.0184 58.6478 18.3659 57.2612 17.084C56.2483 16.1454 56.0554 14.6231 56.7668 13.6387C56.9718 13.3525 57.0923 13.261 57.3697 13.6158C58.7201 15.3556 60.6252 16.443 62.6267 17.3816C64.0857 18.0569 65.617 18.5262 67.1965 18.8581C67.3412 18.8925 67.5823 19.087 67.6547 18.7894C67.715 18.5605 67.7873 18.3087 67.3894 18.1713C65.3397 17.4846 63.4105 16.5689 61.638 15.3556C59.7812 14.0851 58.2378 12.5628 57.2973 10.5368C56.803 9.44943 56.7909 8.38494 57.3937 7.34335C57.5626 7.0572 57.7796 6.80538 58.069 6.62224C58.3222 6.462 58.5995 6.3132 58.8769 6.34754C59.2989 6.39332 59.0818 6.79394 59.1542 7.02286C60.0464 10.285 61.8791 12.9863 64.5077 15.2183C65.5446 16.0996 66.6539 16.9008 67.8476 17.5762C68.1852 17.2099 68.1249 16.9695 67.715 16.6719C64.4233 14.2797 61.9515 11.3266 60.794 7.4807C60.2393 5.62643 60.0223 3.77217 60.6373 1.89501C61.1196 0.418465 62.2529 -0.233962 63.7481 0.075082C64.0374 0.132312 64.158 0.189543 64.0857 0.544372C63.0487 5.718 63.8445 10.5368 67.293 14.8062C67.6064 15.1954 68.0044 15.5159 68.342 15.8821C68.5831 16.1339 68.7158 16.1683 69.0172 15.8936C70.8017 14.1538 73.5387 13.9821 75.5162 15.493C77.1319 16.7291 77.6383 18.3774 77.1801 20.266C76.7701 21.9714 75.1424 23.3335 73.2735 23.6082C73.177 23.6197 73.0685 23.654 72.972 23.654C72.7309 23.654 72.6947 23.7685 72.7188 23.9631C72.7429 24.1462 72.767 24.2607 73.0203 24.2492C73.4905 24.2378 73.9367 24.1119 74.3828 24.0089C74.3104 24.295 74.443 24.2378 74.648 24.192C75.0821 24.0775 75.4197 23.8486 75.8176 23.9287Z" fill="#D91A34"/>
<path d="M75.8169 23.9289C75.419 23.8488 75.0814 24.0777 74.7318 24.1693C74.5268 24.2265 74.3941 24.2723 74.4665 23.9862C76.6127 23.162 77.8908 21.6855 78.1319 19.4878C78.4334 16.7637 76.5404 14.4516 73.5381 13.8106C73.0437 13.5015 71.416 13.5931 70.8734 13.9708C70.162 14.2341 69.4868 14.5546 68.9321 15.0468C68.6427 15.2986 68.5462 15.0582 68.4257 14.9094C67.0993 13.3413 66.0745 11.6244 65.5802 9.6442C65.4475 9.14058 65.3752 8.6255 65.2184 8.12188C65.122 7.78994 65.2546 7.68692 65.5681 7.65259C65.7489 7.62969 65.9177 7.57246 66.1347 7.52668C65.7007 7.02305 65.3631 6.54231 65.3631 5.92423C65.3631 5.60374 65.4716 5.45494 65.8454 5.47783C66.5206 5.50072 67.1597 5.23746 67.8469 5.28325C68.0519 5.29469 68.0639 5.21457 68.0037 5.04288C67.9554 4.87119 67.9313 4.68805 67.9434 4.51636C67.9434 3.96695 68.0278 3.92116 68.5704 4.02418C68.7874 4.06996 69.0165 4.08141 69.2335 4.01273C69.9691 3.77236 70.7287 3.6579 71.4883 3.82959C71.7174 3.87538 71.7174 3.79525 71.7174 3.64645C71.7295 3.45187 71.7897 3.26873 71.9223 3.10849C72.1032 2.89101 72.2841 2.81089 72.5735 2.97114C73.0799 3.25729 73.6586 3.3603 74.2133 3.53199C74.6594 3.66935 75.0935 3.79525 75.407 4.18442C75.5758 3.96695 75.6602 3.71513 75.9254 3.62356C76.2269 3.52055 76.4922 3.44043 76.673 3.84104C76.9624 4.44768 77.5412 4.80251 78.1199 5.123C78.5419 5.35192 78.964 5.5694 79.386 5.77543C79.7115 5.93567 79.9044 6.16459 79.7477 6.51942C79.6392 6.74834 79.7838 6.82847 79.9647 6.93148C80.5435 7.26342 81.1825 7.34354 81.8457 7.3321C82.34 7.32065 82.545 7.53813 82.34 7.95018C82.2315 8.17911 82.3642 8.36224 82.34 8.56827C82.2556 9.20925 81.9542 9.73577 81.4116 10.1364C81.0619 9.32371 80.652 9.11769 79.9286 9.38095C79.1207 9.67854 78.6022 10.7659 78.9157 11.4985C79.1327 12.025 79.8682 12.1395 80.8087 11.819C80.8328 12.7804 80.5796 13.1925 79.9044 13.41C79.603 13.513 79.3618 13.3871 79.1086 13.3184C78.7589 13.2154 78.6022 13.2955 78.5781 13.6618C78.5178 14.6004 78.8434 15.3444 79.7236 15.848C80.4229 16.2486 80.4229 16.5004 79.7356 16.9239C79.386 17.1414 79.4824 17.439 79.5668 17.7137C79.6392 17.977 79.8441 18.183 80.0611 18.389C80.447 18.7553 80.3264 19.1788 79.808 19.2818C79.4342 19.3505 79.4824 19.6366 79.4221 19.8427C79.1327 20.7927 78.7107 21.674 78.0234 22.4295C77.4447 23.1048 76.6971 23.6084 75.8169 23.9289ZM75.0935 5.91278C75.0091 5.55795 74.7679 5.39771 74.4785 5.28325C74.0927 5.13445 73.6586 5.31758 73.4295 5.6953C73.2245 6.05013 73.309 6.45075 73.6587 6.69111C73.7431 6.74835 73.8274 6.81702 73.936 6.75979C74.0445 6.70256 73.9721 6.61099 73.948 6.54232C73.8154 6.19893 74.0204 6.07303 74.2977 5.90133C74.575 5.72964 74.8162 5.91278 75.0935 5.91278ZM79.0242 7.80138C79.2172 7.46945 79.3739 7.1833 79.5788 6.80558C79.1327 6.96582 78.7951 7.00016 78.349 7.0116C78.6022 7.3092 78.7951 7.52668 79.0242 7.80138Z" fill="#D91A34"/>
<path d="M97.0622 10.6854C97.0864 10.674 97.0985 10.674 97.1105 10.6969C97.1588 10.7198 97.2069 10.7427 97.2552 10.7656C97.2672 10.8915 97.3517 10.9029 97.4602 10.88L97.4481 10.8686C97.4843 11.0517 97.5928 11.109 97.7737 11.0517C97.7616 11.0632 97.7616 11.0746 97.7495 11.0746C97.7616 11.0632 97.7616 11.0632 97.7737 11.0517C97.7737 11.2463 97.8943 11.2921 98.0751 11.2692H98.0631C98.0751 11.3379 98.1113 11.3608 98.1836 11.3608C98.1836 11.4294 98.2198 11.4638 98.2921 11.4638C98.2801 11.4752 98.2801 11.4867 98.268 11.4867C98.2801 11.4752 98.2801 11.4638 98.2921 11.4638C98.2921 11.5325 98.3162 11.5668 98.4006 11.5668C98.3886 11.6813 98.473 11.6927 98.5574 11.7041L98.5815 11.7156V11.7385C98.5815 11.8186 98.6177 11.8644 98.7021 11.8758L98.69 11.8644C98.69 11.9331 98.7262 11.9674 98.7986 11.9789V11.9674C98.7865 12.059 98.7865 12.162 98.9312 12.1277L98.9432 12.1505C98.9071 12.2192 98.9432 12.2536 99.0156 12.265C98.9915 12.368 98.9915 12.4481 99.1362 12.4481L99.112 12.4596L99.1482 12.4481C99.0759 12.5626 99.1362 12.6656 99.1964 12.7686C99.5341 13.4325 99.6546 14.1193 99.6185 14.8518C99.6064 15.035 99.5461 15.241 99.7029 15.4127C99.1965 17.9995 97.7134 19.8881 95.0608 20.7237C93.1557 21.3303 91.1782 21.3303 89.2611 20.6092C88.9717 20.4947 88.9235 20.5749 88.8512 20.8152C88.4653 22.0514 88.0553 23.2647 87.6695 24.5009C87.6092 24.6955 87.561 24.8786 87.3078 24.9244C87.151 24.7756 86.946 24.8328 86.7652 24.8328C85.2218 24.8328 83.6664 24.8328 82.123 24.8328C82.2195 24.0888 82.533 23.3906 82.7741 22.6809C84.0522 18.7893 85.3665 14.9205 86.6446 11.0288C86.7893 10.6053 87.0425 10.4565 87.4886 10.5138C88.4291 10.6397 89.3696 10.6969 90.3101 10.5138C90.6236 10.6854 90.9371 10.5138 91.2385 10.4794C92.7095 10.2848 94.1685 10.2505 95.6395 10.3878C96.1218 10.4336 96.5558 10.6969 97.0622 10.6854ZM92.5648 18.0338C93.3486 17.8507 94.0599 17.5531 94.482 16.832C94.8919 16.1338 95.109 15.3783 95.0969 14.5886C95.0848 13.2723 94.1203 12.574 92.7578 12.8259C91.8535 12.9976 91.2988 13.5241 91.0094 14.3139C90.6598 15.2295 90.3583 16.1681 90.0448 17.0953C89.7916 17.8393 89.8037 17.8393 90.5995 18.0338C91.2506 18.2284 91.9137 18.2284 92.5648 18.0338Z" fill="#D91A34"/>
<path d="M49.3514 10.4219C50.099 10.5134 50.8465 10.6622 51.5097 11.0171C53.1133 11.8641 53.8609 13.5467 53.3304 15.2979C52.7637 17.1636 52.1367 19.0064 51.5579 20.8607C51.4373 21.2499 51.1721 21.3071 50.8224 21.3071C49.3634 21.3071 47.8924 21.3071 46.4335 21.3071C45.8547 21.3071 45.7944 21.227 45.9632 20.7119C46.4697 19.1552 46.9761 17.5986 47.4825 16.0419C47.9045 14.7599 47.7237 14.5539 46.2888 14.6226C44.7455 14.7027 44.7575 14.7027 44.3113 16.0762C43.8049 17.6787 43.2624 19.2811 42.768 20.8836C42.6716 21.1926 42.4907 21.3071 42.1772 21.2957C40.658 21.2957 39.1508 21.2957 37.6315 21.2957C37.2818 21.2957 37.0648 21.227 37.2095 20.8035C38.2826 17.5757 39.3437 14.3479 40.3927 11.1086C40.465 10.9026 40.5615 10.8339 40.7785 10.8225C41.5261 10.7996 42.2616 10.8225 42.985 11.0056C43.4553 11.1315 43.9255 11.1315 44.4078 10.9942C45.4448 10.6851 46.5179 10.5478 47.591 10.4219C48.1818 10.5592 48.7726 10.5592 49.3514 10.4219Z" fill="#D91A34"/>
<path d="M13.3719 16.5922C13.6372 16.6724 13.6975 16.8555 13.6251 17.0844C13.2513 18.3435 12.8655 19.6026 12.2867 20.7929C12.1903 20.9875 12.0818 21.205 11.8165 21.2851C11.6718 21.1478 11.491 21.1936 11.3342 21.1936C8.63333 21.1936 5.92039 21.1936 3.21952 21.1936C3.05071 21.1936 2.86984 21.1363 2.72515 21.2737C1.07327 20.999 0.132789 19.9345 0.0122145 18.3549C-0.0842453 17.1416 0.410123 16.0886 0.80802 15.0012C1.71233 12.4945 2.65281 9.98784 3.54506 7.48114C3.72592 6.95462 4.02736 6.77148 4.59406 6.77148C6.07713 6.79438 7.5602 6.78293 9.03121 6.78293C9.68232 6.78293 9.80289 6.94318 9.59791 7.51548C8.66948 10.1023 7.75312 12.6891 6.82469 15.2874C6.61971 15.8597 6.74029 16.1916 7.28288 16.535C7.37934 16.741 7.57225 16.6724 7.729 16.6724C9.46528 16.6724 11.2016 16.6724 12.9379 16.6724C13.0946 16.6838 13.2513 16.7181 13.3719 16.5922Z" fill="#D91A34"/>
<path d="M27.3342 21.4788C26.2249 21.3758 25.1879 21.0667 24.2836 20.4258C22.475 19.1438 22.0168 17.0034 23.1261 15.0118C24.1148 13.2376 25.7064 12.093 27.5874 11.2689C28.6243 10.811 29.7215 10.5592 30.8429 10.4219C31.4578 10.5707 32.0848 10.5592 32.6997 10.4219C33.5076 10.5249 34.2913 10.6851 35.0148 11.04C37.5469 12.2647 38.2944 14.7142 36.7993 17.0721C35.3041 19.4071 32.9891 20.6661 30.2521 21.2957C29.8421 21.3872 29.4081 21.4216 28.986 21.4788C28.4314 21.33 27.8888 21.3414 27.3342 21.4788ZM32.5189 15.607C32.5189 15.0461 32.1933 14.5997 31.6628 14.3708C30.4691 13.8328 28.564 14.4166 27.9009 15.5154C27.2859 16.5341 28.0576 17.9305 29.2633 17.8389C30.3003 17.7588 31.3131 17.4612 32.0486 16.66C32.326 16.3281 32.4948 15.9618 32.5189 15.607Z" fill="#D91A34"/>
<path d="M113.557 11.0979C113.991 11.1093 114.413 11.1322 114.847 11.1093C115.281 11.0979 115.39 11.2467 115.257 11.6473C114.63 13.5244 114.015 15.4016 113.388 17.2902C113.039 18.3661 112.665 19.4306 112.339 20.5066C112.219 20.8957 112.026 21.0102 111.604 21.0102C110.229 20.9873 108.843 20.9873 107.468 21.0102C107.022 21.0216 106.95 20.8843 107.082 20.4951C107.709 18.5951 108.312 16.695 108.915 14.795C109.096 14.2455 109.253 13.6618 108.734 13.2497C108.204 12.8262 107.553 12.9636 106.974 13.204C106.311 13.4901 105.84 13.9823 105.455 14.5546C104.972 15.2642 104.659 16.0426 104.514 16.8667C104.297 18.0342 104.924 18.6637 106.166 18.5149C106.552 18.4692 106.926 18.3432 107.299 18.2631C106.853 20.0831 104.43 21.5138 102.525 21.0789C101.138 20.7698 100.246 19.6367 100.222 18.1372C100.186 15.9739 101.138 14.1769 102.645 12.6316C103.911 11.3268 105.467 10.4569 107.36 10.2051C107.444 10.3081 107.577 10.2966 107.697 10.2966C109.289 10.228 110.832 10.4226 112.339 10.9605C112.701 11.0979 113.123 11.281 113.557 11.0979Z" fill="#D91A34"/>
<path d="M145.389 10.2168C146.993 10.3541 148.367 10.9265 149.404 12.1397C150.031 12.8723 150.176 13.7193 150.14 14.6235C150.103 15.688 150.091 15.6651 149.018 15.9169C146.269 16.5465 143.52 17.1989 140.699 17.8628C141.096 18.3435 141.579 18.5724 142.121 18.7327C143.363 19.0761 144.581 18.8586 145.787 18.561C146.498 18.3779 147.198 18.1489 147.873 17.8513C148.247 17.6796 148.608 17.7025 148.849 18.0001C149.127 18.3435 148.825 18.6182 148.584 18.8471C147.39 19.9574 145.907 20.5412 144.292 20.8388C142.483 21.1821 140.65 21.4111 138.83 20.9074C136.599 20.2779 135.297 18.5839 135.478 16.5007C135.574 15.3218 136.141 14.3145 136.961 13.4446C138.745 11.5445 140.976 10.4801 143.641 10.2168C144.219 10.377 144.81 10.3656 145.389 10.2168ZM145.124 14.7266C145.124 14.6579 144.738 14.2802 144.448 14.1314C143.218 13.5133 141.217 14.1657 140.638 15.3675C140.566 15.5163 140.53 15.6766 140.481 15.8254C140.397 16.0886 140.53 16.1001 140.747 16.0429C142.133 15.6651 143.52 15.2989 144.907 14.9211C144.991 14.9211 145.124 14.944 145.124 14.7266Z" fill="#D91A34"/>
<path d="M149.814 20.9074C149.851 20.2092 150.164 19.5682 150.381 18.9158C151.635 15.0127 152.925 11.1096 154.179 7.20646C154.324 6.7715 154.517 6.57692 155.047 6.58837C156.543 6.62271 158.038 6.61126 159.545 6.59981C159.991 6.59981 160.075 6.72572 159.943 7.12633C158.472 11.5903 157.025 16.0428 155.566 20.5068C155.506 20.7014 155.506 20.9418 155.228 20.999C155.132 20.8731 154.987 20.896 154.855 20.896C153.166 20.9074 151.49 20.9074 149.814 20.9074Z" fill="#D91A34"/>
<path d="M129.378 21.1826C128.269 21.0796 127.232 20.7706 126.303 20.1639C124.446 18.9392 123.904 17.0048 124.893 15.0475C125.616 13.6053 126.786 12.5523 128.245 11.774C128.269 11.7854 128.281 11.7968 128.305 11.8197C128.305 11.7968 128.305 11.774 128.305 11.7511H128.317C128.63 11.7396 128.92 11.6824 129.052 11.3619L129.089 11.3848L129.052 11.3733C129.149 11.3962 129.245 11.3962 129.269 11.2818L129.257 11.2932C129.535 11.339 129.752 11.2474 129.909 11.0185L129.933 10.9956L129.957 11.0071C130.222 11.0528 130.451 10.9269 130.704 10.8468C132.525 10.286 134.37 10.1715 136.263 10.4805C136.576 10.5378 136.757 10.6522 136.817 10.9498L136.805 10.9613C136.649 10.9384 136.661 11.03 136.673 11.133V11.1215C136.552 11.133 136.54 11.2131 136.54 11.3047C136.504 11.339 136.48 11.3848 136.444 11.4191L136.456 11.4077C136.347 11.4306 136.323 11.4992 136.323 11.5908C136.166 11.6023 136.106 11.6709 136.154 11.8197C135.949 11.8312 135.901 11.9456 135.937 12.1173L135.913 12.0944L135.937 12.1059C135.865 12.1173 135.829 12.1517 135.865 12.2203V12.2318C135.708 12.2089 135.72 12.3005 135.732 12.4035C135.612 12.4149 135.6 12.4951 135.6 12.5866V12.5752C135.563 12.621 135.539 12.6553 135.503 12.7011L135.515 12.6896C135.407 12.7125 135.383 12.7927 135.383 12.8728C135.202 12.8842 135.166 12.9872 135.19 13.1246L135.178 13.1589C135.021 13.1704 134.961 13.2391 135.009 13.3878C134.936 13.3878 134.9 13.4222 134.924 13.4909L134.912 13.5023C134.756 13.4794 134.768 13.571 134.78 13.674L134.756 13.6511L134.78 13.6626C134.659 13.674 134.647 13.7541 134.647 13.8457V13.8342C134.611 13.88 134.587 13.9144 134.551 13.9602L134.563 13.9487C134.49 13.9602 134.454 13.9945 134.478 14.0632L134.466 14.0746C134.273 14.0746 134.117 13.8571 133.912 14.0174C132.537 13.6511 131.355 14.0059 130.367 14.9216C129.474 15.7457 129.74 16.7988 130.849 17.3596C131.621 17.7488 132.296 17.4855 132.995 17.2566C133.393 17.1193 133.526 17.2337 133.61 17.5771C133.791 18.3898 133.948 19.2025 134.177 20.0037C134.297 20.4501 134.129 20.6218 133.707 20.7477C132.959 20.9537 132.211 21.1025 131.44 21.1826C130.753 21.0338 130.065 21.0338 129.378 21.1826Z" fill="#D91A34"/>
<path d="M118.621 10.6167C119.791 11.086 120.9 10.4565 122.033 10.4336C122.757 10.5595 123.48 10.5709 124.192 10.4336C124.782 10.5481 125.361 10.7197 125.759 11.2005C125.988 11.4752 126.048 11.7156 125.771 12.0132C125.06 12.7915 124.384 13.5927 123.709 14.3939C123.54 14.6 123.384 14.6458 123.094 14.5771C122.021 14.3138 121.177 14.7717 120.852 15.7789C120.345 17.3356 119.851 18.8923 119.381 20.4604C119.26 20.861 119.031 21.0212 118.609 21.0212C117.186 21.0098 115.751 21.0212 114.329 21.0212C113.967 21.0212 113.677 20.9983 113.846 20.5062C114.907 17.3241 115.944 14.1421 116.981 10.9601C116.993 10.9143 117.029 10.88 117.054 10.8342C117.246 10.7197 117.476 10.7426 117.693 10.7312C117.994 10.674 118.32 10.7999 118.621 10.6167Z" fill="#D91A34"/>
<path d="M16.9172 21.2962C16.1576 21.2962 15.398 21.2848 14.6504 21.2962C14.2043 21.3077 14.1199 21.1589 14.2525 20.7697C15.2171 17.8509 16.1455 14.9207 17.1222 12.002C17.5924 10.6056 17.2427 10.8459 18.8223 10.823C20.0642 10.8116 21.3061 10.8116 22.536 10.823C23.0665 10.823 23.1027 10.8917 22.946 11.3725C21.9331 14.4858 20.9082 17.5877 19.9195 20.7125C19.7748 21.1703 19.5458 21.342 19.0393 21.3077C18.328 21.2733 17.6165 21.2962 16.9172 21.2962Z" fill="#D91A34"/>
<path d="M21.5599 5.59237C22.4521 5.58092 23.1032 5.74117 23.694 6.13033C24.2969 6.54239 24.5019 7.10325 24.2246 7.75568C23.6699 9.07198 22.5003 9.5985 21.1378 9.82742C20.4747 9.94188 19.7995 9.93043 19.1484 9.7244C17.7135 9.26656 17.3879 7.88158 18.4611 6.86288C19.3654 5.99298 20.4506 5.58092 21.5599 5.59237Z" fill="#D91A34"/>
<path d="M136.781 10.9376C136.732 10.64 136.54 10.5141 136.226 10.4684C134.345 10.1479 132.488 10.2623 130.668 10.8346C130.426 10.9148 130.197 11.0292 129.92 10.9949C132.054 10.1021 134.273 9.9075 136.552 10.4111C136.889 10.4684 136.986 10.6515 136.781 10.9376Z" fill="#D91A34"/>
<path d="M97.063 10.6856C96.5566 10.697 96.1226 10.4338 95.6282 10.388C94.1572 10.2506 92.6982 10.285 91.2272 10.4796C90.9258 10.5139 90.6123 10.6856 90.2988 10.5139C92.3004 10.1476 94.3019 9.90725 96.3276 10.388C96.5808 10.4567 96.846 10.5139 97.063 10.6856Z" fill="#D91A34"/>
<path d="M113.557 11.0975C113.123 11.2806 112.701 11.0975 112.339 10.9716C110.832 10.4336 109.289 10.2505 107.697 10.3077C107.576 10.3077 107.456 10.3191 107.359 10.2161C108.927 9.99865 110.434 10.2505 111.917 10.6969C112.448 10.8686 113.002 10.9945 113.557 11.0975Z" fill="#D91A34"/>
<path d="M2.72461 21.2853C2.8693 21.148 3.05017 21.2052 3.21898 21.2052C5.91985 21.2052 8.63279 21.2052 11.3337 21.2052C11.5025 21.2052 11.6833 21.148 11.816 21.2968C11.6592 21.3196 11.5145 21.3425 11.3578 21.3425C8.71719 21.3425 6.07661 21.354 3.43602 21.3425C3.20693 21.3425 2.96576 21.2968 2.72461 21.2853Z" fill="#D91A34"/>
<path d="M13.3722 16.5927C13.2517 16.7186 13.0829 16.6842 12.9382 16.6842C11.2019 16.6842 9.4656 16.6842 7.72932 16.6842C7.57258 16.6842 7.37966 16.7529 7.2832 16.5469C9.128 16.5469 10.9607 16.5583 12.8055 16.5583C12.9985 16.5583 13.1914 16.5812 13.3722 16.5927Z" fill="#D91A34"/>
<path d="M149.814 20.9076C151.49 20.9076 153.166 20.8962 154.842 20.8962C154.975 20.8962 155.12 20.8733 155.216 20.9992C153.504 21.0106 151.78 21.0221 150.068 21.0221C149.971 21.0221 149.863 21.0221 149.814 20.9076Z" fill="#D91A34"/>
<path d="M82.1113 24.8214C83.6547 24.8214 85.2101 24.8214 86.7535 24.8214C86.9343 24.8214 87.1393 24.7641 87.296 24.9129C85.6442 24.9244 84.0044 24.9358 82.3525 24.9358C82.256 24.9358 82.1354 24.9587 82.1113 24.8214Z" fill="#D91A34"/>
<path d="M99.6796 15.402C99.5349 15.2303 99.5951 15.0243 99.5951 14.8412C99.6313 14.1086 99.5107 13.4104 99.1731 12.758C99.1249 12.655 99.0646 12.552 99.1249 12.4375C99.7519 13.3532 99.8363 14.3604 99.6796 15.402Z" fill="#D91A34"/>
<path d="M70.875 13.9703C71.4296 13.5926 73.0574 13.4895 73.5397 13.81C72.6354 13.6841 71.7431 13.7528 70.875 13.9703Z" fill="#D91A34"/>
<path d="M124.191 10.4217C123.468 10.5591 122.745 10.5591 122.033 10.4217C122.757 10.353 123.48 10.3302 124.191 10.4217Z" fill="#D91A34"/>
<path d="M129.377 21.1819C130.064 21.0331 130.752 21.0331 131.439 21.1819C130.752 21.2391 130.064 21.2506 129.377 21.1819Z" fill="#D91A34"/>
<path d="M32.7123 10.423C32.0974 10.5604 31.4704 10.5604 30.8555 10.423C31.4704 10.3772 32.0853 10.3772 32.7123 10.423Z" fill="#D91A34"/>
<path d="M145.389 10.2165C144.798 10.3538 144.22 10.3653 143.629 10.2165C144.22 10.1707 144.811 10.1593 145.389 10.2165Z" fill="#D91A34"/>
<path d="M49.3519 10.423C48.7731 10.5718 48.1823 10.5718 47.6035 10.423C48.1823 10.3772 48.7731 10.3772 49.3519 10.423Z" fill="#D91A34"/>
<path d="M118.621 10.6161C118.332 10.7992 118.006 10.6733 117.693 10.7076C117.475 10.7191 117.258 10.6962 117.054 10.8106C117.017 10.5817 117.198 10.5932 117.343 10.6046C117.777 10.5932 118.199 10.6046 118.621 10.6161Z" fill="#D91A34"/>
<path d="M27.334 21.48C27.8886 21.3426 28.4312 21.3426 28.9859 21.48C28.4312 21.5143 27.8886 21.5258 27.334 21.48Z" fill="#D91A34"/>
<path d="M129.027 11.3496C128.894 11.6587 128.605 11.7273 128.291 11.7388C128.508 11.5671 128.773 11.4526 129.027 11.3496Z" fill="#D91A34"/>
<path d="M129.884 10.9941C129.739 11.2345 129.522 11.3146 129.232 11.2688C129.437 11.1315 129.642 11.0285 129.884 10.9941Z" fill="#D91A34"/>
<path d="M133.922 14.0286C134.127 13.8798 134.296 14.0858 134.477 14.0858C134.259 14.2918 134.103 14.0744 133.922 14.0286Z" fill="#D91A34"/>
<path d="M135.911 12.1042C135.875 11.9325 135.923 11.8181 136.128 11.8066C136.104 11.944 136.032 12.0356 135.911 12.1042Z" fill="#D91A34"/>
<path d="M97.7748 11.0523C97.5939 11.1095 97.4854 11.0408 97.4492 10.8691C97.5819 10.8806 97.6783 10.9607 97.7748 11.0523Z" fill="#D91A34"/>
<path d="M98.0749 11.2702C97.894 11.2931 97.7734 11.2473 97.7734 11.0527C97.894 11.0985 98.0025 11.1557 98.0749 11.2702Z" fill="#D91A34"/>
<path d="M135.177 13.1229C135.152 12.9741 135.189 12.8825 135.37 12.8711C135.309 12.9512 135.249 13.0313 135.177 13.1229Z" fill="#D91A34"/>
<path d="M134.997 13.3871C134.948 13.2383 135.009 13.1696 135.165 13.1582C135.105 13.2269 135.057 13.307 134.997 13.3871Z" fill="#D91A34"/>
<path d="M136.129 11.8188C136.081 11.67 136.142 11.6013 136.298 11.5898C136.238 11.6585 136.19 11.7386 136.129 11.8188Z" fill="#D91A34"/>
<path d="M135.707 12.4018C135.683 12.2988 135.683 12.2072 135.84 12.2301C135.791 12.2873 135.755 12.3446 135.707 12.4018Z" fill="#D91A34"/>
<path d="M99.1364 12.4253C98.9917 12.4253 98.9917 12.3452 99.0159 12.2422C99.052 12.2994 99.0882 12.3681 99.1364 12.4253Z" fill="#D91A34"/>
<path d="M135.574 12.5738C135.574 12.4822 135.586 12.4021 135.707 12.3906C135.671 12.4479 135.622 12.5165 135.574 12.5738Z" fill="#D91A34"/>
<path d="M135.369 12.8726C135.369 12.781 135.381 12.7009 135.502 12.6895C135.454 12.7467 135.417 12.8039 135.369 12.8726Z" fill="#D91A34"/>
<path d="M134.658 13.857C134.658 13.7654 134.67 13.6853 134.791 13.6738C134.743 13.7311 134.694 13.7883 134.658 13.857Z" fill="#D91A34"/>
<path d="M134.779 13.6733C134.755 13.5703 134.755 13.4787 134.912 13.5016C134.864 13.5588 134.827 13.6161 134.779 13.6733Z" fill="#D91A34"/>
<path d="M98.5583 11.6823C98.4739 11.6708 98.3895 11.6479 98.4015 11.5449C98.4498 11.5907 98.498 11.6365 98.5583 11.6823Z" fill="#D91A34"/>
<path d="M136.299 11.5894C136.299 11.4978 136.323 11.4291 136.431 11.4062C136.383 11.4635 136.347 11.5207 136.299 11.5894Z" fill="#D91A34"/>
<path d="M97.4491 10.8684C97.3406 10.8913 97.2562 10.8798 97.2441 10.7539C97.3165 10.7997 97.3889 10.834 97.4491 10.8684Z" fill="#D91A34"/>
<path d="M129.244 11.2578C129.208 11.3723 129.124 11.3837 129.027 11.3494C129.076 11.2693 129.172 11.2693 129.244 11.2578Z" fill="#D91A34"/>
<path d="M136.635 11.12C136.623 11.017 136.611 10.9369 136.768 10.9484C136.72 11.0056 136.684 11.0628 136.635 11.12Z" fill="#D91A34"/>
<path d="M136.516 11.3042C136.516 11.2127 136.528 11.1325 136.648 11.1211C136.6 11.1783 136.552 11.2356 136.516 11.3042Z" fill="#D91A34"/>
<path d="M98.932 12.1173C98.7753 12.1516 98.7874 12.0486 98.7994 11.957C98.8356 12.0028 98.8838 12.06 98.932 12.1173Z" fill="#D91A34"/>
<path d="M98.4015 11.5444C98.3291 11.5444 98.293 11.5215 98.293 11.4414C98.3291 11.4757 98.3653 11.5101 98.4015 11.5444Z" fill="#D91A34"/>
<path d="M98.7026 11.8522C98.6182 11.8408 98.582 11.7835 98.582 11.7148C98.6182 11.7606 98.6664 11.8064 98.7026 11.8522Z" fill="#D91A34"/>
<path d="M135.839 12.2199C135.815 12.1513 135.839 12.1169 135.911 12.1055C135.899 12.1398 135.863 12.1741 135.839 12.2199Z" fill="#D91A34"/>
<path d="M98.8 11.9563C98.7276 11.9448 98.6914 11.9105 98.6914 11.8418C98.7276 11.8876 98.7638 11.9219 98.8 11.9563Z" fill="#D91A34"/>
<path d="M136.418 11.4191C136.454 11.3848 136.478 11.339 136.514 11.3047C136.478 11.339 136.454 11.3734 136.418 11.4191Z" fill="#D91A34"/>
<path d="M135.49 12.6884C135.526 12.6426 135.55 12.6083 135.587 12.5625C135.55 12.6083 135.526 12.6541 135.49 12.6884Z" fill="#D91A34"/>
<path d="M128.291 11.7383C128.291 11.7612 128.291 11.7841 128.291 11.807C128.267 11.7955 128.255 11.7841 128.23 11.7612C128.243 11.7497 128.267 11.7383 128.291 11.7383Z" fill="#D91A34"/>
<path d="M98.185 11.3494C98.1127 11.3608 98.0765 11.3265 98.0645 11.2578C98.1127 11.2922 98.1489 11.3265 98.185 11.3494Z" fill="#D91A34"/>
<path d="M134.911 13.4897C134.887 13.4211 134.911 13.3867 134.996 13.3867C134.971 13.4211 134.947 13.4554 134.911 13.4897Z" fill="#D91A34"/>
<path d="M99.0162 12.2414C98.9439 12.23 98.9077 12.1956 98.9439 12.127C98.968 12.1727 98.9921 12.2071 99.0162 12.2414Z" fill="#D91A34"/>
<path d="M134.49 14.0734C134.466 14.0048 134.502 13.9704 134.574 13.959C134.55 13.9933 134.514 14.0391 134.49 14.0734Z" fill="#D91A34"/>
<path d="M98.2921 11.4526C98.2198 11.4641 98.1836 11.4297 98.1836 11.3496C98.2198 11.3839 98.2559 11.4183 98.2921 11.4526Z" fill="#D91A34"/>
<path d="M90.5996 18.0332C91.2628 18.0332 91.9139 18.0332 92.577 18.0332C91.9139 18.2278 91.2507 18.2278 90.5996 18.0332Z" fill="#D91A34"/>
</svg>
