<svg width="160" height="29" viewBox="0 0 160 29" fill="none" xmlns="http://www.w3.org/2000/svg">
<path d="M99.1798 18.8263C99.1798 21.262 99.1798 23.564 99.1798 25.8661C99.1798 26.4622 99.1798 26.4622 98.5582 26.4622C97.4705 26.4622 96.3828 26.4519 95.295 26.4724C94.9946 26.4724 94.8496 26.4313 94.8496 26.0716C94.86 19.9773 94.86 13.883 94.8496 7.78874C94.8496 7.48042 94.9118 7.34682 95.264 7.3571C96.3724 7.37765 97.4705 7.37765 98.579 7.3571C98.869 7.3571 98.9726 7.42904 98.9519 7.7168C98.9312 8.08677 98.9415 8.46702 98.9415 8.91921C99.3456 8.56979 99.6667 8.2101 100.06 7.95317C102.754 6.12385 106.525 6.97685 108.244 9.78249C109.84 12.3723 109.653 16.0001 107.799 18.3947C105.996 20.7276 102.536 21.3339 100.143 19.741C99.8117 19.5251 99.5113 19.2477 99.1798 18.8263ZM105.168 13.8214C105.219 12.0023 103.966 10.5327 102.319 10.4916C100.454 10.4402 99.0348 11.8071 98.9933 13.6981C98.9519 15.5171 100.299 17.0381 101.987 17.0998C103.79 17.1717 105.105 15.8151 105.168 13.8214Z" fill="#242021"/>
<path d="M45.1019 9.17612C45.796 8.13814 46.6144 7.47013 47.7021 7.18237C50.3541 6.47325 53.0268 7.62428 53.6484 10.7588C53.7623 11.324 53.8141 11.8995 53.8141 12.4751C53.8141 14.921 53.8038 17.3567 53.8245 19.8026C53.8245 20.152 53.7416 20.2445 53.3791 20.2342C52.2292 20.2137 51.0793 20.2034 49.9294 20.2342C49.5357 20.2445 49.4632 20.1006 49.4632 19.7512C49.4736 17.5005 49.4632 15.2396 49.4736 12.9786C49.4736 12.3928 49.4114 11.807 49.111 11.3035C48.4273 10.1216 46.4797 10.2244 45.7546 11.4576C45.4334 12.0023 45.2884 12.5778 45.2884 13.2047C45.2988 15.3835 45.2781 17.5622 45.2988 19.7409C45.2988 20.1315 45.1848 20.2445 44.7911 20.2342C43.6413 20.2137 42.4914 20.2137 41.3415 20.2342C41.0204 20.2342 40.9375 20.1315 40.9375 19.8334C40.9479 15.7946 40.9479 11.7557 40.9375 7.71678C40.9375 7.41874 41.0411 7.3468 41.3208 7.3468C42.4707 7.35708 43.6206 7.35708 44.7808 7.3468C45.0709 7.3468 45.1226 7.44957 45.1123 7.69622C45.0916 8.14841 45.1019 8.59033 45.1019 9.17612Z" fill="#C20130"/>
<path d="M130.404 14.9718C128.985 14.9718 127.566 14.982 126.146 14.9615C125.773 14.9615 125.691 15.0437 125.805 15.4137C126.167 16.575 127.483 17.4383 128.871 17.4074C129.907 17.3869 130.829 17.0683 131.513 16.2667C131.699 16.0509 131.823 16.1228 131.979 16.2256C132.776 16.7291 133.553 17.243 134.361 17.726C134.672 17.911 134.6 18.0446 134.423 18.2604C133.232 19.6889 131.689 20.4083 129.855 20.6139C127.928 20.8297 126.105 20.5522 124.479 19.4731C122.313 18.0446 121.516 15.9378 121.63 13.461C121.733 11.1487 122.686 9.26799 124.696 8.01419C127.244 6.42125 131.191 6.52402 133.336 8.80552C134.537 10.0902 135.055 11.6523 135.138 13.3685C135.159 13.7899 135.118 14.2113 135.149 14.6223C135.169 14.9307 135.045 14.982 134.776 14.9718C133.305 14.9718 131.854 14.9718 130.404 14.9718ZM128.457 12.3306C129.213 12.3306 129.969 12.2997 130.725 12.3408C131.191 12.3614 131.243 12.197 131.171 11.8064C130.922 10.5629 129.917 9.83323 128.498 9.88462C127.141 9.936 125.877 10.9534 125.742 12.0736C125.711 12.3614 125.877 12.3306 126.053 12.3306C126.851 12.3306 127.659 12.3306 128.457 12.3306Z" fill="#242021"/>
<path d="M22.5936 9.1566C23.0183 8.60164 23.3912 8.14945 23.8781 7.8103C26.2711 6.17625 30.5184 6.80315 31.1814 11.0065C31.2436 11.397 31.2747 11.7773 31.2747 12.1678C31.2747 14.7165 31.2643 17.2755 31.285 19.8242C31.285 20.1736 31.2022 20.2764 30.8396 20.2661C29.6897 20.2456 28.5398 20.2456 27.3796 20.2661C27.0377 20.2764 26.9652 20.1633 26.9652 19.8448C26.9756 17.5941 26.9755 15.3331 26.9755 13.0824C26.9755 12.6611 26.903 12.2397 26.7995 11.8389C26.3954 10.3179 24.8312 10.2357 23.8885 10.8215C22.9561 11.4073 22.7593 12.3528 22.7489 13.3496C22.7282 15.4975 22.7282 17.6352 22.7489 19.7831C22.7489 20.1736 22.6557 20.2867 22.262 20.2764C21.1225 20.2456 19.9934 20.2558 18.8538 20.2764C18.5741 20.2764 18.4395 20.2353 18.4395 19.9064C18.4498 15.847 18.4498 11.7978 18.4395 7.73836C18.4395 7.4095 18.5534 7.35811 18.8435 7.35811C19.9623 7.36839 21.0811 7.37866 22.1999 7.35811C22.5211 7.34783 22.6039 7.4506 22.5936 7.75892C22.5728 8.18028 22.5936 8.61191 22.5936 9.1566Z" fill="#C20130"/>
<path d="M71.2404 18.981C70.3184 20.0498 69.1685 20.4711 67.8633 20.5534C66.5891 20.6253 65.3977 20.4095 64.31 19.6901C62.2796 18.3438 62.207 14.9215 64.2789 13.5958C65.5635 12.7736 66.993 12.4961 68.4641 12.3111C69.2099 12.2187 69.9662 12.1981 70.7224 12.2187C71.0747 12.2289 71.1472 12.1056 71.085 11.7665C70.8985 10.7388 70.163 10.153 68.9613 10.1221C67.7907 10.0913 66.7755 10.4921 65.8742 11.1909C65.6153 11.3862 65.4806 11.3965 65.2734 11.1601C64.7347 10.5538 64.1857 9.94742 63.6159 9.3719C63.4087 9.15608 63.4709 9.05331 63.6574 8.88888C64.7762 7.91256 66.0918 7.3576 67.5317 7.10067C69.0131 6.83347 70.5049 6.8643 71.9552 7.3576C73.6023 7.92284 74.4518 9.16636 74.8558 10.7696C75.1148 11.787 75.1562 12.8353 75.1666 13.8835C75.1769 15.867 75.1666 17.8608 75.1769 19.8442C75.1769 20.1628 75.1148 20.2759 74.7626 20.2759C73.7266 20.2553 72.6803 20.2553 71.634 20.2759C71.2818 20.2862 71.199 20.1628 71.23 19.8442C71.2611 19.5668 71.2404 19.2687 71.2404 18.981ZM68.5159 17.6963C70.277 17.6963 71.1886 16.8022 71.2404 15.0654C71.2508 14.7571 71.1886 14.5927 70.8364 14.6235C70.3081 14.6646 69.7693 14.6646 69.241 14.716C68.6609 14.7776 68.0808 14.8599 67.5628 15.1271C66.9724 15.4251 66.6512 15.9492 66.703 16.5145C66.7548 17.0592 67.1277 17.4188 67.8218 17.6244C68.0497 17.6963 68.2776 17.6963 68.5159 17.6963Z" fill="#C20130"/>
<path d="M92.7473 7.36735C92.0325 8.30256 91.3902 9.14528 90.748 9.988C89.9399 11.0568 89.1319 12.1359 88.3031 13.1944C88.1063 13.4411 88.127 13.5953 88.3031 13.8213C89.8467 15.8459 91.3902 17.8705 92.9338 19.9054C93.0063 19.9979 93.1099 20.0801 93.1202 20.2651C92.8198 20.2651 92.5194 20.2651 92.2294 20.2651C91.1416 20.2651 90.0436 20.2137 88.9662 20.2856C88.3343 20.3267 87.9924 20.0904 87.6713 19.6073C86.9979 18.5899 86.2831 17.6136 85.589 16.6064C85.4026 16.3392 85.3197 16.3803 85.1435 16.627C84.3666 17.7369 83.5482 18.8263 82.7609 19.9362C82.5952 20.1726 82.4191 20.2856 82.1083 20.2753C80.6269 20.2548 79.1455 20.2651 77.5605 20.2651C77.9956 19.6896 78.3789 19.1654 78.7726 18.6618C80.026 17.0381 81.2692 15.4143 82.533 13.8008C82.7091 13.5747 82.6988 13.4411 82.5227 13.2047C81.0413 11.2932 79.5702 9.3611 78.0992 7.43929C78.1924 7.29541 78.3271 7.36735 78.4411 7.36735C79.85 7.35707 81.2484 7.37762 82.6573 7.35707C82.9681 7.35707 83.1235 7.47012 83.2892 7.71677C83.9833 8.7342 84.7085 9.73107 85.4543 10.7999C85.9619 10.101 86.4281 9.43304 86.9046 8.77531C86.9979 8.65198 87.1015 8.52866 87.174 8.38478C87.578 7.49067 88.2721 7.27485 89.2252 7.34679C90.3543 7.42901 91.4939 7.36735 92.7473 7.36735Z" fill="#242021"/>
<path d="M143.093 6.95712C144.398 6.99823 146.045 7.36821 147.465 8.45758C147.713 8.65284 147.838 8.78644 147.516 9.08448C146.885 9.67027 146.284 10.2972 145.704 10.9344C145.507 11.1502 145.372 11.1296 145.175 10.9652C144.44 10.3588 143.601 10.0094 142.627 10.03C142.337 10.03 142.057 10.0814 141.798 10.1944C141.415 10.3588 141.135 10.6055 141.145 11.068C141.156 11.5099 141.425 11.736 141.798 11.8798C142.679 12.2293 143.632 12.3218 144.523 12.6198C145.424 12.9281 146.263 13.3495 146.885 14.0894C148.045 15.4665 147.827 18.005 146.481 19.2177C145.331 20.2557 143.932 20.6256 142.451 20.677C140.493 20.749 138.639 20.3276 137.012 19.1766C136.37 18.7244 136.37 18.7141 136.929 18.1489C137.458 17.6144 137.986 17.08 138.483 16.5148C138.732 16.227 138.877 16.1962 139.177 16.4737C139.923 17.1725 140.824 17.5631 141.85 17.6144C142.316 17.635 142.762 17.5733 143.155 17.2856C143.663 16.9053 143.684 16.1962 143.186 15.8057C142.71 15.4357 142.13 15.3432 141.57 15.1891C140.762 14.9732 139.944 14.8191 139.198 14.4286C137.489 13.555 136.805 11.9312 137.344 10.1019C137.758 8.70423 138.773 7.89234 140.068 7.38876C140.887 7.07017 141.757 6.93657 143.093 6.95712Z" fill="#242021"/>
<path d="M154.891 6.94531C156.684 7.00697 158.3 7.36667 159.708 8.41493C160.03 8.66158 160.133 8.81574 159.771 9.14461C159.191 9.66874 158.652 10.2443 158.123 10.8198C157.875 11.087 157.719 11.1692 157.378 10.8814C156.549 10.2031 155.575 9.87428 154.477 10.0695C154.342 10.0901 154.197 10.1312 154.073 10.1826C153.71 10.347 153.451 10.5937 153.451 11.0356C153.451 11.4878 153.721 11.7241 154.094 11.868C154.974 12.2174 155.927 12.2997 156.818 12.608C157.564 12.8649 158.248 13.2349 158.869 13.7385C160.496 15.0642 160.382 18.3734 158.134 19.73C156.362 20.7885 154.446 20.8605 152.478 20.5008C151.235 20.2747 150.105 19.7916 149.101 19.0209C148.821 18.8051 148.717 18.6612 149.049 18.3529C149.67 17.7773 150.24 17.1504 150.799 16.5133C151.048 16.2358 151.203 16.1947 151.494 16.4722C152.25 17.1813 153.161 17.5718 154.208 17.6129C154.705 17.6335 155.181 17.5615 155.565 17.1916C155.979 16.7805 155.958 16.1536 155.492 15.8041C154.881 15.352 154.135 15.2595 153.42 15.0745C152.778 14.91 152.146 14.7456 151.545 14.4476C149.349 13.3479 148.779 10.6553 150.354 8.77463C151.317 7.6236 152.633 7.17141 154.083 6.9967C154.373 6.95559 154.674 6.95559 154.891 6.94531Z" fill="#242021"/>
<path d="M6.97084 22.3001C6.76365 22.1871 6.80508 21.9713 6.75328 21.7966C6.111 19.6384 5.05433 17.6857 3.88373 15.7742C2.92031 14.2224 1.90512 12.7013 1.10745 11.057C0.403012 9.59767 -0.0735271 8.06639 0.00934751 6.42206C0.175097 3.05118 2.20552 0.543573 5.74841 0.0811049C7.62345 -0.165545 9.40524 0.13249 10.9695 1.22186C13.0932 2.70176 13.8701 4.80856 13.7251 7.31616C13.5697 9.99848 12.2748 12.2183 10.8659 14.3868C9.28093 16.8327 7.90314 19.3814 7.03295 22.1665C7.03295 22.2282 7.00192 22.259 6.97084 22.3001ZM12.6063 6.94619C12.6685 4.01722 10.1511 1.41712 7.21945 1.32463C3.9977 1.22186 1.50107 3.68836 1.33532 6.58649C1.14885 9.88543 3.74905 12.4239 6.67038 12.5164C9.99572 12.6294 12.5338 10.2143 12.6063 6.94619Z" fill="#C20130"/>
<path d="M60.8297 14.5204C60.8297 16.6785 60.84 18.8367 60.8193 21.0052C60.809 21.9712 60.6846 22.9373 60.3014 23.8417C59.6073 25.5168 58.2606 26.2568 56.5306 26.4315C55.7329 26.5137 54.9352 26.4829 54.1272 26.3493C53.8371 26.2979 53.7646 26.2054 53.7957 25.9176C53.8786 24.9824 53.9303 24.0472 54.0132 23.1223C54.0236 22.9373 54.0029 22.7112 54.3447 22.7729C55.909 23.0606 56.4995 22.3515 56.5202 20.8819C56.5513 17.5213 56.5306 14.1504 56.5306 10.7898C56.5306 9.77236 56.5409 8.75493 56.5202 7.7375C56.5202 7.43946 56.5927 7.33669 56.9138 7.33669C58.0844 7.35725 59.2447 7.35725 60.4153 7.33669C60.7468 7.32642 60.8297 7.41891 60.8297 7.74778C60.8193 10.019 60.8297 12.2697 60.8297 14.5204Z" fill="#C20130"/>
<path d="M116.055 9.24779C116.573 8.38452 117.143 7.73706 117.972 7.36709C118.687 7.03822 119.443 6.93545 120.23 7.03822C120.5 7.07933 120.551 7.1821 120.541 7.43903C120.479 8.42563 120.437 9.40195 120.406 10.3885C120.396 10.7174 120.344 10.8305 119.94 10.7688C117.568 10.3988 116.159 11.9712 116.221 13.9341C116.273 15.9073 116.221 17.8805 116.242 19.8537C116.242 20.1826 116.159 20.2751 115.828 20.2648C114.657 20.2443 113.497 20.2443 112.326 20.2648C112.036 20.2648 111.953 20.1929 111.953 19.9051C111.963 15.8457 111.963 11.7965 111.953 7.73706C111.953 7.46986 111.995 7.34654 112.305 7.35681C113.445 7.37737 114.574 7.37737 115.714 7.35681C116.024 7.34654 116.086 7.45958 116.076 7.73706C116.045 8.19953 116.055 8.662 116.055 9.24779Z" fill="#242021"/>
<path d="M33.9166 13.8411C33.9166 11.8268 33.927 9.80224 33.9062 7.78793C33.9062 7.42824 33.9995 7.34602 34.3517 7.3563C35.4912 7.37685 36.6204 7.37685 37.7599 7.3563C38.0707 7.3563 38.195 7.3974 38.195 7.74682C38.1846 11.7857 38.1846 15.8246 38.195 19.8635C38.195 20.1924 38.1018 20.2849 37.7703 20.2746C36.6204 20.254 35.4705 20.254 34.3206 20.2746C33.9788 20.2849 33.9062 20.1615 33.9166 19.8532C33.9269 17.8492 33.9166 15.8452 33.9166 13.8411Z" fill="#C20130"/>
<path d="M3.5122 21.622C4.64137 22.2695 5.70842 22.8758 6.76507 23.4822C6.85831 23.5336 6.94117 23.6055 7.06548 23.5233C8.11178 22.9169 9.15804 22.3106 10.194 21.7042C10.2354 21.6837 10.2561 21.6323 10.2976 21.5809C9.71744 21.2315 9.1477 20.8718 8.55722 20.5429C8.03925 20.2552 8.49507 19.9777 8.56759 19.731C8.67118 19.3713 8.90945 19.6591 9.04413 19.7413C9.89359 20.2038 10.7327 20.7074 11.5925 21.1801C11.7893 21.2932 11.8515 21.4165 11.8515 21.6323C11.8411 23.0916 11.8411 24.551 11.8515 26.0001C11.8515 26.2159 11.7686 26.3392 11.5925 26.442C10.1318 27.2744 8.67118 28.0966 7.22087 28.9393C7.05512 29.0318 6.94115 29.0112 6.78576 28.929C5.29402 28.0863 3.8023 27.2436 2.31056 26.4111C2.11373 26.3084 2.07227 26.1645 2.07227 25.9589C2.08262 24.5304 2.08262 23.1122 2.07227 21.6837C2.07227 21.4062 2.17588 21.252 2.40378 21.1287C3.27397 20.6457 4.12343 20.1524 4.99362 19.6694C5.11793 19.5974 5.31474 19.3919 5.38725 19.6899C5.44941 19.9469 5.88453 20.2038 5.47016 20.4813C4.8486 20.8512 4.21664 21.2007 3.5122 21.622ZM2.98392 22.3825C2.98392 23.4822 2.98392 24.4688 2.98392 25.4451C2.98392 25.5992 3.02533 25.702 3.17036 25.7842C4.1545 26.3392 5.12826 26.9044 6.10204 27.48C6.38174 27.6444 6.47497 27.6033 6.46461 27.2641C6.44389 26.4111 6.45425 25.5479 6.46461 24.6949C6.46461 24.4893 6.41283 24.3557 6.216 24.2427C5.18006 23.6569 4.15452 23.0608 2.98392 22.3825Z" fill="#242021"/>
<path d="M36.0691 5.58962C34.7121 5.58962 33.6139 4.57219 33.6036 3.28755C33.5932 1.97209 34.6706 0.934105 36.0484 0.923828C37.4469 0.923828 38.5139 1.94126 38.5036 3.267C38.5036 4.57219 37.4262 5.58962 36.0691 5.58962Z" fill="#C20130"/>
<path d="M58.6744 5.58919C57.2655 5.57891 56.2296 4.54092 56.2503 3.1638C56.2607 1.92027 57.3691 0.923395 58.7365 0.933673C60.0936 0.94395 61.171 1.99221 61.1503 3.28712C61.1296 4.57176 60.0315 5.59946 58.6744 5.58919Z" fill="#C20130"/>
<path d="M11.9849 6.94631C11.9227 9.78278 9.65399 11.9204 6.7741 11.8587C4.09103 11.7971 1.92594 9.5053 1.96738 6.78187C2.01918 4.02762 4.29826 1.86944 7.12636 1.92082C9.81978 1.96193 12.0367 4.26399 11.9849 6.94631ZM6.9606 8.22066C7.77899 8.22066 8.59734 8.22066 9.41573 8.22066C10.4102 8.22066 11.1457 7.54238 11.1768 6.59689C11.2183 5.68223 10.4931 4.87034 9.51932 4.84979C7.82039 4.81895 6.13186 4.81895 4.43293 4.84979C3.45916 4.87034 2.72361 5.6514 2.74433 6.56606C2.76505 7.52182 3.52127 8.22066 4.54685 8.22066C5.35487 8.22066 6.15257 8.22066 6.9606 8.22066Z" fill="#242021"/>
<path d="M3.80078 6.54435C3.80078 6.00994 4.21512 5.58858 4.75381 5.5783C5.33393 5.56803 5.78974 5.99966 5.78974 6.5649C5.78974 7.08903 5.31324 7.5515 4.78492 7.54122C4.21515 7.52067 3.80078 7.09931 3.80078 6.54435ZM5.18892 6.0716C5.15784 5.86606 5.04389 5.75301 4.82634 5.75301C4.56736 5.75301 4.45341 5.89689 4.46377 6.13327C4.47413 6.33881 4.59843 6.48269 4.81598 6.48269C5.0646 6.46213 5.17856 6.31825 5.18892 6.0716Z" fill="#242021"/>
<path d="M9.0124 7.48161C8.43228 7.48161 8.03866 7.07053 8.05937 6.50529C8.06973 5.9606 8.51515 5.52897 9.0642 5.53924C9.58217 5.54952 10.038 6.02226 10.038 6.54639C10.038 7.0808 9.58217 7.49189 9.0124 7.48161ZM9.0642 5.71395C8.88809 5.74478 8.73272 5.827 8.72236 6.0531C8.70164 6.26891 8.81561 6.41279 9.04351 6.43335C9.29213 6.4539 9.43716 6.33058 9.44751 6.0942C9.45787 5.86811 9.31282 5.75506 9.0642 5.71395Z" fill="#242021"/>
</svg>
