<svg width="146" height="49" viewBox="0 0 146 49" fill="none" xmlns="http://www.w3.org/2000/svg">
<path fill-rule="evenodd" clip-rule="evenodd" d="M32.2099 10.2884C32.184 10.2574 32.1618 10.2185 32.1322 10.1856L24.4753 1.87799C24.0147 1.37661 23.2681 1.37661 22.8092 1.87799C22.3445 2.37848 22.3445 3.18961 22.8092 3.68496L26.071 7.2335V9.49331H23.7118V12.0528H29.4747C31.2112 12.0528 32.6265 13.5834 32.6265 15.474V31.6431C32.6265 32.2048 32.4989 32.7266 32.2759 33.1974L12.1981 11.4137C11.7366 10.9139 10.9915 10.9139 10.5294 11.4137C10.0672 11.9129 10.0672 12.723 10.5294 13.2227L30.4928 34.879C30.1714 34.9976 29.8295 35.0647 29.4747 35.0647H14.57C12.8312 35.0647 11.4136 33.5281 11.4136 31.6431V25.7154H10.2365H10.2349H9.05469V26.9938V30.5893V30.5917V32.0537C9.05469 32.1718 9.07434 32.2867 9.10397 32.402C9.13803 32.6833 9.18916 32.9621 9.26252 33.2331L9.35358 34.4512L10.2683 35.385C10.272 35.3898 10.2797 35.395 10.2849 35.4026C11.2981 36.7568 12.8406 37.6238 14.57 37.6238H29.4747C30.879 37.6238 32.1588 37.0453 33.1343 36.0995C33.1621 36.0739 33.1936 36.053 33.2184 36.0249C33.225 36.0173 33.2325 36.0048 33.2406 35.9919C34.313 34.902 34.9881 33.357 34.9881 31.6431V15.474C34.9881 13.2584 33.8638 11.3236 32.2099 10.2884Z" fill="#FFB003"/>
<path fill-rule="evenodd" clip-rule="evenodd" d="M23.712 9.49377H14.5698C13.3977 9.49377 12.3149 9.89436 11.4216 10.5725L4.42 2.97487C4.80172 2.80208 5.2176 2.70163 5.65467 2.70163H20.5583C22.2973 2.70163 23.712 4.23826 23.712 6.12326V9.49377ZM23.712 22.2927C23.712 24.1794 22.2973 25.7156 20.5583 25.7156H11.4139V15.4741C11.4139 14.6151 11.7124 13.8294 12.1934 13.2251L12.1982 13.2231C12.1982 13.2208 12.2015 13.2208 12.2015 13.2146C12.7826 12.5036 13.624 12.0533 14.5698 12.0533H23.712V22.2927ZM9.05455 15.4741V25.7156H5.65467C3.91523 25.7156 2.50317 24.1794 2.50317 22.2927V6.12326C2.50317 5.65078 2.59135 5.19605 2.75278 4.78497L9.81747 12.4517C9.33636 13.3361 9.05455 14.3689 9.05455 15.4741ZM20.5583 0.142578H5.65467C4.23737 0.142578 2.95095 0.731136 1.97144 1.69004C1.89139 1.74071 1.81104 1.80054 1.7385 1.87845C1.66925 1.95725 1.61184 2.04041 1.564 2.1316C0.684088 3.19219 0.138672 4.59019 0.138672 6.12326V22.2927C0.138672 23.8311 0.684088 25.2287 1.564 26.2901C1.62141 26.3905 1.67851 26.4809 1.76072 26.5632L9.45273 34.5611V34.5485C9.66232 34.7494 9.93302 34.8735 10.2348 34.8735C10.8855 34.8735 11.4139 34.3052 11.4139 33.5969V28.2751H20.5583C23.5983 28.2751 26.0713 25.5902 26.0713 22.2927V6.12326C26.0713 2.82575 23.5983 0.142578 20.5583 0.142578Z" fill="#FF434F"/>
<path fill-rule="evenodd" clip-rule="evenodd" d="M49.3396 44.4159C50.1262 44.4159 50.6167 43.9388 50.6167 43.269V43.2507C50.6167 42.4982 50.1177 42.1037 49.3396 42.1037H48.1302V44.4159H49.3396ZM47.0898 41.0762H49.4242C50.8111 41.0762 51.6739 41.9295 51.6739 43.223V43.2415C51.6739 44.682 50.6082 45.4342 49.3058 45.4342H48.1302V47.4986H47.0898V41.0762Z" fill="#5F51A1"/>
<path fill-rule="evenodd" clip-rule="evenodd" d="M55.3018 45.755V45.4247C55.0396 45.3146 54.6929 45.232 54.2869 45.232C53.6272 45.232 53.2382 45.5349 53.2382 46.0395V46.0579C53.2382 46.5258 53.6187 46.7919 54.1093 46.7919C54.7859 46.7919 55.3018 46.3698 55.3018 45.755ZM52.2402 46.1037V46.0854C52.2402 45.0394 52.9929 44.5256 54.0839 44.5256C54.5829 44.5256 54.9381 44.6082 55.2848 44.7274V44.6082C55.2848 43.9201 54.8958 43.553 54.1769 43.553C53.678 43.553 53.3059 43.6723 52.8999 43.8558L52.6292 42.9843C53.1197 42.7457 53.6019 42.5898 54.3123 42.5898C54.9804 42.5898 55.4794 42.7824 55.7924 43.131C56.1222 43.4797 56.2744 43.9934 56.2744 44.6266V47.4983H55.2764V46.8927C54.9719 47.2874 54.5068 47.5991 53.8217 47.5991C52.9844 47.5991 52.2402 47.0762 52.2402 46.1037Z" fill="#5F51A1"/>
<path fill-rule="evenodd" clip-rule="evenodd" d="M57.502 40.8008H58.5253V44.801L60.3775 42.6541H61.6207L59.8447 44.6267L61.6799 47.4985H60.4791L59.1596 45.3974L58.5253 46.1131V47.4985H57.502V40.8008Z" fill="#5F51A1"/>
<path fill-rule="evenodd" clip-rule="evenodd" d="M65.2815 44.7364C65.2138 44.0207 64.8249 43.461 64.1481 43.461C63.5223 43.461 63.0825 43.984 62.9895 44.7364H65.2815ZM61.9746 45.0941V45.0758C61.9746 43.6904 62.8795 42.5527 64.1566 42.5527C65.5775 42.5527 66.2964 43.7639 66.2964 45.1583C66.2964 45.2595 66.2879 45.3602 66.2795 45.4704H62.9979C63.1079 46.2595 63.6238 46.6999 64.2835 46.6999C64.7825 46.6999 65.1378 46.498 65.4929 46.1218L66.0935 46.6999C65.6705 47.2503 65.087 47.6082 64.2667 47.6082C62.9726 47.6082 61.9746 46.5897 61.9746 45.0941Z" fill="#5F51A1"/>
<path fill-rule="evenodd" clip-rule="evenodd" d="M67.5395 46.1594V43.6087H66.9727V42.6547H67.5395V41.3242H68.5628V42.6547H69.7637V43.6087H68.5628V45.985C68.5628 46.4163 68.7658 46.5907 69.1125 46.5907C69.3409 46.5907 69.5439 46.5355 69.7468 46.4255V47.3337C69.4931 47.4897 69.214 47.5816 68.825 47.5816C68.0722 47.5816 67.5395 47.2236 67.5395 46.1594Z" fill="#5F51A1"/>
<path fill-rule="evenodd" clip-rule="evenodd" d="M70.8047 42.6537H71.828V43.3876C72.1155 42.9565 72.5046 42.5527 73.1898 42.5527C73.8325 42.5527 74.2891 42.8923 74.526 43.4059C74.8813 42.8923 75.3549 42.5527 76.0316 42.5527C77.0042 42.5527 77.5961 43.2225 77.5961 44.406V47.4981H76.5729V44.7456C76.5729 43.975 76.2428 43.5621 75.6679 43.5621C75.1097 43.5621 74.712 43.984 74.712 44.764V47.4981H73.6887V44.7364C73.6887 43.984 73.3504 43.5621 72.7838 43.5621C72.2172 43.5621 71.828 44.0207 71.828 44.764V47.4981H70.8047V42.6537Z" fill="#5F51A1"/>
<path fill-rule="evenodd" clip-rule="evenodd" d="M78.7891 45.7371V42.6543H79.8124V45.4068C79.8124 46.159 80.1591 46.5811 80.7681 46.5811C81.3603 46.5811 81.7746 46.1408 81.7746 45.3884V42.6543H82.8065V47.4986H81.7746V46.7462C81.487 47.2049 81.0726 47.5995 80.3791 47.5995C79.3727 47.5995 78.7891 46.8654 78.7891 45.7371Z" fill="#5F51A1"/>
<path fill-rule="evenodd" clip-rule="evenodd" d="M86.3418 46.5628L86.9677 45.7553C87.5343 46.2875 88.1094 46.5904 88.8368 46.5904C89.4795 46.5904 89.8855 46.2601 89.8855 45.7829V45.7646C89.8855 45.3057 89.6487 45.0582 88.5492 44.7828C87.2891 44.4525 86.5786 44.0488 86.5786 42.8652V42.8469C86.5786 41.7459 87.4243 40.9844 88.5999 40.9844C89.4626 40.9844 90.1477 41.2689 90.7481 41.7918L90.19 42.645C89.6572 42.2138 89.1243 41.9845 88.583 41.9845C87.974 41.9845 87.6189 42.324 87.6189 42.746V42.7644C87.6189 43.2597 87.8896 43.48 89.0313 43.7737C90.283 44.104 90.9257 44.5902 90.9257 45.6544V45.6729C90.9257 46.8748 90.0547 47.5903 88.8114 47.5903C87.9064 47.5903 87.0521 47.2509 86.3418 46.5628Z" fill="#5F51A1"/>
<path fill-rule="evenodd" clip-rule="evenodd" d="M95.0941 44.7364C95.0265 44.0207 94.6375 43.461 93.9607 43.461C93.335 43.461 92.8952 43.984 92.8021 44.7364H95.0941ZM91.7871 45.0941V45.0758C91.7871 43.6904 92.6921 42.5527 93.9693 42.5527C95.3902 42.5527 96.109 43.7639 96.109 45.1583C96.109 45.2595 96.1005 45.3602 96.0921 45.4704H92.8105C92.9204 46.2595 93.4365 46.6999 94.0962 46.6999C94.5951 46.6999 94.9504 46.498 95.3055 46.1218L95.9061 46.6999C95.4831 47.2503 94.8996 47.6082 94.0793 47.6082C92.7853 47.6082 91.7871 46.5897 91.7871 45.0941Z" fill="#5F51A1"/>
<path fill-rule="evenodd" clip-rule="evenodd" d="M97.1406 40.8008H98.164V43.3972C98.4514 42.9476 98.866 42.5531 99.5596 42.5531C100.566 42.5531 101.149 43.2871 101.149 44.4065V47.4985H100.126V44.746C100.126 43.9935 99.7793 43.5624 99.1704 43.5624C98.5785 43.5624 98.164 44.012 98.164 44.7644V47.4985H97.1406V40.8008Z" fill="#5F51A1"/>
<path fill-rule="evenodd" clip-rule="evenodd" d="M105.151 45.755V45.4247C104.889 45.3146 104.542 45.232 104.137 45.232C103.477 45.232 103.088 45.5349 103.088 46.0395V46.0579C103.088 46.5258 103.468 46.7919 103.959 46.7919C104.636 46.7919 105.151 46.3698 105.151 45.755ZM102.09 46.1037V46.0854C102.09 45.0394 102.842 44.5256 103.934 44.5256C104.433 44.5256 104.788 44.6082 105.135 44.7274V44.6082C105.135 43.9201 104.746 43.553 104.027 43.553C103.528 43.553 103.155 43.6723 102.749 43.8558L102.479 42.9843C102.969 42.7457 103.451 42.5898 104.162 42.5898C104.83 42.5898 105.329 42.7824 105.642 43.131C105.972 43.4797 106.124 43.9934 106.124 44.6266V47.4983H105.126V46.8927C104.822 47.2874 104.356 47.5991 103.671 47.5991C102.834 47.5991 102.09 47.0762 102.09 46.1037Z" fill="#5F51A1"/>
<path fill-rule="evenodd" clip-rule="evenodd" d="M107.35 42.6542H108.373V43.7459C108.652 43.0211 109.168 42.5257 109.955 42.5625V43.7368H109.895C108.999 43.7368 108.373 44.3698 108.373 45.6544V47.4985H107.35V42.6542Z" fill="#5F51A1"/>
<path fill-rule="evenodd" clip-rule="evenodd" d="M110.902 47.498H111.925V42.6537H110.902V47.498ZM110.859 41.9105H111.959V40.8555H110.859V41.9105Z" fill="#5F51A1"/>
<path fill-rule="evenodd" clip-rule="evenodd" d="M115.52 46.5628L116.145 45.7553C116.712 46.2875 117.287 46.5904 118.014 46.5904C118.657 46.5904 119.063 46.2601 119.063 45.7829V45.7646C119.063 45.3057 118.826 45.0582 117.727 44.7828C116.467 44.4525 115.756 44.0488 115.756 42.8652V42.8469C115.756 41.7459 116.602 40.9844 117.778 40.9844C118.64 40.9844 119.325 41.2689 119.926 41.7918L119.368 42.645C118.835 42.2138 118.302 41.9845 117.761 41.9845C117.152 41.9845 116.797 42.324 116.797 42.746V42.7644C116.797 43.2597 117.067 43.48 118.209 43.7737C119.461 44.104 120.104 44.5902 120.104 45.6544V45.6729C120.104 46.8748 119.232 47.5903 117.989 47.5903C117.084 47.5903 116.23 47.2509 115.52 46.5628Z" fill="#5F51A1"/>
<path fill-rule="evenodd" clip-rule="evenodd" d="M123.978 45.755V45.4247C123.716 45.3146 123.369 45.232 122.963 45.232C122.303 45.232 121.914 45.5349 121.914 46.0395V46.0579C121.914 46.5258 122.295 46.7919 122.785 46.7919C123.462 46.7919 123.978 46.3698 123.978 45.755ZM120.916 46.1037V46.0854C120.916 45.0394 121.669 44.5256 122.76 44.5256C123.259 44.5256 123.614 44.6082 123.961 44.7274V44.6082C123.961 43.9201 123.572 43.553 122.853 43.553C122.354 43.553 121.982 43.6723 121.576 43.8558L121.305 42.9843C121.796 42.7457 122.278 42.5898 122.988 42.5898C123.656 42.5898 124.155 42.7824 124.468 43.131C124.798 43.4797 124.95 43.9934 124.95 44.6266V47.4983H123.952V46.8927C123.648 47.2874 123.183 47.5991 122.498 47.5991C121.66 47.5991 120.916 47.0762 120.916 46.1037Z" fill="#5F51A1"/>
<path fill-rule="evenodd" clip-rule="evenodd" d="M126.176 42.6537H127.199V43.3876C127.487 42.9565 127.876 42.5527 128.561 42.5527C129.204 42.5527 129.66 42.8923 129.897 43.4059C130.252 42.8923 130.726 42.5527 131.402 42.5527C132.375 42.5527 132.967 43.2225 132.967 44.406V47.4981H131.944V44.7456C131.944 43.975 131.614 43.5621 131.039 43.5621C130.481 43.5621 130.083 43.984 130.083 44.764V47.4981H129.06V44.7364C129.06 43.984 128.721 43.5621 128.155 43.5621C127.588 43.5621 127.199 44.0207 127.199 44.764V47.4981H126.176V42.6537Z" fill="#5F51A1"/>
<path fill-rule="evenodd" clip-rule="evenodd" d="M137.789 45.0851V45.0667C137.789 44.1308 137.205 43.516 136.511 43.516C135.818 43.516 135.209 44.1399 135.209 45.0667V45.0851C135.209 46.0116 135.818 46.6356 136.511 46.6356C137.213 46.6356 137.789 46.0392 137.789 45.0851ZM134.211 42.6537H135.234V43.461C135.564 42.9565 136.029 42.5527 136.757 42.5527C137.805 42.5527 138.829 43.4518 138.829 45.0667V45.0851C138.829 46.6906 137.814 47.5988 136.757 47.5988C136.012 47.5988 135.547 47.1951 135.234 46.7456V48.966H134.211V42.6537Z" fill="#5F51A1"/>
<path fill-rule="evenodd" clip-rule="evenodd" d="M142.651 45.755V45.4247C142.389 45.3146 142.042 45.232 141.637 45.232C140.977 45.232 140.588 45.5349 140.588 46.0395V46.0579C140.588 46.5258 140.968 46.7919 141.459 46.7919C142.136 46.7919 142.651 46.3698 142.651 45.755ZM139.59 46.1037V46.0854C139.59 45.0394 140.343 44.5256 141.434 44.5256C141.933 44.5256 142.288 44.6082 142.634 44.7274V44.6082C142.634 43.9201 142.246 43.553 141.527 43.553C141.028 43.553 140.655 43.6723 140.249 43.8558L139.979 42.9843C140.469 42.7457 140.951 42.5898 141.662 42.5898C142.33 42.5898 142.829 42.7824 143.142 43.131C143.472 43.4797 143.624 43.9934 143.624 44.6266V47.4983H142.626V46.8927C142.322 47.2874 141.856 47.5991 141.171 47.5991C140.334 47.5991 139.59 47.0762 139.59 46.1037Z" fill="#5F51A1"/>
<path fill-rule="evenodd" clip-rule="evenodd" d="M144.91 47.498H145.933V42.6537H144.91V47.498ZM144.867 41.9105H145.967V40.8555H144.867V41.9105Z" fill="#5F51A1"/>
<path fill-rule="evenodd" clip-rule="evenodd" d="M56.0896 16.2269C56.0896 14.2303 55.0042 13.0533 53.1307 13.0533C52.1345 13.0533 51.1705 13.1855 50.2021 13.4454V22.9464C51.0483 23.6973 52.0471 24.0906 53.1307 24.0906C55.0042 24.0906 56.0896 22.9464 56.0896 20.9132V16.2269ZM47.0918 12.7898C47.0918 11.8725 47.6351 11.0538 48.4224 10.791C49.9311 10.2664 51.5012 9.94141 53.1307 9.94141C54.9108 9.94141 56.4221 10.5637 57.5108 11.7765C58.5963 12.9549 59.1992 14.5895 59.1992 16.4904V20.6164C59.1992 22.5504 58.6274 24.2553 57.5405 25.4329C56.4525 26.6448 55.1263 27.2045 53.3437 27.2045C52.3482 27.2045 51.1391 26.8099 50.2021 26.3519V32.4801C50.2021 33.431 49.5086 34.1822 48.6653 34.1822C47.7861 34.1822 47.0918 33.431 47.0918 32.4801V12.7898Z" fill="#5F51A1"/>
<path fill-rule="evenodd" clip-rule="evenodd" d="M70.797 19.7647H67.6877C65.0574 19.7647 64.9086 21.3038 64.9086 21.8634C64.9086 22.4515 65.0574 24.089 67.6877 24.089C68.7132 24.089 69.8282 23.9254 70.797 23.6616V19.7647ZM73.9066 24.3529C73.9066 25.2665 73.3611 26.0535 72.5768 26.3508C71.0978 26.9067 69.378 27.2029 67.6877 27.2029C65.8454 27.2029 64.3934 26.7132 63.3676 25.7594C62.3429 24.8084 61.7988 23.4695 61.7988 21.8634C61.7988 20.256 62.3429 19.0146 63.3676 18.0959C64.3934 17.1486 65.8454 16.6537 67.6877 16.6537H70.797V15.5075C70.797 14.1303 69.8594 13.0517 68.2895 13.0517C66.8705 13.0517 66.0854 13.2449 65.0278 13.935C64.7888 14.0994 64.4548 14.2288 64.1815 14.2288C63.3676 14.2288 62.7035 13.573 62.7035 12.7591C62.7035 12.1682 62.9466 11.5777 63.4591 11.2491C65.0911 10.2339 66.5064 9.93945 68.6814 9.93945C72.0632 9.93945 73.9066 12.5933 73.9066 15.5075V24.3529Z" fill="#5F51A1"/>
<path fill-rule="evenodd" clip-rule="evenodd" d="M82.4214 21.3708L79.2192 26.4818C78.9188 26.9413 78.4367 27.2045 77.9541 27.2045C77.1402 27.2045 76.3848 26.4513 76.3848 25.5011C76.3848 25.1736 76.4722 24.8454 76.6543 24.5501L80.6098 18.4907L76.7435 12.5952C76.5647 12.2984 76.4722 11.9742 76.4722 11.6431C76.4722 10.7598 77.168 9.94141 78.0426 9.94141C78.5264 9.94141 79.0126 10.2049 79.3107 10.6617L82.4214 15.6099L85.5317 10.6617C85.835 10.1696 86.348 9.94141 86.8315 9.94141C87.6758 9.94141 88.3695 10.6954 88.3695 11.6431C88.3695 11.9742 88.2792 12.2984 88.0981 12.5952L84.2326 18.4907L88.1892 24.5501C88.4002 24.8454 88.4913 25.1736 88.4913 25.5011C88.4913 26.415 87.7663 27.2045 86.8911 27.2045C86.4079 27.2045 85.9247 26.9771 85.6239 26.4818L82.4214 21.3708Z" fill="#5F51A1"/>
<path fill-rule="evenodd" clip-rule="evenodd" d="M99.5415 17.0458C99.5415 14.3297 98.5146 13.0518 96.5841 13.0518C94.6803 13.0518 93.657 14.2935 93.657 17.0458H99.5415ZM93.657 20.1605C93.657 21.5032 93.8636 22.3866 94.2591 22.975C94.7713 23.6954 95.5565 24.0887 96.5841 24.0887C97.7309 24.0887 98.8193 23.7266 99.8451 23.2394C100.055 23.141 100.265 23.0731 100.479 23.0731C101.233 23.0731 101.957 23.7634 101.957 24.6158C101.957 25.2329 101.716 25.7901 101.171 26.0869C99.724 26.8422 98.1868 27.2026 96.5841 27.2026C94.829 27.2026 93.323 26.5812 92.2024 25.3679C91.1177 24.1843 90.543 22.5493 90.543 20.6149V16.4883C90.543 14.5876 91.1177 12.9526 92.2024 11.775C93.323 10.5623 94.829 9.93945 96.5841 9.93945C98.3635 9.93945 99.8766 10.5623 100.962 11.775C102.047 12.9526 102.652 14.5876 102.652 16.4883V18.0305C102.652 19.2105 101.777 20.1605 100.691 20.1605H93.657Z" fill="#5F51A1"/>
<path fill-rule="evenodd" clip-rule="evenodd" d="M106.064 5.28537C106.064 4.33606 106.76 3.58398 107.635 3.58398C108.48 3.58398 109.175 4.33606 109.175 5.28537V25.4992C109.175 26.4494 108.48 27.2034 107.635 27.2034C106.76 27.2034 106.064 26.4494 106.064 25.4992V5.28537Z" fill="#5F51A1"/>
</svg>
