<svg width="80" height="55" viewBox="0 0 80 55" fill="none" xmlns="http://www.w3.org/2000/svg">
<path d="M79.409 22.654C77.9955 19.9749 76.5627 17.2958 75.1298 14.6168C73.6001 11.7407 72.0704 8.84491 70.5407 5.96884C69.9598 4.86569 69.3789 3.76254 68.7787 2.67908C67.888 1.08345 66.513 0.256089 64.7509 0.0393982C64.6735 0.0393982 64.6155 0.0196991 64.538 0C47.5176 0 30.4972 0 13.4768 0C12.9927 0.0787966 12.5087 0.118195 12.0246 0.275788C9.02325 1.31984 7.1644 3.36855 6.64159 6.57951C6.23496 9.0813 5.86713 11.6028 5.4605 14.1243C4.95706 17.3943 4.45353 20.6644 3.93072 23.9345C3.466 26.9287 3.00124 29.9033 2.53652 32.8976C1.99435 36.4434 1.43281 39.9893 0.890639 43.5351C0.600188 45.3474 0.329215 47.1794 0.0387645 48.9918C0.0387645 49.0312 0.0193634 49.0706 0 49.0903C0 49.4842 0 49.8585 0 50.2525C0.0968168 50.6662 0.154907 51.0996 0.29045 51.5133C0.948804 53.4438 2.73023 54.8227 4.74402 54.9606C5.15065 54.9803 5.55717 55 5.98316 55C22.3452 55 38.7072 55 55.0693 55C57.5478 55 59.5616 53.9756 61.0719 52.0254C64.5573 47.5537 68.004 43.082 71.4701 38.5906C73.7937 35.5963 76.1173 32.5824 78.4409 29.5684C79.3897 28.3274 79.9512 26.9287 79.9899 25.3331C80.048 24.4072 79.8544 23.5011 79.409 22.654ZM12.1214 7.19019C12.0827 6.875 12.1215 6.8356 12.4313 6.8356C13.4382 6.8356 14.4257 6.8356 15.4326 6.8356C16.4976 6.8356 17.5431 6.8356 18.6081 6.8356C18.6081 6.8356 18.6081 6.8356 18.6081 6.8553C20.6025 6.8553 22.597 6.8356 24.5915 6.8553C25.5984 6.875 26.5858 7.01289 27.554 7.32808C28.9288 7.80086 29.7227 8.78582 29.8776 10.2436C30.0906 12.1741 29.8002 14.0652 29.0838 15.8578C28.5804 17.0792 27.6702 17.8671 26.3922 18.202C25.2111 18.5172 23.9911 18.5763 22.7712 18.5566C21.9773 18.5566 21.2029 18.4975 20.4283 18.399C20.1185 18.3596 20.0992 18.3793 20.0411 18.6945C19.8281 20.231 19.6151 21.7479 19.4021 23.2844C19.344 23.6784 19.2859 24.0723 19.2278 24.486C19.2084 24.6633 19.131 24.7224 18.9761 24.7224C17.5819 24.7224 16.1684 24.7224 14.7742 24.7224C14.5999 24.7224 14.5226 24.6633 14.5613 24.4663C14.9873 21.3933 15.4132 18.3005 15.8392 15.2274C15.936 14.5577 16.0329 13.9076 16.1103 13.2378C16.1297 13.0802 16.1877 13.0014 16.3233 12.9423C17.8336 12.2529 19.3633 11.5437 20.8737 10.8345C20.9317 10.7951 21.0092 10.736 21.0673 10.7754C21.1447 10.8345 21.0866 10.933 21.0866 11.0118C20.9123 12.312 20.7381 13.5924 20.5444 14.8925C20.5251 15.0107 20.5057 15.1486 20.6993 15.1486C21.6675 15.1289 22.6356 15.2077 23.6038 15.0895C24.1654 15.0107 24.5721 14.7153 24.7851 14.1834C25.1336 13.2772 25.3079 12.312 25.2111 11.327C25.1724 10.8148 24.9013 10.5193 24.3978 10.3814C24.1074 10.3027 23.8169 10.283 23.5265 10.283C20.8543 10.283 18.1821 10.283 15.51 10.283C13.8641 10.283 12.5087 9.1798 12.1601 7.58417C12.1601 7.46597 12.1407 7.32808 12.1214 7.19019ZM25.4628 44.8746C25.2305 44.8746 25.1723 44.7958 25.1336 44.5792C25.0174 43.3775 24.8818 42.1759 24.7656 40.9742C24.7463 40.7772 24.6494 40.7181 24.4752 40.7181C22.868 40.7181 21.261 40.7181 19.6538 40.7181C19.4602 40.7181 19.3827 40.7969 19.3246 40.9545C18.8599 42.1562 18.3951 43.3578 17.9304 44.5595C17.8529 44.7958 17.7368 44.8746 17.4851 44.8746C16.0522 44.8549 14.6387 44.8746 13.2058 44.8746C12.9154 44.8746 12.9154 44.8746 13.0122 44.6186C14.5806 40.9348 16.1296 37.2511 17.698 33.5476C17.7561 33.4097 17.8336 33.3112 17.9692 33.2521C19.5957 32.5036 21.2222 31.755 22.8488 31.0064C22.9068 30.9867 22.9649 30.9277 23.0036 30.9867C23.0424 31.0261 23.0037 31.1049 22.9843 31.164C22.7907 32.0702 22.4034 32.9173 22.0742 33.784C21.6676 34.8281 21.261 35.8918 20.8544 36.9359C20.7576 37.192 20.7576 37.2117 21.048 37.2117C22.0549 37.2117 23.0617 37.2117 24.0686 37.2117C24.3397 37.2117 24.3591 37.192 24.3398 36.9162C24.2236 35.7342 24.1073 34.5326 23.9718 33.3506C23.8943 32.5824 23.8363 31.8141 23.8169 31.0458C23.8169 30.8686 23.7782 30.7898 23.5845 30.7701C22.0161 30.5928 20.4282 30.7504 18.8598 30.6913C18.2983 30.6716 17.7174 30.7307 17.1559 30.6125C15.7617 30.2973 14.6773 29.0562 14.5418 27.6182C14.5031 27.303 14.5418 27.2636 14.871 27.2636C16.7299 27.2636 18.5887 27.2636 20.4476 27.2636C22.2097 27.2636 23.9912 27.2833 25.7533 27.2439C26.7021 27.2242 27.341 27.9334 27.4572 28.7213C28.1156 33.2324 28.8126 37.7436 29.4904 42.2547C29.6065 43.0426 29.7227 43.8109 29.8389 44.5989C29.8776 44.8549 29.8582 44.8746 29.6065 44.8746C28.2317 44.8746 26.8376 44.8746 25.4628 44.8746ZM38.0683 32.4445C37.7004 35.0645 37.3325 37.6648 36.9452 40.2847C36.7516 41.644 36.5968 43.0229 36.3451 44.3822C35.8997 46.7264 34.6409 48.4993 32.6078 49.6615C32.2592 49.8585 32.2593 49.8585 31.9688 49.6024C31.2911 49.0312 30.6134 48.4402 29.9357 47.8689C29.8001 47.7507 29.7808 47.6916 29.9164 47.534C30.9426 46.5097 31.6978 45.3277 31.9108 43.8503C32.1625 42.1562 32.3949 40.462 32.6273 38.7679C32.9177 36.6601 33.2274 34.5523 33.5179 32.4248C33.5566 32.1884 33.6534 32.1096 33.8664 32.1293C34.5054 32.149 35.1637 32.1293 35.8027 32.1293C36.4611 32.1293 37.139 32.1293 37.7973 32.1293C38.0684 32.1687 38.107 32.2081 38.0683 32.4445ZM38.6879 27.7561C38.6299 28.2486 38.5718 28.741 38.4943 29.2335C38.3975 30.0412 37.9135 30.4746 37.1196 30.4943C36.771 30.4943 36.4224 30.4943 35.9964 30.4943C35.6672 30.4746 35.222 30.5337 34.796 30.4549C34.2151 30.3367 33.9246 30.0018 33.9246 29.4108C33.9246 28.741 34.0213 28.0713 34.1568 27.4212C34.2924 26.8302 34.7378 26.4756 35.3962 26.4559C36.132 26.4362 36.8872 26.4362 37.623 26.4559C38.3975 26.4756 38.7848 26.9484 38.6879 27.7561ZM38.6879 24.683C38.32 24.486 37.894 24.4269 37.4874 24.4072C36.4418 24.3875 35.3767 24.2693 34.3505 24.6239C34.2537 24.6633 34.157 24.6436 34.0795 24.6239C32.2981 24.1117 31.233 22.8116 31.0587 20.9402C31.02 20.6053 31.0007 20.2901 31.0007 19.9552C31.0587 18.399 31.2719 16.8625 31.7947 15.385C32.453 13.553 33.7309 12.4105 35.5898 11.9771C37.4681 11.5437 39.3656 11.5437 41.2632 11.9574C42.0765 12.1347 42.8316 12.4499 43.4513 13.0408C44.1677 13.7106 44.555 14.5577 44.6518 15.5229C44.9035 17.7292 44.5938 19.8764 43.7031 21.9054C43.0061 23.5011 41.7474 24.3875 40.0821 24.7421C40.0241 24.7618 39.9466 24.7618 39.8885 24.7815C39.5012 24.8997 39.1139 24.9194 38.6879 24.683ZM53.9462 32.8582C53.5202 35.8524 53.1136 38.8467 52.6876 41.841C52.5714 42.7471 52.436 43.6533 52.3198 44.5398C52.2811 44.8746 52.2617 44.8746 51.9326 44.8746C51.4678 44.8746 50.9836 44.8746 50.5189 44.8746C50.0154 44.8746 49.5121 44.8746 49.0281 44.8746C48.8344 44.8746 48.7568 44.8155 48.7762 44.6186C48.7762 43.9685 48.7762 43.2987 48.7762 42.6486C48.7762 42.5698 48.8151 42.4713 48.7376 42.4516C48.6602 42.4319 48.6408 42.5304 48.602 42.5698C47.4209 44.1655 45.8331 44.9928 43.8968 45.1504C43.374 45.1898 42.8704 45.1898 42.367 45.0716C41.1471 44.8155 40.5081 43.9882 40.1982 42.8259C40.0046 42.0774 40.0046 41.3288 40.0046 40.5605C40.0433 38.7679 40.2758 36.995 40.8954 35.3009C41.3602 34.0401 42.1153 33.0355 43.3739 32.4642C43.9935 32.1884 44.6324 32.0308 45.2908 31.952C46.0266 31.8732 46.7432 31.8141 47.479 31.8141C49.0087 31.7944 50.5383 31.9717 52.0487 32.1884C52.6102 32.2672 53.1524 32.3657 53.6945 32.4839C53.9075 32.543 53.9656 32.6415 53.9462 32.8582ZM53.6945 24.9785C51.3129 25.0967 48.9505 24.9391 46.5882 24.5451C46.3945 24.5057 46.3365 24.4269 46.3752 24.2299C46.4914 23.5011 46.6076 22.7722 46.7045 22.0433C46.7238 21.8266 46.8206 21.7675 47.0142 21.7675C47.9436 21.7675 48.8731 21.7675 49.8026 21.7675C50.6158 21.7675 51.429 21.7675 52.2423 21.7675C52.7651 21.7675 53.2686 21.7479 53.7721 21.5903C54.0238 21.5115 54.198 21.3736 54.2367 21.0978C54.256 20.9008 54.198 20.7629 54.043 20.6644C53.9075 20.5659 53.7333 20.5068 53.5784 20.4477C52.436 20.0537 51.2741 19.6794 50.1316 19.2855C49.5701 19.1082 49.0473 18.8718 48.5633 18.5172C47.8468 18.005 47.4208 17.2958 47.3046 16.3897C47.1885 15.5032 47.2852 14.6562 47.6531 13.8288C47.9823 13.1196 48.5052 12.6074 49.2217 12.2923C50.0156 11.9377 50.8482 11.7801 51.7002 11.721C53.5009 11.5831 55.2823 11.7013 57.0831 11.8983C57.7221 11.9574 58.3612 12.0362 59.0002 12.1741C59.1745 12.2135 59.2518 12.2726 59.2131 12.4696C59.0969 13.1787 59.0195 13.8879 58.9227 14.5971C58.8839 14.9319 58.8646 14.9319 58.5354 14.9319C56.9282 14.9122 55.3405 14.8925 53.7333 14.9122C53.2299 14.9122 52.7264 14.9122 52.2423 14.991C52.1648 15.0107 52.0681 15.0304 51.9906 15.0501C51.6033 15.188 51.5259 15.6214 51.8357 15.8972C52.0487 16.0942 52.3197 16.173 52.5908 16.2715C53.2879 16.5079 53.985 16.7049 54.7015 16.9413C55.4566 17.1973 56.2506 17.3746 56.967 17.7489C57.8384 18.2217 58.458 18.9112 58.6129 19.9355C58.7872 21.0584 58.6128 22.1418 58.0513 23.1268C57.5672 23.9739 56.7734 24.4072 55.8633 24.6633C55.1275 24.8603 54.411 24.9391 53.6945 24.9785ZM60.3942 43.6533C60.2199 44.4807 59.7552 44.8155 58.7871 44.8746C58.3224 44.8943 57.8577 44.8943 57.3736 44.8352C56.6765 44.7367 56.2893 44.3231 56.2893 43.6139C56.2893 42.9835 56.3667 42.3728 56.5022 41.7622C56.6571 41.0136 57.18 40.6196 57.9352 40.5605C58.1676 40.5408 58.3998 40.5605 58.6322 40.5605C58.9614 40.5605 59.2712 40.5211 59.6004 40.5999C60.2587 40.7575 60.6073 41.1712 60.6073 41.8607C60.6073 42.4516 60.5104 43.0623 60.3942 43.6533ZM62.8146 27.3818C62.5435 29.3714 62.2918 31.361 61.982 33.3506C61.8658 34.1583 61.6528 34.9463 61.4592 35.7539C61.2268 36.798 60.9945 37.842 60.7815 38.8861C60.7427 39.0831 60.646 39.1619 60.433 39.1619C59.4261 39.1619 58.4385 39.1619 57.4316 39.1619C57.1799 39.1619 57.1413 39.1225 57.1607 38.8664C57.2381 37.5072 57.3155 36.1479 57.3736 34.8084C57.4317 33.4491 57.6447 32.0899 57.8384 30.7504C57.9933 29.6472 58.1482 28.5441 58.2837 27.4212C58.3031 27.2045 58.3999 27.1257 58.6129 27.1454C59.2713 27.1454 59.9102 27.1454 60.5685 27.1454C61.2269 27.1454 61.8853 27.1454 62.5436 27.1454C62.8341 27.106 62.8533 27.1257 62.8146 27.3818Z" fill="url(#paint0_linear_404_8279)"/>
<path d="M48.8766 34.9066C48.6249 34.9066 48.3538 34.9066 48.1021 34.9066C47.7341 34.8869 47.3857 34.9066 47.0178 34.9263C46.2432 34.9854 45.6623 35.34 45.3331 36.0885C45.1976 36.4037 45.0814 36.7386 45.0039 37.0735C44.8296 37.8221 44.7329 38.5903 44.6554 39.3586C44.6167 39.7723 44.5587 40.2057 44.5781 40.639C44.6168 41.3285 44.9071 41.6043 45.5848 41.5649C45.9914 41.5452 46.3595 41.3482 46.708 41.1315C47.4051 40.6784 47.9667 40.0678 48.4507 39.3783C48.5088 39.2995 48.5282 39.2207 48.5476 39.1222C48.7412 37.8024 48.9154 36.4825 49.109 35.1627C49.1477 34.9854 49.0509 34.9066 48.8766 34.9066Z" fill="url(#paint1_linear_404_8279)"/>
<path d="M39.1316 14.9715C38.7443 14.8927 38.357 14.8927 37.9698 14.9321C37.1952 15.0109 36.6918 15.4443 36.4207 16.1732C36.3432 16.4096 36.2464 16.6657 36.1883 16.9217C35.9172 17.9658 35.7623 19.0492 35.743 20.1327C35.743 20.3297 35.7236 20.5464 35.743 20.7434C35.8011 21.3147 36.0529 21.6101 36.595 21.748C36.808 21.8071 37.0209 21.8268 37.2533 21.8465C38.4925 21.8662 39.0735 21.5313 39.4608 20.3888C39.5963 19.9554 39.7125 19.522 39.79 19.0886C39.9643 18.1431 40.0998 17.1975 40.0804 16.252C40.0611 15.5034 39.7706 15.0897 39.1316 14.9715Z" fill="url(#paint2_linear_404_8279)"/>
<defs>
<linearGradient id="paint0_linear_404_8279" x1="0.0403145" y1="27.5017" x2="80.0258" y2="27.5017" gradientUnits="userSpaceOnUse">
<stop stop-color="#F6921D"/>
<stop offset="1" stop-color="#F26D28"/>
</linearGradient>
<linearGradient id="paint1_linear_404_8279" x1="44.5693" y1="38.2358" x2="49.1173" y2="38.2358" gradientUnits="userSpaceOnUse">
<stop stop-color="#F6921D"/>
<stop offset="1" stop-color="#F26D28"/>
</linearGradient>
<linearGradient id="paint2_linear_404_8279" x1="35.7545" y1="18.3704" x2="40.0896" y2="18.3704" gradientUnits="userSpaceOnUse">
<stop stop-color="#F6921D"/>
<stop offset="1" stop-color="#F26D28"/>
</linearGradient>
</defs>
</svg>
