<svg width="98" height="61" viewBox="0 0 98 61" fill="none" xmlns="http://www.w3.org/2000/svg">
<path d="M16.2129 26.886C16.3587 26.6237 16.6505 26.5144 16.8692 26.3178C17.8658 25.4873 18.8867 24.7006 19.9076 23.9357C21.5604 22.7119 23.2863 21.5754 24.9877 20.439C25.9843 19.7616 27.078 19.2152 28.0503 18.5159C28.3663 18.2974 28.7551 18.1444 29.0954 17.9477C29.7031 17.598 30.3109 17.2484 30.9429 16.8987C31.745 16.4616 32.5471 16.0464 33.3735 15.653C33.7868 15.4563 34.1757 15.1941 34.5889 14.9974C35.391 14.6259 36.193 14.2762 36.9951 13.8829C38.259 13.2709 39.5472 12.7683 40.8355 12.2001C41.5404 11.8941 42.2212 11.5445 42.9747 11.3041C44.0685 10.9326 45.1623 10.5611 46.2561 10.1458C48.0791 9.4465 49.9749 8.92201 51.8708 8.37566C53.8153 7.80746 55.7842 7.30481 57.7531 6.84588C58.385 6.6929 59.017 6.53992 59.6489 6.38695C60.2566 6.23397 60.9373 6.1247 61.5693 6.01543C62.6145 5.8406 63.6595 5.64391 64.7047 5.46908C66.0172 5.25054 67.3298 5.07571 68.6424 4.87902C69.0799 4.81346 69.5174 4.7479 69.9793 4.70419C70.271 4.68234 70.3439 4.52936 70.3439 4.33267C70.3439 3.23998 70.5384 2.14728 70.5627 1.05458C70.5627 0.770478 70.6356 0.508231 70.6356 0.224129C70.6356 0.00558981 70.7086 -0.081826 70.9273 0.0930057C71.5593 0.595647 72.2156 1.07643 72.8719 1.55722C73.8684 2.2784 74.8405 3.04329 75.8371 3.78633C76.5177 4.28897 77.1984 4.79161 77.8789 5.33796C78.6324 5.92801 79.386 6.49622 80.1639 7.08627C81.4278 8.04785 82.716 9.00942 84.0043 9.94914C84.7092 10.4736 85.4383 10.9981 86.1432 11.5445C86.921 12.1345 87.6989 12.7464 88.501 13.3365C89.1816 13.861 89.8864 14.3418 90.5913 14.8663C91.2719 15.3908 91.9525 15.9371 92.6331 16.4616C93.7512 17.3139 94.8693 18.1662 95.9874 18.9967C96.5708 19.4338 97.1542 19.849 97.7375 20.2861C97.7861 20.3298 97.8104 20.3953 97.8591 20.439C97.8348 20.4609 97.8105 20.5046 97.7862 20.5265C97.2028 20.5046 96.6922 20.2424 96.1331 20.1112C95.3067 19.9364 94.4804 19.8271 93.6783 19.5867C92.5116 19.2371 91.2963 19.0622 90.0809 18.8437C89.3517 18.6907 88.5981 18.6033 87.8689 18.5159C87.0911 18.4066 86.3377 18.2755 85.5842 18.1444C84.6605 17.9914 83.7368 17.8821 82.8131 17.7947C81.5492 17.6636 80.2853 17.5106 79.0214 17.4451C78.2436 17.4013 77.4656 17.3358 76.6878 17.2702C75.1322 17.1609 73.5523 17.1609 71.9967 17.0954C70.7084 17.0298 69.3959 17.0298 68.1076 17.0517C67.0381 17.0735 65.9444 17.0735 64.8749 17.1391C63.854 17.1828 62.8331 17.2265 61.8365 17.3139C60.0135 17.4669 58.1905 17.598 56.3675 17.8384C55.5897 17.9477 54.7876 18.0351 54.0098 18.1444C51.1659 18.5815 48.3221 19.0404 45.5269 19.696C44.2143 20.002 42.9016 20.3079 41.6134 20.6794C40.7383 20.9417 39.8633 21.1602 38.9883 21.4662C37.5299 21.947 36.0472 22.3185 34.6131 22.8648C33.2762 23.3675 31.9637 23.8701 30.6511 24.3946C29.4601 24.8535 28.3663 25.4655 27.1267 25.8588C25.96 25.6403 24.7932 25.4436 23.6022 25.4436C22.5813 25.4436 21.5603 25.531 20.5394 25.6621C19.5429 25.7933 18.6194 26.0337 17.6957 26.3396C17.161 26.4052 16.7233 26.7111 16.2129 26.886Z" fill="#86287F"/>
<path d="M40.8831 44.7188C39.692 44.7188 38.4768 44.7188 37.2857 44.7188C37.0184 44.7188 36.8726 44.8062 36.7754 45.0247C36.1677 46.1393 35.5356 47.2538 34.9279 48.3684C34.7821 48.6306 34.612 48.7181 34.2961 48.6962C32.3272 48.6744 30.3583 48.6962 28.3651 48.6962C28.2436 48.6962 28.0979 48.7618 28.025 48.6306C27.9764 48.5214 28.0735 48.4558 28.1221 48.3684C28.8513 47.1664 29.5563 45.9645 30.2855 44.7625C31.282 43.1234 32.2786 41.4626 33.2751 39.8235C34.3689 38.0096 35.4627 36.1957 36.5565 34.36C37.626 32.5898 38.6956 30.8415 39.7651 29.0932C40.3727 28.1098 40.956 27.1045 41.5394 26.0992C41.6852 25.8588 41.8311 25.7058 42.1957 25.7058C43.7513 25.684 45.2826 25.684 46.8382 25.7058C47.7132 25.7277 47.7376 25.7496 47.8591 26.5363C48.0779 27.7601 48.248 29.0058 48.4668 30.2296C48.6369 31.1475 48.8556 32.0872 48.9771 33.0051C49.123 34.0104 49.3176 35.0156 49.4877 36.0209C49.7065 37.354 49.9495 38.709 50.1683 40.042C50.3384 41.091 50.5086 42.1619 50.7031 43.2109C50.8732 44.2161 51.0677 45.2214 51.2378 46.2267C51.3594 46.926 51.4809 47.6472 51.6024 48.3465C51.6511 48.5869 51.5537 48.6744 51.2621 48.6744C49.3904 48.6525 47.5189 48.6525 45.6473 48.6744C45.3799 48.6744 45.2826 48.5869 45.2583 48.3465C45.1124 47.2101 44.9423 46.0737 44.8208 44.9373C44.7965 44.6751 44.6263 44.6969 44.4562 44.6969C43.2652 44.7188 42.0741 44.7188 40.8831 44.7188ZM43.3137 33.5951C43.1193 33.7044 43.0706 33.8355 43.022 33.9448C41.9282 35.8898 40.8589 37.8566 39.7651 39.8016C39.5949 40.1295 39.5949 40.1295 40.0081 40.1295C41.2235 40.1295 42.4388 40.1076 43.6541 40.1076C44.1889 40.1076 44.2131 40.1076 44.1645 39.6268C44.0186 38.5123 43.8486 37.3759 43.7028 36.2613C43.5569 35.3871 43.4353 34.513 43.3137 33.5951Z" fill="#EC6927"/>
<path d="M63.4413 25.6847C64.924 25.6847 66.4069 25.6628 67.8896 25.6847C69.5425 25.7066 71.1708 25.8595 72.6778 26.537C74.671 27.4549 75.8622 28.8972 76.2268 30.9078C76.324 31.5416 76.3725 32.1753 76.2996 32.8091C76.2024 33.8581 75.9837 34.9071 75.4976 35.8905C75.06 36.8302 74.3794 37.5951 73.6259 38.3381C73.2127 38.7315 72.6536 39.0156 72.1188 39.3216C70.6847 40.1302 69.0806 40.5235 67.4035 40.7421C65.5076 40.9825 63.5873 40.8951 61.6914 40.9169C61.3511 40.9169 61.2294 41.0262 61.1808 41.3103C60.9621 42.3811 60.7433 43.452 60.5245 44.501C60.3544 45.3096 60.1601 46.0963 59.99 46.9049C59.8684 47.4294 59.771 47.932 59.6738 48.4565C59.6252 48.6751 59.4794 48.6751 59.285 48.6751C57.4863 48.6751 55.6875 48.6751 53.8888 48.6751C53.5485 48.6751 53.4514 48.5439 53.5 48.2817C53.6459 47.7791 53.7186 47.2764 53.8402 46.7738C54.0589 45.7466 54.3022 44.6976 54.521 43.6705C54.8126 42.3811 55.08 41.0917 55.3717 39.8024C55.5904 38.7752 55.809 37.7481 56.0278 36.721C56.2222 35.8468 56.4168 34.9945 56.6112 34.1203C56.9029 32.7872 57.1703 31.4541 57.462 30.1211C57.7536 28.788 58.021 27.4549 58.3127 26.1218C58.4099 25.6628 58.4343 25.6191 58.969 25.6191C60.4517 25.6191 61.9343 25.6191 63.4413 25.6191C63.4413 25.6847 63.4413 25.6847 63.4413 25.6847ZM64.5109 36.2839C65.5075 36.3057 66.6741 36.262 67.8165 35.8905C69.7367 35.2786 70.2231 33.5084 69.9557 32.1098C69.7855 31.2356 69.0563 30.8204 68.2056 30.58C66.7715 30.1866 65.2888 30.3396 63.8304 30.3177C63.6845 30.3177 63.6116 30.3833 63.5873 30.5144C63.5144 30.9297 63.3927 31.323 63.3198 31.7382C63.0281 33.1588 62.7366 34.5574 62.4206 35.9779C62.372 36.1965 62.4206 36.262 62.6637 36.262C63.1984 36.2839 63.7574 36.2839 64.5109 36.2839Z" fill="#EC6927"/>
<path d="M84.5392 41.6163C83.9802 42.2719 83.4698 42.8838 82.9593 43.5176C82.0114 44.6758 81.0633 45.8559 80.1396 47.0142C79.7507 47.495 79.386 47.9758 78.9971 48.4566C78.8999 48.5877 78.7786 48.6751 78.5841 48.6751C76.4451 48.6751 74.306 48.6751 72.1671 48.6751C72.1184 48.6751 72.0456 48.697 71.9727 48.6095C72.3373 48.1506 72.7018 47.6698 73.0907 47.2109C73.8685 46.2275 74.6706 45.244 75.4485 44.2824C76.1777 43.3646 76.9312 42.4686 77.6847 41.5507C78.8028 40.1739 79.8481 38.7534 81.0148 37.4422C81.5252 36.8521 81.5737 36.3932 81.2821 35.7157C80.8445 34.6886 80.5042 33.6177 80.1396 32.5469C79.6535 31.1264 79.0946 29.7496 78.5841 28.3509C78.3167 27.6079 78.0492 26.843 77.7818 26.0781C77.6846 25.8159 77.7089 25.7066 78.0735 25.7066C79.9938 25.7284 81.914 25.7066 83.8343 25.7066C84.1016 25.7066 84.2232 25.7503 84.3204 26.0125C84.7822 27.433 85.2928 28.8536 85.7546 30.2741C85.949 30.8204 86.1434 31.3886 86.3136 31.935C86.3379 32.0005 86.3134 32.0879 86.4107 32.1098C86.5079 32.1316 86.5567 32.0442 86.6053 31.9787C87.0914 31.3012 87.6018 30.6456 88.0879 29.9681C89.0845 28.635 90.081 27.3019 91.0776 25.947C91.1991 25.794 91.3208 25.7066 91.5395 25.7066C92.2444 25.7066 92.9492 25.6847 93.6298 25.6847C94.9424 25.6847 96.255 25.6847 97.5675 25.6847C97.7134 25.6847 97.9079 25.641 97.9808 25.7721C98.0537 25.9033 97.9078 26.0125 97.8106 26.1218C96.4737 27.8264 95.1369 29.5092 93.8 31.2138C92.4388 32.9402 91.0776 34.6886 89.7407 36.415C89.7164 36.4369 89.7164 36.4587 89.6921 36.4587C89.3032 36.7865 89.3033 37.1362 89.4735 37.5733C90.1783 39.3216 90.8588 41.0699 91.5637 42.8182C92.2929 44.6758 93.0221 46.5334 93.7513 48.391C93.8486 48.6314 93.7756 48.6751 93.5083 48.6751C91.5637 48.6751 89.6436 48.6751 87.6991 48.6751C87.4804 48.6751 87.3588 48.6314 87.2859 48.4129C86.7025 46.9705 86.0949 45.5281 85.5115 44.0639C85.2198 43.3427 84.928 42.6434 84.6363 41.9222C84.6606 41.8348 84.6122 41.7474 84.5392 41.6163Z" fill="#EC6927"/>
<path d="M16.2126 26.8852C16.723 26.7104 17.1605 26.4045 17.671 26.2515C18.5946 25.9455 19.5183 25.7051 20.5149 25.574C21.5358 25.4429 22.5565 25.3555 23.5774 25.3555C24.7684 25.3555 25.9352 25.5522 27.1019 25.7707C27.8068 26.0329 28.5118 26.2733 29.1437 26.6449C30.1646 27.2349 30.918 28.0217 31.4771 28.9832C31.5986 29.2018 31.5501 29.311 31.3313 29.4422C29.8486 30.2508 28.3903 31.0812 26.9319 31.8898C26.7132 32.0209 26.5429 32.0428 26.4214 31.7587C25.8623 30.6441 24.8414 30.1196 23.5046 30.0104C22.8969 29.9667 22.2893 29.9229 21.6573 29.9885C20.7337 30.0978 19.9557 30.4256 19.4453 31.1249C18.8376 31.9772 18.9837 33.0262 20.0045 33.66C21.0497 34.3156 22.2649 34.6215 23.4559 34.9712C25.2303 35.4957 26.9075 36.1732 28.1228 37.5063C28.852 38.3149 29.2168 39.2764 29.3626 40.3036C29.4841 41.134 29.4112 41.9426 29.2411 42.7294C28.9737 43.9313 28.4632 45.024 27.5638 45.9638C26.2999 47.275 24.6712 48.0399 22.8482 48.4988C20.928 48.9577 18.9835 48.9577 17.0146 48.8703C16.3583 48.8485 15.7021 48.8048 15.0701 48.6518C12.9311 48.1491 11.084 47.2094 9.79574 45.5048C9.60128 45.2426 9.57698 45.0896 9.91727 44.9148C11.0111 44.3247 12.0805 43.7128 13.15 43.1009C13.5389 42.8823 13.9278 42.642 14.3167 42.4016C14.5111 42.2704 14.657 42.2704 14.8028 42.4671C16.0668 44.0406 17.8412 44.434 19.883 44.3029C20.6365 44.2591 21.3413 44.1062 21.9733 43.7565C22.824 43.2539 23.14 42.5108 22.9942 41.6367C22.8727 41.0466 22.3621 40.6969 21.8031 40.4128C20.6607 39.8228 19.3724 39.495 18.1571 39.0579C15.8966 38.2493 13.9764 37.091 13.15 34.9057C13.0285 34.5997 13.0284 34.2719 12.8583 33.9878C12.9312 33.0918 12.8339 32.1958 13.0527 31.2997C13.2228 30.5786 13.5145 29.9229 13.8548 29.2673C14.0249 28.9614 14.3167 28.6991 14.4382 28.3495C14.973 27.8468 15.5563 27.3442 16.2126 26.8852Z" fill="#EC6927"/>
<path d="M14.3886 28.3711C14.267 28.7208 13.9755 28.9612 13.8054 29.289C13.4408 29.9446 13.1732 30.6002 13.0031 31.3214C12.7843 32.2174 12.8816 33.1134 12.8086 34.0094C12.3954 34.1624 12.1038 34.4465 11.7635 34.6869C10.8642 35.3425 9.96481 35.9981 9.08977 36.6756C8.02028 37.5279 6.92658 38.3365 5.9057 39.2107C5.07927 39.9318 4.22835 40.653 3.40192 41.3961C2.52688 42.1828 1.67629 42.9695 0.874171 43.8C0.631104 44.0404 0.412392 44.3463 0.0720983 44.5212C0.0477916 44.4993 0.0477442 44.4775 0.0234375 44.4775C0.144971 44.0404 0.436603 43.6907 0.703977 43.3192C1.82208 41.6583 3.03751 40.0848 4.32576 38.5332C6.00292 36.5226 7.77731 34.5776 9.67323 32.72C10.5483 31.8677 11.3746 30.9936 12.2983 30.185C13.0032 29.5512 13.6837 28.9612 14.3886 28.3711Z" fill="#86287F"/>
<path d="M10.3062 58.6827C9.50411 58.6827 8.7019 58.6608 7.89978 58.6827C7.53518 58.7045 7.46226 58.5953 7.53518 58.2893C7.77824 57.2622 7.9971 56.235 8.24016 55.2297C8.33739 54.8145 8.33739 54.3556 8.48323 53.9622C8.67768 53.4159 8.75065 52.8477 8.89649 52.3013C9.01802 51.7987 9.1152 51.296 9.21243 50.7934C9.26104 50.553 9.35837 50.4219 9.67435 50.4219C11.3029 50.4437 12.9314 50.4437 14.5357 50.4219C14.8517 50.4219 14.9245 50.4874 14.8516 50.7715C14.6572 51.4927 14.6813 51.4927 13.8549 51.4927C12.8583 51.4927 11.8618 51.4927 10.8652 51.4927C10.5736 51.4927 10.4277 51.5583 10.3791 51.8205C10.2576 52.4106 10.1361 53.0006 9.99029 53.5907C9.94168 53.8311 9.99034 53.9185 10.282 53.9185C11.23 53.8967 12.1777 53.9185 13.1257 53.8967C13.4174 53.8967 13.539 53.9404 13.4661 54.2463C13.3203 54.9894 13.3203 55.0112 12.4938 55.0112C11.6674 55.0112 10.8167 55.0112 9.99029 55.0112C9.77153 55.0112 9.64986 55.0549 9.60124 55.2735C9.47971 55.9291 9.33392 56.5847 9.16377 57.2403C9.09085 57.59 9.09094 57.6118 9.50416 57.6118C10.6709 57.6118 11.8619 57.6118 13.0286 57.6118C13.3203 57.6118 13.3933 57.6555 13.3204 57.9396C13.1502 58.7045 13.1744 58.7045 12.3236 58.7045C11.6674 58.6827 10.9868 58.6827 10.3062 58.6827Z" fill="#86287F"/>
<path d="M22.3349 58.093C22.1891 58.7487 22.0677 59.3169 21.9461 59.8851C21.8732 60.2129 21.8002 60.5407 21.7273 60.8685C21.703 60.9996 21.6056 60.9996 21.5084 60.9996C21.2167 60.9996 20.9009 60.9996 20.6093 60.9996C20.3905 60.9996 20.3661 60.9122 20.3904 60.7374C20.6092 59.8632 20.8278 58.9891 21.0223 58.1149C21.1195 57.6778 21.1438 57.2407 21.2653 56.8037C21.4598 56.1262 21.5814 55.4487 21.7273 54.7713C21.8488 54.2468 21.9947 53.7223 22.0677 53.1978C22.1163 52.87 22.262 52.6951 22.6509 52.7607C22.7724 52.7825 22.9183 52.7607 23.0641 52.7607C23.2586 52.7607 23.4773 52.717 23.3801 53.0229C23.3315 53.1978 23.4772 53.1759 23.5745 53.0885C23.9634 52.7607 24.4495 52.717 24.9113 52.6514C25.8836 52.5203 26.7587 53.2852 26.783 54.203C26.8073 55.0116 26.6129 55.7765 26.3942 56.5414C26.1997 57.197 25.9081 57.7871 25.3491 58.2679C24.8143 58.7924 22.9669 58.9891 22.3349 58.093ZM24.5467 53.7441C24.1335 53.7441 23.6475 53.9408 23.4287 54.2686C22.8697 55.1209 22.6753 56.0606 22.7482 57.0222C22.7725 57.4593 23.137 57.6778 23.6231 57.6997C24.2065 57.6997 24.6198 57.4593 24.8871 57.0004C25.3003 56.3229 25.4218 55.558 25.519 54.815C25.5919 54.1593 25.1787 53.7441 24.5467 53.7441Z" fill="#86287F"/>
<path d="M57.6086 58.7275C56.9523 58.7494 56.3691 58.6401 55.8829 58.3341C55.2753 57.9408 54.9108 57.3726 54.8865 56.6951C54.8379 55.8646 55.0322 55.056 55.2266 54.2474C55.3238 53.8104 55.421 53.3514 55.5426 52.9144C55.8585 51.8217 56.4906 50.9256 57.7059 50.5541C58.6539 50.27 59.6748 50.1608 60.6227 50.6852C61.4249 51.1223 61.7409 51.7998 61.7652 52.6302C61.7652 52.7832 61.7166 52.8706 61.5221 52.8488C61.4492 52.8488 61.4007 52.8488 61.3277 52.8488C61.0604 52.8488 60.7929 52.8925 60.5499 52.8269C60.2825 52.7395 60.3797 52.4336 60.3068 52.2369C59.9422 51.319 58.8728 51.2316 58.0463 51.6468C57.2199 52.062 56.9768 52.7832 56.7823 53.5481C56.6122 54.2474 56.4663 54.9468 56.3204 55.6461C56.2475 55.9958 56.2233 56.3454 56.2962 56.6951C56.4664 57.5037 57.2683 57.8096 58.2163 57.613C58.8726 57.4818 59.3101 57.0448 59.6018 56.4984C59.7234 56.2799 59.845 56.1924 60.1124 56.2143C60.4041 56.2362 60.6958 56.2143 60.9631 56.2143C61.109 56.2143 61.1575 56.258 61.1089 56.3891C60.5498 57.7878 59.2372 58.7712 57.6086 58.7275Z" fill="#86287F"/>
<path d="M36.312 56.0825C35.7529 56.0825 35.1938 56.1044 34.6347 56.0825C34.343 56.0825 34.246 56.1918 34.2217 56.4322C34.1731 57.0441 34.5133 57.6123 35.0238 57.6778C35.5828 57.7434 36.1419 57.7434 36.6523 57.4374L36.6766 57.4156C36.8467 57.3282 36.9682 57.0878 37.1627 57.1533C37.4544 57.2845 37.6489 57.5467 37.819 57.809C37.8919 57.9182 37.7704 57.9838 37.6975 58.0275C36.5794 58.7487 35.364 58.9235 34.0757 58.5083C33.5653 58.3553 33.1765 57.9401 33.0792 57.4593C32.8119 56.2355 33.0793 55.0991 33.7356 53.9845C34.2703 53.0448 35.1939 52.717 36.2391 52.6951C36.9926 52.6733 37.7461 52.8481 38.1836 53.5256C38.5482 54.0938 38.5725 54.6838 38.4996 55.3176C38.4996 55.3395 38.4752 55.3832 38.4509 55.405C38.2808 56.0825 38.2808 56.0825 37.5273 56.0825C37.1141 56.0825 36.7009 56.0825 36.312 56.0825ZM35.8016 55.2739C36.1662 55.2739 36.555 55.2739 36.9196 55.2739C37.0169 55.2739 37.1384 55.2958 37.2114 55.1646C37.5273 54.6401 37.0169 53.7441 36.3606 53.6786C35.5585 53.5911 34.489 54.4216 34.489 55.1646C34.489 55.3176 34.6104 55.2958 34.6834 55.2958C35.0723 55.2739 35.437 55.2739 35.8016 55.2739Z" fill="#86287F"/>
<path d="M89.2542 57.8742C88.1847 58.6828 86.9938 58.9451 85.6569 58.5954C85.0735 58.4424 84.6847 58.049 84.4902 57.5464C84.1256 56.6285 84.3687 55.7107 84.6604 54.8147C84.8792 54.159 85.3409 53.6345 85.9 53.1538C86.2402 52.8697 86.6779 52.8259 87.0911 52.7385C87.7474 52.6074 88.3792 52.7385 88.9383 53.0226C89.4487 53.3067 89.7404 53.7875 89.789 54.3339C89.8376 54.8365 89.8134 55.361 89.7161 55.8636C89.6675 56.0822 89.5459 56.0603 89.3758 56.0603C88.2577 56.0603 87.1154 56.0822 85.9973 56.0603C85.657 56.0603 85.5597 56.1477 85.584 56.4537C85.6083 56.7815 85.5596 57.1312 85.8513 57.3934C86.2402 57.7649 87.2367 57.8305 87.8687 57.4808C87.9416 57.4371 88.0146 57.3934 88.0876 57.3497C88.5008 57.1093 88.598 57.1093 88.8654 57.4808C89.0113 57.6338 89.1327 57.7431 89.2542 57.8742ZM87.1882 55.2736C87.4312 55.2736 87.6744 55.2736 87.9418 55.2736C88.671 55.2736 88.671 55.2736 88.6223 54.618C88.5737 53.9405 87.9174 53.5253 87.1882 53.722C86.4103 53.9405 86.1188 54.4868 85.8757 55.0988C85.8028 55.2736 85.9485 55.2517 86.0457 55.2517C86.4346 55.2736 86.8236 55.2736 87.1882 55.2736Z" fill="#86287F"/>
<path d="M72.4341 58.2466C71.8507 58.5525 71.2674 58.771 70.5869 58.7273C69.8333 58.6836 69.323 58.334 69.0556 57.7439C68.8611 57.3068 68.934 56.826 69.0556 56.3671C69.2743 55.5804 69.3471 54.7936 69.5173 54.0069C69.5902 53.6354 69.7604 53.2857 69.8577 52.9142C69.882 52.8268 69.9305 52.7394 70.0521 52.7612C70.3437 52.7612 70.6598 52.7612 70.9515 52.7612C71.1216 52.7612 71.146 52.8705 71.1216 53.0016C70.9029 53.9413 70.7083 54.881 70.4895 55.8208C70.3923 56.2141 70.3195 56.6294 70.3438 57.0446C70.3681 57.5035 71.0731 57.8532 71.6564 57.6565C72.2641 57.4598 72.6771 57.0883 72.7987 56.5201C72.9688 55.7334 73.1147 54.9248 73.2848 54.138C73.382 53.7446 73.5037 53.3513 73.6252 52.9579C73.6495 52.8705 73.6495 52.7612 73.7954 52.7612C74.1357 52.7612 74.476 52.7612 74.8163 52.7612C74.9621 52.7612 74.9621 52.8486 74.9378 52.9579C74.5732 54.5095 74.2329 56.083 73.8683 57.6346C73.8196 57.8532 73.771 58.0936 73.7467 58.334C73.7224 58.5744 73.6251 58.7055 73.3335 58.6836C73.1876 58.6618 73.066 58.6836 72.9202 58.6836C72.3855 58.6836 72.3855 58.6836 72.4341 58.2466C72.4341 58.2247 72.4341 58.2247 72.4341 58.2247V58.2466Z" fill="#86287F"/>
<path d="M62.3216 56.6731C62.4188 55.5804 62.5646 54.5096 63.3667 53.6354C63.8285 53.1109 64.4362 52.8487 65.1897 52.7394C65.7974 52.6738 66.3565 52.7613 66.8669 53.0454C67.3288 53.3076 67.596 53.6791 67.6932 54.1381C67.8634 55.2308 67.5961 56.236 67.11 57.2413C66.4294 58.6618 64.8008 58.9678 63.6098 58.5963C62.7833 58.334 62.2729 57.7221 62.3216 56.6731ZM63.6342 56.5639C63.6342 56.6731 63.6342 56.7605 63.6342 56.8698C63.6585 57.3725 64.023 57.7003 64.582 57.7003C65.1654 57.7003 65.5786 57.4162 65.846 57.0009C66.3078 56.2798 66.4536 55.493 66.4779 54.6844C66.4779 54.0725 65.8461 53.6354 65.2141 53.7884C64.8009 53.8977 64.4605 54.1162 64.2174 54.4659C63.7799 55.0778 63.7071 55.8208 63.6342 56.5639Z" fill="#86287F"/>
<path d="M16.0905 52.7609C16.844 52.7609 16.8441 52.7609 17.1114 53.3947C17.2573 53.7225 17.4031 54.0503 17.5489 54.4C17.6704 54.6841 17.7434 54.6404 17.9135 54.4218C18.3024 53.941 18.7157 53.4603 19.1046 52.9795C19.2262 52.8046 19.3719 52.7391 19.615 52.7609C19.9066 52.7828 20.1983 52.7609 20.4657 52.7609C20.5629 52.7609 20.6846 52.7172 20.7332 52.8046C20.8061 52.9139 20.6603 52.9795 20.6117 53.0669C20.2957 53.4384 19.9553 53.8099 19.6636 54.1814C19.4206 54.4874 19.129 54.7496 18.9102 55.0556C18.7644 55.2304 18.5941 55.3616 18.4483 55.5145C18.3025 55.6457 18.3024 55.7768 18.3996 55.9298C18.8128 56.6728 19.2017 57.4158 19.5663 58.1589C19.8337 58.6834 19.8338 58.7052 19.1775 58.7052C19.0074 58.7052 18.8615 58.7052 18.6914 58.7052C18.1323 58.7052 18.1322 58.6615 17.9864 58.1589C17.8648 57.6999 17.6462 57.2847 17.4032 56.8695C17.3302 56.7383 17.233 56.7602 17.1601 56.8695C16.7226 57.3721 16.2851 57.8748 15.8719 58.3992C15.7017 58.6178 15.5071 58.7489 15.1911 58.7052C14.8994 58.6834 14.5836 58.7052 14.292 58.7052C14.0732 58.7052 14.0489 58.6396 14.1704 58.4867C14.7052 57.8966 15.2398 57.3066 15.7746 56.7165C16.0662 56.4105 16.3336 56.1046 16.6253 55.7986C16.7711 55.6457 16.7224 55.5145 16.6495 55.3615C16.2849 54.6622 15.9204 53.941 15.5315 53.2199C15.2884 52.7609 15.2885 52.7609 15.8719 52.7609C15.9448 52.7609 16.0176 52.7609 16.0905 52.7609Z" fill="#86287F"/>
<path d="M47.5449 58.7276C46.6213 58.7495 45.8676 58.5965 45.2114 58.0939C45.0169 57.9409 44.944 57.8098 45.2114 57.6568C45.26 57.6349 45.2844 57.5912 45.3087 57.5694C45.4788 57.4383 45.6246 57.2634 45.819 57.176C46.0621 57.0667 46.1595 57.3508 46.3296 57.4601C47.0102 57.8316 48.1769 57.8098 48.7603 57.3945C49.0276 57.1979 49.1491 56.9575 49.0762 56.6515C49.0276 56.3893 48.7358 56.3018 48.4928 56.2581C48.0309 56.1707 47.5693 56.1489 47.1075 56.0396C46.1109 55.7992 45.7462 55.1436 45.965 54.2476C46.1838 53.3953 46.84 52.9363 47.6907 52.7834C48.7116 52.6085 49.7569 52.6304 50.6319 53.2641C50.8021 53.3734 50.802 53.4608 50.6561 53.5701C50.6075 53.592 50.5589 53.6138 50.5346 53.6575C50.0485 54.2913 49.5136 53.9416 48.9789 53.7449C48.4928 53.5482 47.6179 53.7449 47.3019 54.182C46.9859 54.6191 47.2046 55.0125 47.8122 55.1217C48.2497 55.1873 48.7116 55.231 49.1491 55.3184C50.17 55.537 50.5833 56.2363 50.3402 57.1542C50.0242 58.3124 49.0763 58.6621 47.8367 58.7713C47.7394 58.7276 47.5936 58.7276 47.5449 58.7276Z" fill="#86287F"/>
<path d="M41.4195 58.7261C40.8604 58.7698 40.3256 58.6387 39.7909 58.4857C39.4749 58.3983 39.3047 58.1579 39.0617 57.9831C38.9888 57.9175 38.9889 57.8519 39.0861 57.7864C39.1347 57.7427 39.2075 57.699 39.2561 57.6553C39.4505 57.4804 39.5966 57.24 39.8153 57.1745C40.0584 57.0871 40.1799 57.4149 40.3743 57.5023C41.0306 57.8082 41.6869 57.7864 42.3675 57.6115C42.7321 57.5241 42.9264 57.24 43.0723 56.9778C43.2181 56.6937 43.0238 56.3877 42.6106 56.3003C42.1488 56.191 41.6625 56.1255 41.1764 56.0818C40.4958 56.0162 39.9368 55.4699 39.8882 54.8579C39.791 53.5904 40.982 52.8037 42.1245 52.7381C42.6835 52.7163 43.2667 52.6944 43.8015 52.8474C44.1175 52.9348 44.3848 53.0878 44.6522 53.2626C44.8224 53.35 44.7981 53.4811 44.6522 53.5904C44.4335 53.7215 44.239 53.8745 44.0445 54.0275C43.8987 54.1586 43.8016 54.0493 43.7044 53.9838C43.0238 53.5686 42.1972 53.5467 41.5652 53.9182C41.2735 54.0931 41.152 54.3553 41.2006 54.6831C41.2492 54.9672 41.541 55.0328 41.7841 55.0765C42.1973 55.1639 42.6104 55.2076 43.0236 55.2732C44.1903 55.4699 44.5793 56.2129 44.3363 57.1089C44.0203 58.2672 43.0479 58.6168 41.8083 58.7261C41.7354 58.7261 41.5896 58.7261 41.4195 58.7261Z" fill="#86287F"/>
<path d="M78.0721 53.2422C78.3394 53.0892 78.5582 52.9144 78.8741 52.827C79.5547 52.6303 80.211 52.6084 80.8187 52.9799C81.159 53.1985 81.159 53.264 80.8673 53.5044C80.6729 53.6574 80.4786 53.8322 80.2841 54.0071C80.1383 54.1382 80.041 54.1601 79.8709 54.0289C79.2875 53.6137 78.8499 53.723 78.3638 54.0945C77.9263 54.4005 77.7803 54.8375 77.6588 55.3402C77.3914 56.3892 77.1727 57.46 76.9296 58.509C76.9053 58.662 76.7839 58.662 76.6623 58.662C76.395 58.662 76.1032 58.662 75.8358 58.6838C75.617 58.6838 75.6172 58.6183 75.6172 58.4434C75.6658 58.0282 75.8115 57.6348 75.8845 57.2196C76.006 56.5421 76.1519 55.8647 76.2977 55.1872C76.4679 54.4442 76.4922 53.6574 76.8325 52.9362C76.8568 52.8925 76.8569 52.8488 76.8812 52.8051C76.9055 52.7614 77.9505 52.7177 78.0234 52.7614C78.2665 52.8925 77.9991 53.0674 78.0721 53.2422Z" fill="#86287F"/>
<path d="M30.2148 53.2201C30.6037 52.8923 31.0896 52.7393 31.6 52.7175C32.1348 52.6956 32.6452 52.7393 33.0584 53.1327C33.18 53.2638 33.1558 53.3294 33.0342 53.4168C32.8641 53.5479 32.6939 53.679 32.5481 53.832C32.3293 54.0287 32.1593 54.2035 31.7947 53.9413C31.3329 53.5916 30.628 53.7883 30.0932 54.4002C29.7529 54.7936 29.7286 55.2525 29.6071 55.6896C29.3883 56.5638 29.1938 57.4161 29.0236 58.2902C28.9264 58.7492 28.7076 58.6836 28.416 58.6836C27.6868 58.6836 27.6868 58.6836 27.8083 58.028C28.0757 56.5201 28.4645 55.034 28.8048 53.5479V53.5261C28.9992 52.7175 29.0479 52.6956 29.9959 52.783C30.4334 52.8049 30.0689 53.0671 30.2148 53.2201Z" fill="#86287F"/>
<path d="M93.2674 53.2201C94.3126 52.6082 95.3336 52.4115 96.3302 53.2638C96.0871 53.5916 95.7225 53.7446 95.4308 54.0287C95.3092 54.1598 95.1876 54.138 95.0417 54.0506C94.2639 53.5698 93.3403 53.8757 93.0243 54.7062C92.6597 55.6241 92.5626 56.5856 92.3196 57.5472C92.2467 57.8532 92.1735 58.1591 92.1249 58.4651C92.1006 58.5525 92.1007 58.6836 91.9792 58.6836C91.6146 58.7055 91.2499 58.7055 90.9096 58.6836C90.7638 58.6836 90.8125 58.5525 90.8125 58.4651C90.9827 57.7002 91.1528 56.9353 91.2986 56.1704C91.3959 55.6241 91.5659 55.0777 91.6388 54.5095C91.7117 53.985 91.8819 53.4605 92.0034 52.9579C92.0034 52.936 92.0035 52.9142 92.0278 52.8923C92.1008 52.783 93.1702 52.7175 93.2674 52.8486C93.3646 52.936 93.1702 53.0453 93.2674 53.2201Z" fill="#86287F"/>
<path d="M81.5768 58.6826C80.9449 58.6826 80.9205 58.6826 81.0421 58.1363C81.1879 57.3714 81.3822 56.6065 81.5524 55.8416C81.7468 54.9237 81.9656 53.984 82.1601 53.0662C82.2087 52.8695 82.3059 52.7821 82.5247 52.7821C83.5455 52.7602 83.5456 52.7383 83.3512 53.6562C83.0838 54.88 82.7679 56.1039 82.5491 57.3277C82.4762 57.6992 82.3302 58.0489 82.2816 58.4204C82.2573 58.6608 82.1358 58.7263 81.8928 58.7045C81.7712 58.6608 81.6741 58.6826 81.5768 58.6826Z" fill="#86287F"/>
<path d="M83.1297 51.4939C82.3762 51.4939 82.4492 51.4939 82.5707 50.8383C82.6436 50.423 82.8624 50.423 83.1784 50.4449C83.3971 50.4667 83.6158 50.4449 83.8589 50.4449C84.029 50.4667 84.1263 50.5542 84.0291 50.7071C84.0048 50.7509 83.9805 50.7946 83.9562 50.8601C83.7861 51.4939 83.786 51.4939 83.1297 51.4939Z" fill="#86287F"/>
<path d="M97.858 20.3945C97.8823 20.4164 97.9553 20.4382 97.9067 20.4819C97.8581 20.5257 97.8338 20.5038 97.7852 20.4819C97.8095 20.4382 97.8337 20.4164 97.858 20.3945Z" fill="#86287F"/>
<path d="M0.0973216 44.5222C0.0730149 44.5441 0.0243067 44.6096 0 44.5441C0 44.5441 0.0243541 44.5004 0.0486608 44.4785C0.0486608 44.4785 0.0730149 44.5004 0.0973216 44.5222Z" fill="#86287F"/>
</svg>
