<svg width="168" height="29" viewBox="0 0 168 29" fill="none" xmlns="http://www.w3.org/2000/svg">
<path d="M151.789 0C151.9 0 152.011 0 152.132 0.0298764C152.192 0.049794 152.262 0.0398352 152.333 0.049794C152.867 0.0796703 153.39 0.139423 153.914 0.239011C154.78 0.398352 155.625 0.637363 156.431 1.0158C156.894 1.23489 157.327 1.49382 157.73 1.82246C157.951 2.01168 158.163 2.22081 158.334 2.44986C158.495 2.659 158.626 2.88805 158.717 3.13702C158.898 3.63496 158.898 4.12294 158.707 4.62088C158.606 4.87981 158.465 5.10886 158.294 5.32795C158.062 5.61676 157.79 5.86573 157.498 6.08482C157.005 6.44334 156.471 6.71222 155.907 6.94128C155.495 7.10062 155.072 7.23008 154.639 7.33963C154.629 7.33963 154.619 7.35955 154.608 7.37946C154.619 7.37946 154.619 7.38942 154.629 7.38942C154.669 7.38942 154.699 7.39938 154.739 7.39938C154.82 7.39938 154.91 7.39938 154.991 7.39938C155.938 7.39938 156.884 7.39938 157.83 7.39938C157.911 7.39938 158.002 7.39938 158.082 7.39938C158.122 7.39938 158.153 7.43922 158.153 7.46909C158.112 7.73798 158.072 8.00687 158.032 8.27575C157.982 8.59444 157.931 8.90316 157.891 9.22184C157.841 9.55048 157.79 9.88908 157.74 10.2177C157.68 10.6559 157.609 11.0841 157.549 11.5223C157.508 11.8211 157.458 12.1099 157.418 12.4087C157.367 12.7373 157.317 13.0759 157.267 13.4045C157.216 13.7232 157.166 14.0319 157.126 14.3506C157.075 14.6593 157.035 14.9581 156.985 15.2668C156.934 15.5955 156.884 15.9141 156.834 16.2428C156.783 16.5515 156.743 16.8503 156.693 17.159C156.642 17.4677 156.602 17.7665 156.552 18.0752C156.501 18.4038 156.451 18.7424 156.401 19.0711C156.35 19.3898 156.3 19.6985 156.26 20.0172C156.209 20.3259 156.169 20.6247 156.119 20.9334C156.068 21.2421 156.028 21.5409 155.978 21.8496C155.928 22.1782 155.877 22.5168 155.827 22.8455C155.776 23.1641 155.726 23.4729 155.686 23.7916C155.646 24.0903 155.595 24.3791 155.555 24.6779C155.505 25.0065 155.454 25.3451 155.404 25.6738C155.364 25.9725 155.313 26.2613 155.273 26.5601C155.203 27.0182 155.132 27.4863 155.062 27.9444C155.041 28.0838 155.021 28.2232 155.001 28.3626C154.981 28.4622 154.961 28.4821 154.85 28.4821C154.78 28.4821 154.719 28.4821 154.649 28.4821C150.138 28.4821 145.627 28.4821 141.116 28.4821C141.025 28.4821 140.925 28.4821 140.834 28.4821C140.804 28.4821 140.764 28.4324 140.764 28.4025C140.774 28.3328 140.774 28.273 140.784 28.2033C140.874 27.5759 140.965 26.9485 141.066 26.3111C141.156 25.7335 141.237 25.1659 141.328 24.5883C141.398 24.1401 141.458 23.7019 141.519 23.2538C141.589 22.8056 141.65 22.3674 141.72 21.9193C141.771 21.6106 141.811 21.3118 141.851 21.0031C141.901 20.6744 141.952 20.3358 142.002 20.0072C142.042 19.6985 142.093 19.3997 142.133 19.091C142.183 18.7624 142.234 18.4238 142.284 18.0951C142.324 17.7864 142.375 17.4876 142.415 17.1789C142.465 16.8403 142.516 16.4918 142.566 16.1532C142.616 15.8345 142.657 15.5258 142.707 15.2071C142.747 14.8984 142.798 14.5996 142.838 14.2909C142.888 13.9622 142.939 13.6236 142.989 13.295C143.039 12.9663 143.09 12.6477 143.13 12.319C143.18 12.0103 143.22 11.7115 143.261 11.4028C143.311 11.0642 143.361 10.7157 143.412 10.3771C143.462 10.0584 143.502 9.74966 143.553 9.43097C143.603 9.10233 143.653 8.78365 143.704 8.45501C143.754 8.14629 143.794 7.84753 143.835 7.5388C143.835 7.50893 143.845 7.47905 143.845 7.45913C143.855 7.42926 143.885 7.38942 143.925 7.38942C144.006 7.38942 144.097 7.37946 144.177 7.37946C145.496 7.37946 146.815 7.37946 148.124 7.37946C148.225 7.37946 148.336 7.36951 148.436 7.36951C148.436 7.36951 148.446 7.35955 148.436 7.34959C148.436 7.33963 148.436 7.32967 148.426 7.32967C148.285 7.28983 148.134 7.25 147.993 7.21017C147.439 7.05082 146.896 6.84169 146.382 6.58276C146.02 6.39354 145.677 6.18441 145.365 5.92548C145.103 5.71635 144.872 5.48729 144.681 5.21841C144.509 4.9794 144.368 4.72047 144.298 4.44162C144.167 3.97356 144.197 3.51545 144.378 3.06731C144.509 2.75858 144.691 2.4897 144.912 2.24073C145.154 1.97184 145.426 1.74279 145.728 1.54361C146.201 1.22493 146.704 0.975962 147.238 0.776786C147.872 0.537775 148.537 0.368475 149.212 0.24897C149.624 0.179258 150.037 0.139423 150.45 0.0896291C150.49 0.0896291 150.49 0.0597527 150.49 0.0298764C150.913 0 151.346 0 151.789 0Z" fill="#0134AB"/>
<path d="M87.2255 0C87.3262 0 87.437 0 87.5377 0.0199176C87.588 0.0298764 87.6484 0.0398352 87.7088 0.0398352C88.1317 0.0597527 88.5546 0.109547 88.9775 0.169299C89.934 0.318681 90.8705 0.557692 91.7565 0.956044C92.2801 1.19506 92.7634 1.4739 93.1964 1.84238C93.3977 2.01168 93.579 2.20089 93.7401 2.41003C93.9314 2.659 94.0824 2.92788 94.1731 3.22665C94.314 3.67479 94.2939 4.11298 94.1428 4.55117C94.0421 4.83001 93.8911 5.07898 93.7099 5.30804C93.4783 5.59684 93.2064 5.84581 92.9044 6.0649C92.411 6.42342 91.8774 6.69231 91.3034 6.9114C90.8906 7.07074 90.4677 7.20021 90.0347 7.30975C90.0247 7.30975 90.0246 7.31971 90.0146 7.32967C90.0045 7.34959 90.0146 7.35955 90.0448 7.35955C90.0952 7.35955 90.1354 7.36951 90.1858 7.36951C90.2663 7.36951 90.3368 7.36951 90.4173 7.36951C91.3537 7.36951 92.2902 7.36951 93.2366 7.36951C93.3172 7.36951 93.4078 7.36951 93.4884 7.36951C93.5387 7.36951 93.5689 7.4193 93.5589 7.46909C93.5286 7.7081 93.4884 7.94712 93.4582 8.19608C93.4078 8.53468 93.3575 8.88324 93.3071 9.22184C93.2367 9.66003 93.1762 10.0883 93.1058 10.5264C93.0655 10.8252 93.0152 11.124 92.9749 11.4128C92.9245 11.7414 92.8742 12.08 92.8238 12.4087C92.7836 12.6975 92.7332 12.9863 92.6929 13.2651C92.6224 13.7332 92.5519 14.2112 92.4815 14.6793C92.421 15.1174 92.3506 15.5457 92.2902 15.9839C92.2499 16.2826 92.1996 16.5714 92.1593 16.8702C92.1089 17.1988 92.0586 17.5374 92.0083 17.8661C91.9378 18.3043 91.8774 18.7325 91.8069 19.1707C91.7565 19.4794 91.7163 19.7782 91.6659 20.0869C91.6156 20.4155 91.5652 20.7342 91.5149 21.0628C91.4645 21.3716 91.4242 21.6703 91.3739 21.9791C91.3235 22.3077 91.2732 22.6264 91.2228 22.955C91.1725 23.2637 91.1322 23.5625 91.0819 23.8712C91.0315 24.1999 90.9812 24.5185 90.9309 24.8472C90.8805 25.1559 90.8402 25.4547 90.7899 25.7634C90.7396 26.092 90.6892 26.4107 90.6389 26.7394C90.5986 27.0381 90.5483 27.3269 90.508 27.6257C90.4879 27.785 90.4677 27.9444 90.4375 28.0938C90.3569 28.512 90.4576 28.4622 90.0146 28.4622C85.5238 28.4622 81.0331 28.4622 76.5323 28.4622C76.4819 28.4622 76.4417 28.4622 76.3913 28.4622C76.1396 28.4622 76.1396 28.4523 76.1799 28.2033C76.2202 27.9145 76.2605 27.6257 76.3007 27.3369C76.3712 26.8589 76.4417 26.3709 76.5122 25.8929C76.5827 25.4447 76.6431 25.0065 76.7136 24.5584C76.7639 24.2497 76.8042 23.9509 76.8444 23.6422C76.8948 23.3135 76.9451 22.9749 76.9955 22.6463C77.0357 22.3376 77.0861 22.0388 77.1264 21.7301C77.1767 21.3915 77.227 21.0429 77.2774 20.7043C77.3277 20.3856 77.368 20.0769 77.4184 19.7582C77.4587 19.4595 77.509 19.1607 77.5493 18.8719C77.6197 18.3939 77.6902 17.9059 77.7607 17.4279C77.8312 16.9797 77.8916 16.5416 77.9621 16.0934C78.0124 15.7847 78.0527 15.4859 78.093 15.1772C78.1433 14.8486 78.1937 14.51 78.244 14.1813C78.2843 13.8726 78.3347 13.5738 78.3749 13.2651C78.4253 12.9365 78.4756 12.5979 78.526 12.2692C78.5662 11.9605 78.6166 11.6617 78.6568 11.353C78.7072 11.0144 78.7575 10.6659 78.8079 10.3273C78.8482 10.0185 78.8985 9.71978 78.9388 9.41106C79.0092 8.95295 79.0797 8.48489 79.1401 8.02679C79.1703 7.84753 79.1905 7.67823 79.2207 7.49897C79.2308 7.40934 79.2509 7.37946 79.3718 7.37946C79.4523 7.37946 79.5228 7.37946 79.6033 7.37946C80.9022 7.37946 82.2011 7.37946 83.5 7.37946C83.6007 7.37946 83.7115 7.36951 83.8122 7.36951C83.8424 7.36951 83.8524 7.35955 83.8323 7.33963C83.8323 7.32967 83.8222 7.31971 83.8122 7.31971C83.6007 7.25996 83.3892 7.20021 83.1879 7.14045C82.624 6.97115 82.0803 6.75206 81.5668 6.46326C81.1338 6.22424 80.7311 5.93544 80.3887 5.58688C80.1974 5.38771 80.0262 5.17857 79.8953 4.93956C79.6537 4.52129 79.5631 4.06319 79.6134 3.58516C79.6436 3.34615 79.7141 3.12706 79.8148 2.91793C79.9356 2.66896 80.0866 2.44986 80.2679 2.24073C80.5095 1.97184 80.7814 1.74279 81.0734 1.53365C81.5466 1.20501 82.0702 0.956044 82.6039 0.746909C83.2382 0.507898 83.9027 0.338599 84.5774 0.219093C84.9902 0.149382 85.403 0.109547 85.8159 0.0597527C85.8561 0.0597527 85.8561 0.0298764 85.8561 0C86.3495 0 86.7925 0 87.2255 0Z" fill="#0134AB"/>
<path d="M19.2517 29.0007C19.2417 28.9808 19.2417 28.9609 19.2216 28.9609C19.2115 28.9509 19.1813 28.9509 19.1712 28.9509C18.5268 28.9111 17.8925 28.8314 17.2581 28.7119C14.3885 28.1741 11.8209 26.989 9.61577 25.0968C8.07522 23.7823 6.86695 22.2188 5.99095 20.3963C5.55799 19.49 5.22574 18.544 5.00422 17.558C5.00422 17.5381 5.00421 17.5182 4.99414 17.4983C4.99414 17.4784 5.01427 17.4385 5.03441 17.4385C5.06461 17.4385 5.09485 17.4286 5.11499 17.4286C5.45733 17.4087 5.79964 17.3987 6.14199 17.3887C6.2024 17.3887 6.25277 17.3887 6.31318 17.3887C6.35345 17.3887 6.38364 17.4186 6.39371 17.4584C6.40378 17.5082 6.41388 17.5481 6.42395 17.5979C6.58505 18.2552 6.79649 18.8925 7.06835 19.51C7.602 20.7548 8.30684 21.8901 9.1929 22.9159C9.57552 23.364 9.9984 23.7922 10.4414 24.1906C10.4918 24.2304 10.5421 24.2703 10.5925 24.3101C10.6126 24.3201 10.6529 24.3201 10.663 24.3001C10.7536 24.1607 10.8543 24.0213 10.9449 23.8819C10.955 23.8719 10.955 23.842 10.9449 23.8321C10.9147 23.7922 10.8845 23.7624 10.8442 23.7325C10.4213 23.3541 10.0186 22.9557 9.646 22.5275C8.37732 21.0735 7.48115 19.4203 6.99785 17.558C6.98778 17.5182 6.98781 17.4883 6.97774 17.4485C6.97774 17.4286 6.99787 17.3887 7.018 17.3887C7.1489 17.3788 7.27979 17.3688 7.41068 17.3589C7.4711 17.3589 7.51139 17.3887 7.53153 17.4584C7.64229 17.8568 7.76309 18.2452 7.91413 18.6336C8.50819 20.1672 9.39428 21.5216 10.5522 22.6968C10.7536 22.8959 10.955 23.0852 11.1664 23.2843C11.1966 23.3142 11.2369 23.3441 11.2771 23.374C11.2973 23.3939 11.3376 23.3839 11.3577 23.374C11.398 23.3341 11.4383 23.2943 11.4685 23.2445C11.982 22.647 12.5459 22.1092 13.1802 21.6411C13.3816 21.4918 13.5829 21.3723 13.7944 21.2328C13.8246 21.2129 13.8749 21.2229 13.8951 21.2527C13.9454 21.3324 13.9957 21.4121 14.0461 21.4918C14.3985 22.0594 14.7811 22.6071 15.2141 23.115C15.5464 23.5134 15.9089 23.8819 16.3318 24.1906C16.3821 24.2304 16.4425 24.2703 16.4929 24.3001C16.5231 24.3201 16.5634 24.3201 16.6036 24.3001C16.6439 24.2802 16.6842 24.2503 16.7244 24.2304C16.9963 24.0711 17.2883 23.9217 17.5803 23.7922C17.6306 23.7723 17.6508 23.7225 17.6306 23.6827C17.6206 23.6628 17.6206 23.6528 17.6105 23.6329C17.5803 23.5831 17.5602 23.5333 17.5299 23.4835C17.3084 23.0354 17.097 22.5872 16.9258 22.1192C16.9157 22.0793 16.8956 22.0495 16.8855 22.0096C16.8755 21.9797 16.8956 21.92 16.9157 21.91C17.0164 21.8503 17.1272 21.7806 17.2279 21.7208C17.2782 21.6909 17.2782 21.6511 17.238 21.6013C17.2178 21.5714 17.1876 21.5416 17.1675 21.5117C16.9459 21.2527 16.7345 20.9938 16.5029 20.7349C16.4224 20.6453 16.3821 20.5556 16.3519 20.4361C16.2109 19.8187 16.08 19.1913 15.9793 18.5639C15.8887 18.0062 15.8182 17.4485 15.778 16.8908C15.7679 16.7016 15.7578 16.5223 15.7377 16.3331C15.7377 16.3132 15.7679 16.2734 15.788 16.2734C15.8082 16.2734 15.8283 16.2634 15.8485 16.2634C15.9492 16.2634 16.0599 16.2634 16.1606 16.2634C16.2613 16.2634 16.2814 16.2933 16.2915 16.4028C16.3016 16.5721 16.3217 16.7414 16.3418 16.9107C16.372 17.2692 16.4224 17.6178 16.4727 17.9663C16.5633 18.5639 16.6741 19.1514 16.8251 19.7291C16.8352 19.7788 16.8755 19.7988 16.9359 19.7888C16.956 19.7888 16.9762 19.7788 16.9862 19.7689C17.2883 19.6892 17.5904 19.6095 17.9025 19.5598C18.2348 19.5 18.5771 19.4502 18.9094 19.4004C19.282 19.3506 19.6444 19.3506 20.017 19.3307C20.2284 19.3207 20.4298 19.3307 20.6412 19.3307C20.7822 19.3307 20.9232 19.3407 21.0641 19.3506C21.3763 19.3606 21.6884 19.4004 22.0005 19.4502C22.4838 19.51 22.9571 19.6095 23.4203 19.7291C23.4807 19.749 23.5109 19.7191 23.531 19.6693C23.531 19.6494 23.5411 19.6295 23.5411 19.6095C23.5915 19.3307 23.6519 19.0618 23.7022 18.783C23.7626 18.4245 23.8129 18.0659 23.8633 17.6975C23.8935 17.4485 23.9237 17.1995 23.9439 16.9406C23.9741 16.6219 23.9942 16.3032 24.0143 15.9845C24.0143 15.9348 24.0546 15.8949 24.105 15.8949C24.1553 15.8949 24.1956 15.885 24.2459 15.885C24.5681 15.885 24.5379 15.8551 24.5279 16.1738C24.4976 16.7414 24.4372 17.3091 24.3667 17.8767C24.2862 18.5141 24.1654 19.1514 24.0244 19.7788C24.0143 19.8386 24.0244 19.8685 24.0747 19.8884C24.1251 19.9083 24.1855 19.9282 24.2359 19.9481C24.9709 20.1971 25.6757 20.5158 26.3503 20.9141C26.4007 20.944 26.451 20.9739 26.5014 21.0038C26.5416 21.0337 26.592 21.0137 26.6121 20.9639C26.6323 20.9341 26.6524 20.8942 26.6625 20.8644C27.1861 19.8486 27.5687 18.7929 27.8204 17.6775C27.9412 17.1398 28.0318 16.592 28.0922 16.0443C28.0922 16.0244 28.0922 16.0045 28.1023 15.9845C28.1124 15.9248 28.1326 15.8949 28.1829 15.8949C28.344 15.8949 28.5051 15.8949 28.6662 15.8949C28.6964 15.8949 28.7367 15.9447 28.7266 15.9746C28.7165 16.0841 28.7165 16.2036 28.7065 16.3132C28.5151 18.0062 28.052 19.6095 27.2767 21.1332C27.2364 21.2129 27.1961 21.2826 27.1659 21.3623C27.1458 21.3922 27.1558 21.442 27.186 21.4619C27.2263 21.5017 27.2767 21.5316 27.317 21.5615C27.4781 21.681 27.6291 21.8005 27.7902 21.9299C28.2533 22.3183 28.6863 22.7366 29.079 23.1947C29.1193 23.2445 29.1696 23.2943 29.2099 23.3441C29.23 23.364 29.2603 23.364 29.2804 23.3541C29.3207 23.3242 29.361 23.2943 29.3912 23.2644C31.0425 21.7806 32.2306 20.0079 32.8851 17.8966C33.0663 17.329 33.1972 16.7613 33.2677 16.1738C33.2778 16.124 33.2777 16.0841 33.2878 16.0343C33.308 15.9049 33.318 15.8949 33.459 15.8949C33.5496 15.8949 33.6503 15.8949 33.7409 15.9049C33.751 15.9049 33.7812 15.9248 33.7812 15.9447C33.7812 16.0443 33.7711 16.1538 33.7611 16.2534C33.5496 17.6477 33.1167 18.9622 32.442 20.2071C31.7775 21.432 30.9317 22.5175 29.9147 23.4736C29.814 23.5731 29.7033 23.6628 29.6026 23.7624C29.5724 23.7922 29.5724 23.8221 29.5925 23.862C29.7033 24.0213 29.814 24.1906 29.9248 24.3499C29.9449 24.3798 29.9852 24.3898 30.0255 24.3599C30.0758 24.3201 30.1262 24.2802 30.1765 24.2304C32.0997 22.5175 33.4388 20.456 34.1437 17.9863C34.3249 17.3688 34.4558 16.7315 34.5162 16.0841C34.5162 16.0343 34.5364 15.9945 34.5364 15.9447C34.5464 15.9148 34.5767 15.885 34.6169 15.885C34.627 15.885 34.637 15.885 34.6471 15.885C35.0297 15.885 35.4023 15.875 35.7849 15.875C35.8051 15.875 35.8252 15.875 35.8453 15.875C35.8755 15.875 35.9158 15.9148 35.9158 15.9547C35.8957 16.124 35.8856 16.2933 35.8554 16.4526C35.6339 18.0161 35.1506 19.5 34.4055 20.8942C33.5798 22.4578 32.4924 23.8122 31.1532 24.9773C29.2905 26.6106 27.1559 27.7359 24.7595 28.3832C24.1453 28.5525 23.5311 28.682 22.8967 28.7716C22.3329 28.8513 21.769 28.921 21.2051 28.9409C21.1447 28.9409 21.0742 28.931 21.0138 28.9808C20.4298 29.0007 19.8458 29.0007 19.2517 29.0007ZM20.1781 26.6405C20.7923 26.6604 21.3159 26.6205 21.8395 26.5707C22.3832 26.511 22.9269 26.4214 23.4605 26.2919C23.964 26.1724 24.4675 26.033 24.9608 25.8537C24.9911 25.8438 25.0313 25.8238 25.0615 25.8039C25.0817 25.794 25.0816 25.774 25.0716 25.7541C25.0212 25.6645 24.9306 25.6047 24.8501 25.545C24.1855 24.9773 23.4505 24.5192 22.6349 24.2006C22.1214 24.0014 21.5877 23.862 21.044 23.7922C20.6412 23.7424 20.2385 23.7325 19.8257 23.7624C19.4129 23.7922 19 23.862 18.5973 23.9815C17.4494 24.3101 16.4828 24.9375 15.637 25.7541C15.6269 25.7641 15.6169 25.784 15.5967 25.794C15.5766 25.8139 15.5766 25.8537 15.6068 25.8637C15.637 25.8836 15.6773 25.8935 15.7075 25.9135C16.0901 26.0429 16.4828 26.1624 16.8755 26.2521C17.4091 26.3815 17.9428 26.4811 18.4966 26.5508C18.9094 26.6006 19.3222 26.6405 19.7451 26.6504C19.9163 26.6504 20.0875 26.6405 20.1781 26.6405ZM20.3191 19.9481C19.7552 19.9382 19.2215 19.978 18.698 20.0577C18.2046 20.1274 17.7112 20.227 17.2279 20.3565C17.1775 20.3664 17.1373 20.3863 17.097 20.3963C17.0467 20.4162 17.0265 20.456 17.0467 20.5058C17.0567 20.5357 17.0567 20.5656 17.0668 20.5855C17.3487 21.5017 17.6911 22.388 18.1341 23.2445C18.1744 23.3142 18.2147 23.3939 18.265 23.4636C18.2751 23.4736 18.2952 23.4835 18.3154 23.4835C18.3355 23.4835 18.3556 23.4835 18.3757 23.4736C18.9497 23.2943 19.5337 23.2047 20.1378 23.1748C20.5204 23.1549 20.893 23.1848 21.2756 23.2246C21.5877 23.2644 21.8898 23.3242 22.1919 23.4038C22.2523 23.4238 22.2825 23.4038 22.3127 23.3541C22.3429 23.2843 22.3832 23.2246 22.4134 23.1549C22.8161 22.2885 23.1182 21.3822 23.3498 20.456C23.3498 20.4361 23.3599 20.4162 23.3498 20.4062C23.3498 20.3863 23.3397 20.3664 23.3196 20.3664C23.2894 20.3465 23.2491 20.3365 23.2189 20.3266C22.6752 20.1772 22.1113 20.0776 21.5474 20.0079C21.1145 19.9681 20.7017 19.9382 20.3191 19.9481ZM20.3392 27.8853C20.7721 27.8853 21.2152 27.8853 21.6481 27.8355C21.9099 27.8056 22.1718 27.7857 22.4436 27.7558C22.9169 27.6861 23.4001 27.6065 23.8633 27.487C24.5278 27.3276 25.1723 27.1284 25.8066 26.8795C25.867 26.8595 25.9274 26.8297 25.9878 26.7998C25.9979 26.7998 25.9979 26.76 25.9979 26.75C25.8972 26.5807 25.7562 26.4413 25.6254 26.2919C25.575 26.2321 25.5146 26.2321 25.4441 26.2521C25.3334 26.2919 25.2126 26.3417 25.1018 26.3815C24.3466 26.6504 23.5713 26.8595 22.7759 26.989C22.504 27.0388 22.2321 27.0786 21.9603 27.1085C21.6079 27.1484 21.2655 27.1882 20.9131 27.1981C20.2989 27.2181 19.6847 27.2181 19.0705 27.1683C18.6174 27.1284 18.1643 27.0687 17.7212 26.999C16.9862 26.8695 16.2613 26.6902 15.5564 26.4413C15.4457 26.4014 15.345 26.3616 15.2343 26.3317C15.1738 26.3118 15.1235 26.3118 15.0832 26.3616C15.0027 26.4512 14.9221 26.5508 14.8516 26.6405C14.8214 26.6803 14.7811 26.7301 14.761 26.7799C14.7509 26.7898 14.761 26.8197 14.7711 26.8297C14.7912 26.8496 14.8114 26.8595 14.8416 26.8695C15.0329 26.9392 15.2342 27.0189 15.4256 27.0886C16.4224 27.4272 17.4393 27.6662 18.4865 27.7857C18.9497 27.8355 19.4129 27.8853 19.876 27.8953C20.017 27.8853 20.1781 27.8853 20.3392 27.8853ZM26.1691 21.6511C26.1691 21.6411 26.1691 21.6312 26.159 21.6212C26.1188 21.5913 26.0885 21.5615 26.0483 21.5316C25.3837 21.1332 24.689 20.8046 23.9439 20.5556C23.9137 20.5457 23.8935 20.5357 23.8633 20.5357C23.8432 20.5357 23.823 20.5457 23.8129 20.5556C23.7928 20.6154 23.7626 20.6751 23.7425 20.7349C23.4908 21.6511 23.1585 22.5374 22.7356 23.3839C22.7155 23.4238 22.6953 23.4736 22.6853 23.5134C22.6853 23.5234 22.6953 23.5532 22.7054 23.5632C22.7456 23.5831 22.7859 23.603 22.8363 23.6229C23.239 23.7723 23.6217 23.9516 23.9841 24.1707C24.0143 24.1906 24.0546 24.2105 24.0848 24.2205C24.115 24.2304 24.1452 24.2205 24.1654 24.2105C24.1855 24.1906 24.2056 24.1806 24.2258 24.1607C24.9507 23.4337 25.5851 22.6271 26.1188 21.7507C26.1288 21.7308 26.149 21.7009 26.159 21.671C26.1691 21.671 26.1691 21.6511 26.1691 21.6511ZM14.9423 25.5948C14.9624 25.5749 14.9926 25.5549 15.0228 25.535C15.2947 25.2661 15.5867 25.0072 15.8887 24.7682C15.8988 24.7582 15.9189 24.7383 15.929 24.7284C15.9391 24.7084 15.9391 24.6985 15.929 24.6786C15.8988 24.6487 15.8585 24.6089 15.8283 24.579C15.4054 24.2205 15.0329 23.8221 14.6905 23.4038C14.3985 23.0453 14.1267 22.6769 13.8749 22.2885C13.8347 22.2287 13.7843 22.169 13.744 22.1092C13.734 22.0992 13.7037 22.0893 13.6937 22.0992C13.6635 22.1092 13.6434 22.1192 13.6232 22.1391C12.999 22.6071 12.4451 23.135 11.9417 23.7225C11.9216 23.7424 11.9115 23.7723 11.8914 23.7922C11.8813 23.8122 11.8813 23.852 11.9014 23.8719C11.9417 23.9018 11.9719 23.9317 12.0122 23.9615C12.8681 24.6089 13.7944 25.1367 14.7812 25.5549C14.8114 25.5649 14.8516 25.5848 14.8919 25.5948C14.8919 25.5848 14.9121 25.5848 14.9423 25.5948ZM25.7764 25.535C25.8066 25.5251 25.857 25.5052 25.8972 25.4952C26.8336 25.0869 27.7197 24.569 28.5353 23.9615C28.5756 23.9317 28.6058 23.9018 28.646 23.8719C28.6662 23.852 28.6762 23.8122 28.6561 23.7922C28.636 23.7723 28.6259 23.7424 28.6058 23.7225C28.1124 23.135 27.5586 22.6171 26.9444 22.149C26.9041 22.1192 26.8639 22.0992 26.8236 22.0694C26.7934 22.0495 26.7531 22.0594 26.7329 22.0893C26.7128 22.1092 26.7027 22.1391 26.6826 22.159C26.5819 22.3183 26.4812 22.4777 26.3805 22.637C25.9476 23.2943 25.4442 23.9117 24.9105 24.4894C24.8702 24.5391 24.8198 24.5889 24.7796 24.6387C24.7695 24.6487 24.7695 24.6786 24.7796 24.6885C24.7997 24.7084 24.8199 24.7284 24.84 24.7483C25.1219 24.9674 25.3938 25.2064 25.6455 25.4554C25.6656 25.4753 25.6858 25.4952 25.7059 25.5052C25.7261 25.5151 25.7462 25.5251 25.7764 25.535ZM28.9984 24.2703C28.9783 24.2802 28.9582 24.2802 28.9481 24.2902C28.8877 24.33 28.8273 24.3798 28.7669 24.4196C28.052 24.9574 27.2868 25.4155 26.4712 25.8039C26.4309 25.8238 26.3805 25.8438 26.3403 25.8637C26.2798 25.9035 26.1893 25.9035 26.1691 25.9931C26.2396 26.0828 26.3 26.1724 26.3705 26.262C26.4309 26.3317 26.4812 26.4114 26.5416 26.4811C26.5718 26.5209 26.6222 26.5309 26.6726 26.511C26.6927 26.501 26.7028 26.4911 26.7229 26.4911C27.6291 26.0728 28.4749 25.5649 29.2703 24.9674C29.3106 24.9375 29.3509 24.9076 29.3811 24.8777C29.4012 24.8578 29.4113 24.818 29.4012 24.808C29.3005 24.6288 29.1898 24.4595 29.0589 24.3001C29.0387 24.2802 29.0186 24.2703 28.9984 24.2703ZM14.5093 26.0828C14.5193 26.0628 14.5093 26.0429 14.4892 26.033C14.4388 26.0131 14.3885 25.9832 14.3381 25.9633C13.3917 25.535 12.4955 25.0072 11.6598 24.3898C11.6195 24.3599 11.5792 24.33 11.549 24.3101C11.5289 24.2902 11.4886 24.2902 11.4685 24.3101C11.3678 24.4495 11.2771 24.5889 11.1764 24.7284C11.1563 24.7582 11.1664 24.7881 11.1865 24.808C11.2167 24.8379 11.257 24.8678 11.2973 24.8977C12.0726 25.4852 12.8983 25.9931 13.7743 26.4114C14.1972 26.6106 14.0763 26.6405 14.3683 26.262C14.3985 26.2222 14.4388 26.1724 14.469 26.1326C14.4992 26.1226 14.4992 26.1027 14.5093 26.0828Z" fill="#EB2629"/>
<path d="M0.0302363 16.5806C0.060443 16.5905 0.100699 16.5905 0.110768 16.5607C0.171182 16.4212 0.271871 16.3117 0.362491 16.1822C0.976695 15.3457 1.58085 14.5091 2.19505 13.6826C2.20512 13.6627 2.21517 13.6527 2.22524 13.6328C2.40648 13.3241 2.70856 13.2245 3.04083 13.2145C3.22207 13.2045 3.40331 13.2145 3.58455 13.2245C3.99737 13.2344 4.42026 13.2543 4.83308 13.2643C5.70908 13.2842 6.57501 13.3141 7.451 13.334C7.95445 13.344 8.4579 13.3639 8.96134 13.3738C9.04189 13.3738 9.1124 13.3738 9.19296 13.3738C9.25337 13.3738 9.30371 13.3639 9.34399 13.3141C9.36413 13.2942 9.38427 13.2743 9.39433 13.2444C9.6662 12.9058 9.93806 12.5672 10.1998 12.2286C10.2301 12.1887 10.2502 12.1489 10.2703 12.1091C10.2703 12.0991 10.2603 12.0692 10.2502 12.0692C10.1998 12.0593 10.1596 12.0493 10.1092 12.0493C9.9582 12.0493 9.80717 12.0493 9.65614 12.0394C9.64607 12.0394 9.63598 12.0294 9.63598 12.0194C9.63598 11.9995 9.63598 11.9896 9.63598 11.9697C9.63598 11.9597 9.64606 11.9497 9.64606 11.9497C9.84744 11.7207 10.0488 11.5016 10.2401 11.2725C10.2804 11.2227 10.3307 11.2028 10.3911 11.2128C10.6429 11.2327 10.9047 11.2526 11.1564 11.2626C11.2168 11.2626 11.2672 11.2526 11.3074 11.2028C11.4484 11.0037 11.5994 10.8045 11.7404 10.6153C11.8209 10.5057 11.7807 10.5057 11.7001 10.4858C11.6196 10.4659 11.5289 10.4559 11.4484 10.446C11.2067 10.426 11.2068 10.426 11.2168 10.3862C11.237 10.2966 11.3074 10.2468 11.3578 10.187C11.4685 10.0576 11.5793 9.9281 11.69 9.79864C11.7404 9.73889 11.8008 9.70901 11.8813 9.70901C12.123 9.70901 12.3747 9.70901 12.6164 9.70901C12.6869 9.70901 12.7473 9.67913 12.7875 9.6393C12.9184 9.50984 13.0393 9.39033 13.1702 9.26086C13.734 8.71313 14.2878 8.1654 14.8517 7.61766C14.902 7.56787 14.9624 7.50812 15.0128 7.45832C15.043 7.43841 15.0833 7.41849 15.1135 7.41849C15.1537 7.40853 15.184 7.41849 15.2242 7.41849C15.6975 7.41849 16.1707 7.41849 16.644 7.41849C16.6842 7.41849 16.7245 7.41849 16.7547 7.42845C16.7749 7.42845 16.8051 7.46828 16.795 7.4882C16.7547 7.55791 16.7144 7.63758 16.6641 7.70729C16.211 8.39445 15.7478 9.08161 15.2847 9.76876C14.61 10.7746 13.9354 11.7804 13.2709 12.7962C13.2205 12.8659 13.1802 12.9357 13.1399 13.0153C13.1198 13.0651 13.0997 13.1249 13.0896 13.1747C13.0695 13.2743 13.1299 13.3639 13.2205 13.3938C13.2608 13.4037 13.291 13.4137 13.3313 13.4236C13.4723 13.4436 13.6132 13.4535 13.7542 13.4635C14.3482 13.4934 14.9423 13.5133 15.5465 13.5431C16.3117 13.583 17.0769 13.6129 17.8422 13.6527C18.4664 13.6826 19.0907 13.7224 19.715 13.7523C20.1077 13.7722 19.9868 13.812 20.2889 13.5332C20.6413 13.2145 20.9837 12.8958 21.326 12.5771C21.3562 12.5473 21.3965 12.5174 21.4267 12.4776C21.467 12.4377 21.5274 12.4178 21.5878 12.4278C21.6079 12.4278 21.628 12.4278 21.6482 12.4278C21.8999 12.4377 22.1617 12.4477 22.4134 12.4576C22.4638 12.4576 22.504 12.4576 22.5544 12.4676C22.5645 12.4676 22.5846 12.4975 22.5745 12.5074C22.5443 12.5672 22.5141 12.6269 22.4739 12.6767C22.1517 13.1747 21.8194 13.6627 21.4972 14.1606C21.3159 14.4394 21.326 14.3598 21.467 14.6287C21.769 15.2063 22.0913 15.7839 22.3933 16.3615C22.4235 16.4113 22.4436 16.4611 22.4638 16.5109C22.4638 16.5208 22.4537 16.5507 22.4437 16.5507C22.4235 16.5607 22.3933 16.5706 22.3631 16.5706C22.2725 16.5806 22.1718 16.5806 22.0812 16.5905C21.9402 16.6005 21.7992 16.6005 21.6583 16.6105C21.3461 16.6304 21.4267 16.6702 21.1851 16.4511C20.8427 16.1523 20.5104 15.8536 20.1681 15.5449C20.1379 15.515 20.0976 15.4851 20.0573 15.4552C20.0372 15.4453 20.007 15.4254 19.9768 15.4353C19.7452 15.4552 19.5035 15.4752 19.272 15.4951C19.1713 15.505 19.0605 15.515 18.9598 15.5249C18.5873 15.5548 18.2248 15.5847 17.8522 15.6245C17.6206 15.6444 17.379 15.6644 17.1474 15.6843C16.8252 15.7142 16.503 15.7341 16.1808 15.764C15.8586 15.7938 15.5364 15.8237 15.2142 15.8536C15.1739 15.8536 15.1437 15.8635 15.1034 15.8635C14.7711 15.8934 14.4389 15.9133 14.1166 15.9432C13.9455 15.9532 13.7743 15.9731 13.6031 15.993C13.5125 16.003 13.4219 16.0328 13.3313 16.0627C13.2306 16.1026 13.1702 16.2021 13.1903 16.3117C13.2004 16.3914 13.2306 16.471 13.2809 16.5507C13.3313 16.6403 13.3917 16.73 13.4521 16.8096C14.4086 18.2437 15.3753 19.6877 16.3318 21.1218C16.3922 21.2114 16.4426 21.2911 16.503 21.3807C16.5332 21.4205 16.503 21.4703 16.4426 21.4803C16.1204 21.5102 15.7982 21.5301 15.476 21.56C15.3551 21.5699 15.2645 21.5301 15.1638 21.4504C14.7006 21.072 14.2274 20.6936 13.7542 20.3151C13.5628 20.1657 13.3716 20.0064 13.1803 19.857C13.1098 19.7973 13.0393 19.7773 12.9486 19.7773C12.6365 19.7873 12.3244 19.7973 12.0123 19.8072C11.9216 19.8072 11.8511 19.7873 11.7806 19.7276C11.6195 19.5682 11.4484 19.4288 11.2772 19.2694C11.2168 19.2197 11.1262 19.1798 11.1262 19.0802C11.1866 19.0205 11.2671 19.0304 11.3376 19.0105C11.5088 18.9707 11.69 18.9309 11.8612 18.891C11.8713 18.891 11.8713 18.8611 11.8713 18.8412C11.8713 18.8313 11.8612 18.8213 11.8612 18.8213C11.68 18.652 11.5088 18.4827 11.3275 18.3134C11.2873 18.2736 11.2268 18.2537 11.1765 18.2636C10.9449 18.2736 10.7234 18.2736 10.4918 18.2835C10.4214 18.2835 10.3609 18.2835 10.2905 18.2835C10.2502 18.2835 10.22 18.2636 10.1898 18.2337C9.98839 18.0146 9.79709 17.8055 9.59571 17.5864C9.58564 17.5765 9.58563 17.5565 9.58563 17.5366C9.58563 17.5167 9.60576 17.5067 9.6259 17.5067C9.7568 17.5067 9.88768 17.4968 10.0186 17.4968C10.0991 17.4968 10.1898 17.4868 10.2703 17.4868C10.2804 17.4868 10.2905 17.4569 10.2905 17.447C10.2905 17.4271 10.2703 17.4171 10.2603 17.3972C9.96827 17.1482 9.67626 16.8893 9.38426 16.6403C9.33391 16.5905 9.27352 16.5706 9.20304 16.5806C8.81035 16.6005 8.42772 16.6204 8.03503 16.6503C8.01489 16.6503 7.99474 16.6503 7.97461 16.6503C7.46109 16.6802 6.94756 16.7001 6.44411 16.73C5.94066 16.7598 5.43723 16.7897 4.94385 16.8196C4.91364 16.8196 4.88346 16.8196 4.86332 16.8295C4.3498 16.8594 3.83627 16.8793 3.33282 16.9092C2.83945 16.9391 2.3461 16.969 1.85272 16.9988C1.74196 17.0088 1.6211 17.0088 1.51034 17.0188C1.30896 17.0287 1.10759 17.0387 0.916282 17.0486C0.785386 17.0586 0.6545 17.0387 0.523604 17.0188C0.473259 17.0088 0.433003 16.9889 0.392727 16.9789C0.2719 16.9291 0.161103 16.8594 0.100689 16.73C0.0805514 16.6901 0.0503446 16.6503 0 16.6403C0.0302068 16.6204 0.0302363 16.6005 0.0302363 16.5806Z" fill="#EB2629"/>
<path d="M168.001 4.27154C167.991 4.2815 167.96 4.29146 167.96 4.30141C167.82 5.08816 167.155 5.9247 166.299 6.31309C165.282 6.77119 163.923 6.68156 162.966 5.85498C162.433 5.39688 162.1 4.81927 161.959 4.14207C161.859 3.6043 161.879 3.07648 162.05 2.55863C162.292 1.82167 162.765 1.27394 163.439 0.885549C164.436 0.317897 165.765 0.367691 166.732 1.01501C167.276 1.38349 167.648 1.87147 167.88 2.47896C167.91 2.56858 167.94 2.65821 167.94 2.74784C167.94 2.77772 167.96 2.79764 167.991 2.8076C168.001 3.29558 168.001 3.78356 168.001 4.27154ZM167.326 3.57442C167.326 3.33541 167.306 3.11632 167.256 2.89722C167.155 2.51879 166.994 2.18019 166.732 1.88143C166.349 1.4532 165.876 1.19427 165.292 1.1146C164.829 1.04489 164.386 1.1146 163.963 1.31378C163.47 1.55279 163.107 1.92126 162.866 2.40924C162.574 3.01673 162.523 3.65409 162.714 4.30141C163.067 5.50643 164.255 6.20354 165.473 5.94461C166.047 5.82511 166.5 5.52634 166.843 5.05828C167.175 4.61014 167.336 4.1122 167.326 3.57442Z" fill="#EB2629"/>
<path d="M60.7455 0.200185C66.0618 0.200185 71.3782 0.200185 76.6946 0.200185C76.7953 0.200185 76.9061 0.200185 77.0068 0.200185C77.0772 0.200185 77.1074 0.24002 77.0873 0.309731C77.047 0.518866 77.0068 0.728 76.9564 0.947094C76.755 1.92306 76.5436 2.90898 76.3422 3.88494C76.1207 4.92065 75.8992 5.95637 75.6877 6.99208C75.6374 7.21117 75.5971 7.43027 75.5568 7.64936C75.5468 7.70911 75.5266 7.77882 75.5065 7.83858C75.4964 7.85849 75.4662 7.87841 75.4461 7.88837C75.3756 7.89833 75.295 7.89833 75.2245 7.89833C74.7714 7.89833 74.3183 7.89833 73.8552 7.89833C71.5091 7.89833 69.1731 7.89833 66.8271 7.89833C66.7365 7.89833 66.6358 7.89833 66.5452 7.89833C66.5049 7.89833 66.4646 7.92821 66.4646 7.95808C66.4444 8.02779 66.4344 8.10746 66.4142 8.17718C66.3236 8.76474 66.233 9.36227 66.1323 9.94984C66.0518 10.4976 65.9712 11.0453 65.8806 11.5831C65.8 12.1308 65.7094 12.6785 65.6188 13.2163C65.5382 13.7641 65.4577 14.3118 65.3671 14.8496C65.2865 15.3973 65.1959 15.945 65.1053 16.4828C65.0348 16.911 64.9744 17.3393 64.914 17.7575C64.8435 18.1858 64.773 18.604 64.7126 19.0323C64.632 19.58 64.5515 20.1277 64.4609 20.6655C64.4005 21.0838 64.33 21.502 64.2595 21.9103C64.189 22.3386 64.1286 22.7568 64.0682 23.1851C63.9977 23.6133 63.9272 24.0316 63.8668 24.4598C63.8064 24.8681 63.746 25.2764 63.6755 25.6847C63.605 26.1329 63.5345 26.5711 63.4641 27.0192C63.3936 27.4474 63.3332 27.8757 63.2627 28.2939C63.2526 28.3636 63.2325 28.4433 63.2123 28.513C63.2123 28.523 63.1922 28.5429 63.1721 28.5429C63.1519 28.5529 63.1318 28.5529 63.1217 28.5529C63.0412 28.5529 62.9707 28.5529 62.8901 28.5529C58.2181 28.5529 53.5462 28.5529 48.8742 28.5529C48.7936 28.5529 48.7231 28.5529 48.6426 28.5529C48.562 28.5529 48.5318 28.513 48.5419 28.4234C48.562 28.274 48.5923 28.1246 48.6124 27.9753C48.6829 27.5171 48.7534 27.069 48.8239 26.6109C48.8943 26.1827 48.9648 25.7644 49.0252 25.3362C49.0856 24.9179 49.1561 24.4996 49.2165 24.0913C49.287 23.6631 49.3474 23.2448 49.4179 22.8166C49.4683 22.5178 49.5085 22.229 49.5589 21.9303C49.6294 21.4921 49.6998 21.0639 49.7602 20.6257C49.8207 20.2174 49.8911 19.809 49.9515 19.4007C50.022 18.9526 50.0925 18.5144 50.163 18.0663C50.2234 17.648 50.2939 17.2297 50.3543 16.8214C50.4248 16.3832 50.4953 15.955 50.5557 15.5168C50.6161 15.1085 50.6866 14.7002 50.747 14.2919C50.8175 13.8437 50.888 13.4055 50.9584 12.9574C51.0289 12.5292 51.0893 12.1109 51.1598 11.6827C51.2303 11.2544 51.3008 10.8362 51.3612 10.4079C51.4216 9.98968 51.4921 9.57141 51.5525 9.1631C51.6028 8.85437 51.6532 8.55561 51.6935 8.24689C51.7036 8.15726 51.7237 8.05767 51.7338 7.96804C51.7438 7.88837 51.7136 7.85849 51.6129 7.85849C51.5324 7.85849 51.4417 7.85849 51.3612 7.85849C50.4852 7.85849 49.6193 7.85849 48.7433 7.85849C46.8503 7.85849 44.9473 7.85849 43.0543 7.85849C42.9637 7.85849 42.863 7.84854 42.7724 7.83858C42.7624 7.83858 42.7422 7.81866 42.7422 7.79874C42.7422 7.75891 42.7422 7.72903 42.7422 7.68919C42.8227 7.29084 42.9134 6.90245 42.9939 6.5041C43.1349 5.83686 43.2759 5.16962 43.4168 4.50238C43.5779 3.73556 43.739 2.95877 43.9001 2.19194C44.0209 1.61433 44.1418 1.03672 44.2626 0.459113C44.2827 0.389402 44.2928 0.309731 44.3129 0.24002C44.3331 0.180267 44.3633 0.150391 44.4338 0.150391C44.5244 0.150391 44.6251 0.150391 44.7157 0.150391C50.0724 0.200185 55.4089 0.200185 60.7455 0.200185Z" fill="#0134AB"/>
<path d="M113.275 11.2342C113.325 11.1943 113.375 11.1545 113.426 11.1047C115.48 8.98347 117.544 6.85229 119.598 4.73107C120.756 3.53601 121.904 2.35092 123.052 1.15586C123.263 0.93677 123.485 0.707718 123.696 0.488625C123.736 0.448789 123.777 0.408954 123.817 0.369119C123.877 0.299408 123.948 0.269531 124.038 0.269531C124.119 0.269531 124.21 0.269531 124.29 0.269531C128.388 0.269531 132.476 0.269531 136.574 0.269531C138.215 0.269531 139.857 0.269531 141.498 0.269531C141.589 0.269531 141.689 0.27949 141.78 0.27949C141.79 0.27949 141.8 0.289449 141.8 0.289449C141.8 0.309366 141.81 0.329284 141.8 0.339243C141.75 0.389037 141.689 0.448789 141.639 0.498583C140.864 1.18574 140.088 1.8729 139.313 2.56005C138.306 3.45634 137.299 4.35264 136.282 5.23897C134.46 6.85229 132.647 8.46562 130.825 10.0789C129.617 11.1545 128.398 12.23 127.19 13.3056C127.019 13.455 126.848 13.6044 126.687 13.7537C126.646 13.7936 126.636 13.8334 126.666 13.8832C126.727 13.9728 126.797 14.0724 126.858 14.162C129.959 18.6435 133.07 23.125 136.171 27.5965C136.323 27.8155 136.484 28.0446 136.635 28.2637C136.665 28.3035 136.685 28.3434 136.705 28.3832C136.715 28.4031 136.695 28.4529 136.675 28.4529C136.645 28.4529 136.615 28.4629 136.594 28.4629C136.514 28.4629 136.443 28.4629 136.363 28.4629C131.016 28.4629 125.67 28.4629 120.323 28.4629C120.242 28.4629 120.152 28.4629 120.071 28.4629C120.011 28.4629 119.96 28.443 119.92 28.3932C119.87 28.3234 119.82 28.2537 119.769 28.184C117.776 25.4354 115.772 22.6967 113.778 19.9481C113.335 19.3406 112.892 18.7331 112.449 18.1256C112.389 18.046 112.318 17.9663 112.258 17.8866C112.197 17.797 112.147 17.7173 112.087 17.6277C111.442 16.7414 110.788 15.8451 110.143 14.9587C110.093 14.8791 110.033 14.8094 109.982 14.7297C109.972 14.7098 109.972 14.6699 109.982 14.65C110.022 14.6002 110.063 14.5504 110.113 14.5006C110.778 13.8135 111.442 13.1363 112.097 12.4491C112.439 12.1006 112.781 11.7421 113.114 11.3935C113.184 11.3537 113.245 11.3039 113.275 11.2342Z" fill="#EB2629"/>
<path d="M113.276 11.2342C113.246 11.3039 113.185 11.3537 113.135 11.4134C112.792 11.762 112.45 12.1205 112.118 12.469C111.453 13.1562 110.789 13.8334 110.134 14.5206C110.084 14.5704 110.044 14.6102 110.003 14.6699C109.993 14.6899 109.983 14.7297 110.003 14.7496C110.054 14.8293 110.104 14.909 110.165 14.9787C110.809 15.865 111.463 16.7613 112.108 17.6476C112.168 17.7273 112.219 17.8169 112.279 17.9065C112.239 18.1456 112.198 18.3846 112.158 18.6236C112.088 19.0916 112.017 19.5697 111.947 20.0377C111.886 20.4759 111.816 20.9041 111.755 21.3423C111.705 21.661 111.655 21.9697 111.614 22.2884C111.564 22.6071 111.524 22.9158 111.473 23.2345C111.423 23.5532 111.373 23.8619 111.332 24.1806C111.282 24.4893 111.242 24.7881 111.191 25.0968C111.141 25.4254 111.091 25.7441 111.04 26.0728C110.99 26.3815 110.95 26.6802 110.9 26.989C110.849 27.3176 110.799 27.6363 110.748 27.9649C110.728 28.1143 110.698 28.2637 110.678 28.4131C110.668 28.4728 110.638 28.4927 110.587 28.5027C110.507 28.5027 110.436 28.5027 110.356 28.5027C105.633 28.5027 100.911 28.5027 96.1989 28.5027C96.1284 28.5027 96.068 28.5027 95.9975 28.5027C95.8968 28.5027 95.8666 28.4728 95.8867 28.3633C95.9069 28.2039 95.927 28.0446 95.9472 27.8952C96.0378 27.3076 96.1183 26.73 96.2089 26.1425C96.2794 25.6844 96.3399 25.2362 96.4003 24.7781C96.4708 24.32 96.5312 23.8719 96.6017 23.4138C96.652 23.0851 96.6923 22.7664 96.7426 22.4378C96.793 22.1092 96.8433 21.7905 96.8836 21.4618C96.9238 21.1531 96.9742 20.8544 97.0144 20.5456C97.0648 20.1971 97.1151 19.8386 97.1655 19.49C97.2158 19.1614 97.2561 18.8427 97.3065 18.514C97.3568 18.1854 97.4072 17.8667 97.4474 17.5381C97.4978 17.2194 97.5381 16.9107 97.5784 16.592C97.6287 16.2633 97.6689 15.9447 97.7193 15.616C97.7696 15.2874 97.8099 14.9687 97.8603 14.6401C97.9106 14.3015 97.961 13.9529 98.0113 13.6143C98.0516 13.3056 98.1019 13.0068 98.1422 12.6981C98.1925 12.3495 98.2429 11.991 98.2932 11.6425C98.3335 11.3437 98.3838 11.0449 98.4241 10.7561C98.4744 10.3976 98.5349 10.0291 98.5852 9.67063C98.6356 9.34199 98.6758 9.02331 98.7262 8.69467C98.7765 8.36603 98.8269 8.04735 98.8672 7.71871C98.9074 7.40998 98.9578 7.11122 98.998 6.8025C99.0484 6.45394 99.0987 6.09542 99.1491 5.74687C99.1994 5.41823 99.2397 5.09954 99.2901 4.7709C99.3404 4.44226 99.3907 4.12358 99.431 3.79494C99.4713 3.48622 99.5216 3.18746 99.5619 2.87873C99.6122 2.53018 99.6625 2.17166 99.7129 1.8231C99.7632 1.49446 99.8035 1.17578 99.8539 0.847141C99.874 0.6878 99.8942 0.52846 99.9244 0.379078C99.9345 0.299408 99.9747 0.269531 100.065 0.269531C100.136 0.269531 100.196 0.269531 100.267 0.269531C105.029 0.269531 109.802 0.269531 114.565 0.269531C114.655 0.269531 114.756 0.27949 114.847 0.27949C114.857 0.27949 114.877 0.299408 114.887 0.319325C114.897 0.349202 114.887 0.379078 114.887 0.398996C114.857 0.60813 114.826 0.827223 114.796 1.03636C114.726 1.50442 114.655 1.98244 114.585 2.45051C114.514 2.88869 114.454 3.31692 114.383 3.75511C114.343 4.05387 114.293 4.35263 114.252 4.64144C114.202 4.97008 114.152 5.30868 114.101 5.63732C114.051 5.956 114.011 6.26472 113.96 6.5834C113.91 6.90209 113.86 7.21081 113.82 7.52949C113.769 7.83821 113.729 8.13698 113.679 8.4457C113.628 8.77434 113.578 9.09302 113.527 9.42166C113.487 9.72042 113.437 10.0092 113.397 10.308C113.366 10.5171 113.326 10.7362 113.296 10.9454C113.286 11.0449 113.286 11.1346 113.276 11.2342Z" fill="#0134AB"/>
<path d="M20.3291 0.277923C20.4801 0.277923 20.6312 0.277923 20.7822 0.277923C21.2857 0.277923 21.7891 0.327717 22.2825 0.38747C23.0376 0.46714 23.7827 0.606563 24.5177 0.79578C27.3471 1.52277 29.814 2.88713 31.8781 4.9486C33.3381 6.40258 34.4356 8.09557 35.1505 10.0276C35.4425 10.8143 35.654 11.621 35.7949 12.4376C35.8352 12.6866 35.8654 12.9355 35.8956 13.1845C35.9057 13.2343 35.8654 13.2741 35.8151 13.2741C35.795 13.2741 35.7748 13.2741 35.7547 13.2741C35.3922 13.2741 35.0297 13.2741 34.6773 13.2741C34.6471 13.2741 34.6169 13.2741 34.5967 13.2642C34.5665 13.2642 34.5263 13.2243 34.5263 13.1845C34.5263 13.1646 34.5162 13.1447 34.5162 13.1248C34.4558 12.6169 34.3651 12.109 34.2342 11.611C33.8416 10.0176 33.1468 8.56364 32.1903 7.22916C31.5761 6.38266 30.8713 5.61584 30.0758 4.91872C30.0355 4.87888 29.9852 4.84901 29.9449 4.80917C29.9147 4.7793 29.8744 4.78926 29.8442 4.81913C29.8342 4.82909 29.8342 4.82909 29.8241 4.83905C29.7335 4.9486 29.6529 5.05814 29.5623 5.17765C29.5321 5.21748 29.5321 5.25732 29.5824 5.29715C29.6529 5.35691 29.7234 5.42662 29.7939 5.48637C31.0122 6.61171 31.999 7.90636 32.7139 9.40018C33.1569 10.3263 33.4791 11.2923 33.6704 12.2982C33.7308 12.5969 33.7711 12.8858 33.8013 13.1845C33.8013 13.2243 33.7711 13.2542 33.7308 13.2542C33.62 13.2542 33.4992 13.2542 33.3885 13.2542C33.3482 13.2542 33.3079 13.2244 33.3079 13.1945C33.2979 13.1347 33.2777 13.065 33.2677 13.0053C33.0764 11.5812 32.6031 10.2367 31.8983 8.98191C31.2136 7.77689 30.3476 6.72126 29.3005 5.80505C29.2602 5.77518 29.23 5.7453 29.1898 5.71542C29.1696 5.70546 29.1394 5.68555 29.1092 5.71542C29.079 5.7453 29.0387 5.77518 29.0085 5.81501C28.4044 6.49221 27.7398 7.10965 27.0048 7.63747C26.9746 7.65739 26.9444 7.68726 26.9243 7.70718C26.9041 7.7271 26.894 7.75697 26.9041 7.78685C26.9444 7.85656 26.9847 7.93623 27.0249 8.00594C27.6089 9.05162 28.0419 10.157 28.3339 11.3123C28.4849 11.8899 28.5957 12.4774 28.6662 13.075C28.6662 13.1048 28.6662 13.1347 28.6762 13.1546C28.6762 13.1746 28.646 13.2144 28.6259 13.2144C28.4648 13.2144 28.3037 13.2144 28.1426 13.2144C28.1224 13.2144 28.0922 13.1945 28.0822 13.1646C28.0721 13.075 28.0519 12.9754 28.0419 12.8858C27.8405 11.2326 27.3371 9.66906 26.5517 8.19516C26.5315 8.15533 26.5013 8.11549 26.4812 8.07566C26.4711 8.05574 26.4208 8.04578 26.4107 8.05574C26.3805 8.07566 26.3402 8.08562 26.31 8.10553C25.6254 8.5238 24.9004 8.88232 24.1351 9.14125C24.0949 9.15121 24.0647 9.17112 24.0345 9.18108C24.0143 9.19104 23.9942 9.22092 23.9942 9.25079C24.0043 9.30059 24.0042 9.34042 24.0143 9.39022C24.1754 10.0774 24.2962 10.7645 24.3768 11.4616C24.4372 11.9695 24.4976 12.4874 24.5177 12.9953C24.5177 13.0451 24.5177 13.0849 24.5177 13.1347C24.5177 13.1746 24.4876 13.2144 24.4473 13.2144C24.3265 13.2144 24.2056 13.2144 24.0747 13.2144C24.0445 13.2144 24.0043 13.1746 24.0043 13.1447C24.0043 13.1248 23.9942 13.1048 23.9942 13.0849C23.974 12.7662 23.9539 12.4476 23.9237 12.1289C23.8834 11.7405 23.8331 11.3521 23.7827 10.9537C23.7324 10.5753 23.6619 10.1969 23.5914 9.81844C23.5612 9.68898 23.5411 9.55951 23.5108 9.43005C23.5008 9.36034 23.4505 9.33046 23.3901 9.35038C23.1484 9.42009 22.8967 9.46989 22.645 9.51968C22.3026 9.58939 21.9502 9.63919 21.6078 9.67902C20.8527 9.75869 20.0975 9.74873 19.3322 9.71886C19.0302 9.7089 18.7281 9.66906 18.426 9.62923C18.0334 9.57943 17.6407 9.51968 17.248 9.44997C17.1876 9.44001 17.1372 9.43005 17.0768 9.42009C16.7546 9.36034 16.7748 9.31055 16.6942 9.66906C16.6036 10.1272 16.5331 10.5952 16.4928 11.0533C16.4526 11.5114 16.4223 11.9695 16.4324 12.4276C16.4324 12.4974 16.4324 12.577 16.4223 12.6467C16.4223 12.6667 16.382 12.6965 16.3619 12.6965C16.2109 12.6965 16.0598 12.6866 15.9088 12.6766C15.7477 12.6567 15.7377 12.6467 15.7477 12.4874C15.778 12.1588 15.8081 11.8301 15.8283 11.5114C15.8585 11.1529 15.9088 10.8044 15.9592 10.4558C16.0296 9.96783 16.1304 9.47985 16.2512 8.99187C16.2713 8.89228 16.3216 8.80265 16.372 8.71302C16.6036 8.30471 16.8352 7.8964 17.0768 7.48809C17.1372 7.3885 17.1876 7.28891 17.2379 7.18932C17.2681 7.13953 17.248 7.09969 17.1876 7.08974C17.107 7.08974 17.0366 7.07978 16.956 7.07978C16.8956 7.07978 16.8755 7.0499 16.8956 6.99015C16.9359 6.91048 16.9661 6.84077 17.0064 6.7611C17.1977 6.3727 17.389 5.98431 17.5803 5.60588C17.6004 5.55608 17.6306 5.50629 17.6508 5.45649C17.6608 5.43658 17.6407 5.39674 17.6205 5.38678C17.6004 5.37682 17.5903 5.36687 17.5702 5.35691C17.2178 5.21748 16.8755 5.05814 16.5432 4.86893C16.4626 4.82909 16.4022 4.82909 16.3317 4.87888C16.08 5.01831 15.8585 5.19757 15.6571 5.38678C15.3651 5.65567 15.1235 5.96439 14.8919 6.29303C14.5798 6.73122 14.3179 7.19928 14.0561 7.66735C14.0058 7.76693 13.9454 7.86652 13.895 7.96611C13.885 7.98603 13.8346 7.99599 13.8145 7.97607C13.7138 7.90636 13.6131 7.82669 13.5225 7.75697C12.9284 7.28891 12.3948 6.7611 11.8712 6.21336C11.7202 6.04406 11.5591 5.88472 11.408 5.71542C11.3879 5.69551 11.3476 5.69551 11.3274 5.71542C11.3073 5.72538 11.2973 5.73534 11.2872 5.7453C11.2469 5.77518 11.2167 5.80505 11.1764 5.83493C9.93794 6.94035 8.95121 8.22504 8.23632 9.72882C7.83356 10.5853 7.54154 11.4716 7.3603 12.3878C7.35023 12.4177 7.35026 12.4476 7.3402 12.4675C7.33013 12.5073 7.29989 12.5372 7.25961 12.5372C7.11865 12.5372 6.97771 12.5272 6.83675 12.5272C6.81661 12.5272 6.77634 12.4874 6.7864 12.4675C6.7864 12.4077 6.78637 12.3579 6.79643 12.2982C6.96761 11.3919 7.23948 10.5156 7.61203 9.67902C8.31685 8.08561 9.32376 6.70134 10.6025 5.51625C10.7032 5.42662 10.7938 5.33699 10.8945 5.24736C10.9247 5.21748 10.9247 5.17765 10.9046 5.14777C10.824 5.05814 10.7435 4.96851 10.6529 4.87888C10.6428 4.86893 10.6126 4.86893 10.6025 4.86893C10.5522 4.90876 10.4918 4.9486 10.4515 4.98843C9.75673 5.60588 9.13244 6.28307 8.57865 7.02002C7.60197 8.33458 6.89715 9.76865 6.47426 11.3421C6.39371 11.6509 6.31315 11.9596 6.2628 12.2683C6.25273 12.3181 6.24268 12.3579 6.23261 12.4077C6.22255 12.4376 6.18224 12.4774 6.15203 12.4774C5.73921 12.4675 5.31632 12.4675 4.9035 12.4177C4.88336 12.4177 4.84308 12.3779 4.85315 12.3579C4.86322 12.2882 4.86324 12.2285 4.87331 12.1588C5.39689 9.38026 6.67561 6.99015 8.65919 4.96851C10.4817 3.10622 12.6566 1.80162 15.1436 0.994956C15.8686 0.755945 16.6136 0.576687 17.3688 0.447223C17.8823 0.357594 18.3959 0.297841 18.9195 0.248047C19.4028 0.287882 19.8659 0.277923 20.3291 0.277923ZM20.2989 2.50869C19.8156 2.51865 19.3826 2.51865 18.9496 2.56844C18.5368 2.60828 18.124 2.66803 17.7112 2.73774C17.0265 2.85725 16.3619 3.03651 15.7074 3.2556C15.647 3.27552 15.5866 3.29544 15.5161 3.32531C15.4859 3.33527 15.4456 3.35519 15.4154 3.37511C15.3953 3.38507 15.3852 3.4249 15.4054 3.44482C15.5967 3.65395 15.8182 3.82325 16.0498 3.99255C17.1473 4.79921 18.3858 5.26728 19.7451 5.38678C20.46 5.44654 21.1648 5.39674 21.8596 5.22744C23.0578 4.93864 24.0848 4.35107 24.9507 3.48465C24.9809 3.45478 25.001 3.4249 25.0212 3.39502C25.0313 3.38507 25.0212 3.34523 25.0112 3.34523C24.9608 3.31535 24.9105 3.29544 24.8601 3.27552C24.397 3.11618 23.9237 2.97676 23.4404 2.86721C22.9873 2.76762 22.5342 2.67799 22.071 2.6282C21.7488 2.58836 21.4266 2.55849 21.1145 2.53857C20.8225 2.51865 20.5405 2.51865 20.2989 2.50869ZM20.0774 9.27071C20.5708 9.28067 21.0843 9.23088 21.5877 9.17112C22.1012 9.11137 22.6147 9.00182 23.1182 8.8624C23.3498 8.80265 23.3498 8.81261 23.2894 8.5736C23.0678 7.75697 22.806 6.96027 22.4637 6.19344C22.4033 6.04406 22.3328 5.90464 22.2623 5.75526C22.222 5.67559 22.1817 5.65567 22.1012 5.67559C21.8092 5.75526 21.5172 5.81501 21.2152 5.85485C20.8627 5.90464 20.5204 5.92456 20.168 5.9146C19.6041 5.90464 19.0403 5.83493 18.4865 5.68555C18.4563 5.67559 18.4261 5.66563 18.4059 5.66563C18.3757 5.66563 18.3455 5.67559 18.3354 5.69551C18.2952 5.73534 18.2649 5.78513 18.2347 5.83493C17.6709 6.73122 17.248 7.68726 16.9459 8.6931C16.9359 8.73294 16.9359 8.76281 16.9359 8.80265C16.9359 8.82257 16.9459 8.84248 16.966 8.84248C17.0365 8.87236 17.107 8.89228 17.1775 8.91219C17.6407 9.01178 18.1038 9.10141 18.5771 9.16116C19.0604 9.23088 19.5538 9.28067 20.0774 9.27071ZM28.646 5.32703C28.646 5.31707 28.646 5.30711 28.636 5.29715C28.6058 5.26728 28.5655 5.22744 28.5353 5.20752C27.6794 4.57016 26.753 4.04235 25.7764 3.61412C25.7461 3.60416 25.7059 3.58424 25.6656 3.57428C25.6354 3.57428 25.6052 3.57428 25.5851 3.5942C25.5448 3.62408 25.5146 3.65395 25.4844 3.68383C25.1823 3.98259 24.8601 4.26144 24.5177 4.51041C24.4976 4.53033 24.4775 4.55024 24.4574 4.5602C24.4372 4.58012 24.4271 4.61996 24.4473 4.63987C24.4674 4.66975 24.4976 4.69963 24.5177 4.71954C25.2528 5.44654 25.8972 6.23328 26.4611 7.08974C26.4812 7.11961 26.5013 7.14949 26.5315 7.17936C26.5517 7.19928 26.5819 7.20924 26.602 7.18932C26.6423 7.15945 26.6826 7.13953 26.7229 7.10965C27.4076 6.61171 28.0218 6.05402 28.5856 5.42662C28.6058 5.39674 28.6359 5.36686 28.6561 5.33699C28.646 5.35691 28.646 5.33699 28.646 5.32703ZM15.939 4.54029C15.929 4.52037 15.929 4.50045 15.9189 4.49049C15.5665 4.2216 15.2241 3.94276 14.912 3.63404C14.9019 3.62408 14.902 3.62408 14.8919 3.61412C14.8617 3.60416 14.8415 3.60416 14.8113 3.60416C14.7912 3.60416 14.7811 3.61412 14.761 3.62408C13.7339 4.06226 12.7673 4.61996 11.8812 5.30711C11.851 5.32703 11.8208 5.35691 11.8007 5.38678C11.7806 5.4067 11.7806 5.43658 11.8007 5.45649C11.8208 5.47641 11.8309 5.49633 11.8511 5.52621C12.3746 6.09386 12.9184 6.63163 13.5124 7.13953C13.5728 7.18932 13.6333 7.23912 13.6836 7.27895C13.7038 7.29887 13.744 7.28891 13.7541 7.26899C13.7742 7.23912 13.7943 7.20924 13.8044 7.16941C14.0058 6.75114 14.2575 6.3727 14.5495 6.00423C14.9019 5.55608 15.2946 5.15773 15.7074 4.76934C15.7779 4.70959 15.8484 4.63987 15.9189 4.58012C15.929 4.58012 15.929 4.5602 15.939 4.54029ZM26.0885 7.51796C26.0885 7.49805 26.0885 7.47813 26.0784 7.46817C26.0381 7.39846 25.9979 7.33871 25.9576 7.27895C25.4743 6.53204 24.9205 5.84489 24.3063 5.20752C24.2157 5.1179 24.115 5.01831 24.0244 4.92868C23.9942 4.8988 23.9539 4.88884 23.9237 4.90876C23.9035 4.91872 23.8935 4.92868 23.8733 4.93864C23.5109 5.14777 23.1383 5.32703 22.7456 5.47641C22.7154 5.48637 22.6752 5.50629 22.645 5.52621C22.6248 5.53616 22.6147 5.576 22.6248 5.59592C22.655 5.65567 22.6852 5.71542 22.7154 5.77518C22.9067 6.15361 23.0779 6.542 23.2289 6.9304C23.4202 7.42833 23.5914 7.93623 23.7425 8.44413C23.7525 8.48397 23.7727 8.53376 23.7827 8.5736C23.7928 8.61343 23.8331 8.63335 23.8733 8.62339C23.9237 8.60347 23.9841 8.59351 24.0345 8.5736C24.699 8.32463 25.3333 8.0159 25.9475 7.64743C25.9878 7.62751 26.0281 7.59763 26.0684 7.56776C26.0785 7.5578 26.0784 7.53788 26.0885 7.51796ZM25.7965 2.4091C25.7864 2.39915 25.7865 2.36927 25.7663 2.36927C25.7361 2.34935 25.6958 2.32943 25.6656 2.31948C24.8702 2.02071 24.0445 1.79166 23.2088 1.63232C22.7859 1.55265 22.3529 1.4929 21.92 1.4431C21.4971 1.40327 21.0742 1.37339 20.6412 1.36343C19.9968 1.34351 19.3524 1.38335 18.708 1.45306C18.2046 1.50285 17.7111 1.58252 17.2178 1.68211C16.372 1.85141 15.5463 2.10038 14.7509 2.41906C14.7106 2.43898 14.6603 2.4589 14.62 2.47882C14.5898 2.48877 14.5797 2.52861 14.5998 2.54853C14.6703 2.64812 14.7509 2.7477 14.8214 2.83733C14.8516 2.87717 14.9019 2.87717 14.9523 2.86721C14.9925 2.85725 15.0227 2.83733 15.053 2.82737C15.4557 2.67799 15.8585 2.53857 16.2612 2.42902C17.0567 2.20993 17.8622 2.05059 18.6878 1.97092C19.2014 1.92112 19.7048 1.89125 20.2183 1.88129C20.4902 1.88129 20.7721 1.90121 21.044 1.91116C21.5776 1.93108 22.1012 2.00079 22.6248 2.08046C23.2793 2.19001 23.9237 2.33939 24.5581 2.53857C24.84 2.6282 25.1118 2.72779 25.3938 2.81741C25.4743 2.84729 25.5247 2.83733 25.5649 2.76762C25.6354 2.66803 25.7059 2.56844 25.7764 2.46886C25.7864 2.44894 25.7965 2.42902 25.7965 2.4091ZM26.4107 2.63816C26.4007 2.64812 26.3705 2.64812 26.3604 2.66803C26.2698 2.78754 26.1791 2.90704 26.0885 3.02655C26.0684 3.04647 26.0885 3.0863 26.1087 3.09626C26.1489 3.11618 26.1892 3.1361 26.2395 3.15601C27.186 3.5942 28.0721 4.12202 28.8977 4.74942C28.938 4.7793 28.9783 4.80917 29.0186 4.82909C29.0387 4.83905 29.079 4.84901 29.0991 4.82909C29.1998 4.69963 29.2904 4.58012 29.3911 4.45066C29.4113 4.43074 29.4012 4.3909 29.3811 4.37099C29.3609 4.34111 29.3307 4.32119 29.3005 4.30127C28.4346 3.65395 27.5183 3.11618 26.5315 2.66803C26.5013 2.65807 26.4812 2.64812 26.451 2.63816C26.4309 2.63816 26.4208 2.63816 26.4107 2.63816ZM11.3375 4.92868C11.3476 4.92868 11.3577 4.92868 11.3678 4.91872C11.4181 4.87888 11.4785 4.83905 11.5288 4.79921C11.9215 4.49049 12.3344 4.21165 12.7573 3.95272C13.2204 3.67387 13.6836 3.41494 14.177 3.19585C14.2374 3.16597 14.2978 3.1361 14.3481 3.10622C14.3582 3.09626 14.3683 3.06638 14.3582 3.05643C14.2676 2.94688 14.187 2.83733 14.0964 2.72779C14.0863 2.71783 14.0561 2.71783 14.0461 2.71783C14.0159 2.72779 13.9957 2.73774 13.9655 2.7477C12.9486 3.21577 12.0021 3.79338 11.1261 4.48053C11.1059 4.50045 11.0858 4.52037 11.0657 4.54029C11.0456 4.5602 11.0355 4.59008 11.0556 4.61996C11.1261 4.7295 11.2167 4.82909 11.3174 4.91872C11.3174 4.91872 11.3275 4.91872 11.3375 4.92868Z" fill="#EB2629"/>
<path d="M30.8007 14.8977C28.646 14.8977 26.5013 14.8977 24.3466 14.8977C24.2559 14.8977 24.1552 14.8977 24.0646 14.8877C24.0243 14.8877 23.9941 14.8479 23.9941 14.818C23.9941 14.6487 23.9941 14.4794 23.9941 14.3101C23.9941 14.2803 24.0344 14.2404 24.0747 14.2404C24.1049 14.2404 24.1351 14.2305 24.1553 14.2305C24.2257 14.2305 24.2861 14.2305 24.3566 14.2305C28.6661 14.2305 32.9756 14.2305 37.2952 14.2305C37.3858 14.2305 37.4865 14.2305 37.5771 14.2305C37.6174 14.2305 37.6576 14.2603 37.6576 14.3002C37.6576 14.4794 37.6576 14.6587 37.6576 14.828C37.6576 14.8479 37.6174 14.8778 37.5973 14.8778C37.5369 14.8877 37.4664 14.8877 37.3959 14.8877C37.0032 14.8877 36.6206 14.8877 36.2279 14.8877C34.4255 14.8977 32.6131 14.8977 30.8007 14.8977Z" fill="#EB2629"/>
<path d="M163.82 3.57509C163.82 3.15682 163.82 2.72859 163.82 2.31032C163.82 2.25057 163.82 2.20077 163.82 2.14102C163.82 2.07131 163.851 2.03147 163.921 2.02151C164.022 2.0016 164.122 1.98168 164.233 1.97172C164.616 1.94184 164.988 1.92193 165.371 1.96176C165.552 1.98168 165.723 2.03147 165.884 2.1211C166.227 2.31032 166.388 2.72859 166.247 3.0871C166.187 3.24644 166.076 3.35599 165.935 3.43566C165.864 3.4755 165.784 3.51533 165.713 3.55517C165.703 3.55517 165.703 3.595 165.713 3.60496C165.743 3.62488 165.774 3.6448 165.804 3.66471C165.925 3.74438 166.025 3.84397 166.076 3.97344C166.116 4.06307 166.156 4.16265 166.176 4.26224C166.237 4.53113 166.297 4.79006 166.388 5.04899C166.398 5.0689 166.368 5.10874 166.348 5.10874C166.156 5.10874 165.965 5.10874 165.784 5.10874C165.743 5.10874 165.713 5.07886 165.703 5.03903C165.673 4.95936 165.643 4.87969 165.623 4.80002C165.582 4.66059 165.552 4.51121 165.512 4.36183C165.492 4.29212 165.472 4.21245 165.441 4.15269C165.391 4.03319 165.3 3.95352 165.17 3.92364C165.089 3.90373 165.008 3.88381 164.918 3.87385C164.817 3.86389 164.706 3.86389 164.606 3.86389C164.535 3.86389 164.495 3.89377 164.495 3.96348C164.495 4.04315 164.495 4.11286 164.495 4.19253C164.495 4.4415 164.495 4.70043 164.495 4.9494C164.495 4.98923 164.495 5.02907 164.485 5.05894C164.485 5.07886 164.465 5.09878 164.445 5.09878C164.384 5.10874 164.334 5.10874 164.273 5.10874C164.132 5.09878 163.992 5.14857 163.861 5.07886C163.82 4.9494 163.84 4.81993 163.84 4.69047C163.82 4.32199 163.82 3.95352 163.82 3.57509ZM164.505 2.89789C164.505 3.03731 164.505 3.17673 164.515 3.31616C164.515 3.34603 164.555 3.38587 164.596 3.38587C164.767 3.38587 164.938 3.38587 165.109 3.36595C165.19 3.35599 165.27 3.32611 165.351 3.29624C165.502 3.22653 165.582 3.10702 165.582 2.93772C165.582 2.73855 165.492 2.59912 165.31 2.51945C165.26 2.49954 165.2 2.47962 165.149 2.46966C165.049 2.4597 164.938 2.44974 164.837 2.44974C164.495 2.46966 164.515 2.43978 164.515 2.77838C164.505 2.81822 164.505 2.85805 164.505 2.89789Z" fill="#EB2629"/>
</svg>
