<svg width="166" height="28" viewBox="0 0 166 28" fill="none" xmlns="http://www.w3.org/2000/svg">
<path d="M26.6287 0C26.7133 0.383266 27.2811 0.131117 27.4382 0.42361C27.3657 0.494211 27.2932 0.564813 27.2207 0.635415C26.9549 0.605157 26.6771 0.574899 26.4113 0.544641C26.1576 0.514383 25.8193 0.37318 25.7226 0.675758C25.5897 1.0792 26.0126 1.06911 26.3267 1.11954C26.5079 1.1498 26.5925 1.25066 26.6287 1.39186C26.4112 1.68435 25.8072 1.25066 25.7105 1.69444C25.6139 2.14831 26.1213 2.12813 26.4475 2.21891C26.6287 2.26934 26.665 2.38028 26.6529 2.52149C26.3509 2.56183 26.0126 2.56183 25.7589 2.68286C25.6743 2.72321 25.9763 2.9451 26.1938 2.99553C26.8341 3.13673 26.4717 2.66269 26.6408 2.5114C26.8704 2.40046 27.5711 2.60217 27.0878 2.0071C26.9308 1.81547 26.4717 1.73478 26.6287 1.38177C27.3053 1.18006 27.8127 1.95667 28.5134 1.58349C28.598 1.63392 28.6705 1.69444 28.743 1.75495C28.3081 2.02728 29.5283 3.25776 27.849 2.81398C27.8248 2.80389 27.6919 2.97535 27.7161 3.00561C27.9456 3.36871 28.1027 3.86292 28.4651 4.03438C29.19 4.35713 28.7551 3.67128 28.9363 3.54017C29.5041 3.14682 29.335 3.69146 29.3833 3.84275C29.4679 4.1655 29.7216 4.18567 29.9995 4.11507C30.2894 4.03438 30.1686 3.83266 30.1203 3.6612C30.0478 3.38888 29.9995 3.12664 29.9391 2.85432C30.0357 2.78372 30.1324 2.71312 30.217 2.64252C31.0264 4.08481 30.9298 5.4565 29.7579 6.7475C29.6612 6.68698 29.5766 6.61638 29.48 6.55587C29.7095 6.04148 29.9512 5.5271 30.1566 5.00263C30.229 4.82108 30.1686 4.59919 29.8666 4.60928C29.48 4.61936 29.1296 5.74899 28.6826 4.62945C28.6584 4.57902 28.4651 4.7404 28.3564 4.85134C27.6315 5.65822 27.8369 6.14234 29.2625 6.8887C29.335 6.94922 29.3954 7.00973 29.4679 7.08033C29.3591 7.35265 29.1296 7.54429 28.8034 7.64515C28.7309 7.58463 28.6584 7.52412 28.586 7.4636C28.4531 7.33248 28.3202 7.19128 28.1873 7.06016C27.7523 7.67541 26.9549 7.50394 26.3146 7.67541C26.073 7.73592 25.6985 7.75609 25.7468 8.05867C25.8072 8.48228 26.2179 8.30073 26.5079 8.27048C26.8945 8.24022 27.3778 7.77627 27.6194 8.23013C27.7161 8.40159 26.9549 8.58314 26.5321 8.67391C26.2663 8.72434 25.9884 8.70417 25.7105 8.72434C25.336 8.4722 24.7682 8.71426 24.4178 8.38142C24.6957 8.30073 25.1306 8.49237 25.2152 8.1091C25.2877 7.79644 24.889 7.82669 24.6836 7.72584C24.3332 7.55437 23.7654 7.73592 23.6083 7.26188C23.9829 7.06016 24.3453 7.29214 24.7199 7.27197C24.9252 7.26188 25.191 7.33248 25.191 7.05008C25.191 6.8181 24.9856 6.75758 24.7561 6.73741C24.5386 6.70715 24.3332 6.66681 24.297 6.44492C25.1065 6.30372 25.1064 6.30372 24.5507 5.70865C24.5386 5.68847 24.5869 5.62796 24.6111 5.58762C24.8044 5.54727 25.0702 5.55736 25.1669 5.4565C25.2756 5.33547 25.034 5.20435 24.9011 5.21443C24.6474 5.23461 24.6474 5.43633 24.6474 5.60779C23.9345 5.7389 24.4903 6.19277 24.3332 6.46509C24.2366 6.94922 22.9922 5.96079 23.3184 6.99965C22.8955 7.14085 21.7357 6.86853 22.666 7.77627C22.5935 7.85695 22.521 7.94773 22.4485 8.02841C21.9532 7.75609 21.4458 7.51403 21.2162 7.0299C21.3008 6.9593 21.3853 6.8887 21.4578 6.8181C21.9532 6.98956 22.3156 6.83827 22.0619 6.43483C21.772 5.95071 21.1437 5.60779 21.2645 4.96229C21.2887 4.86143 21.1558 4.71014 20.9383 4.73031C20.745 4.7404 20.6242 4.82108 20.6363 4.97237C20.6484 5.24469 20.6846 5.51701 20.7209 5.78933C20.6363 5.84985 20.5396 5.91037 20.4551 5.97088C19.8631 4.89168 19.8147 3.82257 20.5275 2.76355C20.6242 2.82407 20.7088 2.88458 20.8054 2.9451C20.7088 3.35862 20.3101 4.01421 20.8175 4.13524C21.5062 4.3067 21.3491 3.54017 21.5907 3.19725C21.6994 3.04596 21.8082 3.05604 21.9653 3.0863C22.2431 3.41914 21.5182 3.93352 22.1827 4.1655C22.7022 4.34704 22.4606 3.5906 22.9559 3.65111C23.1734 3.78223 22.9559 4.28653 23.4754 4.10498C23.6204 4.05455 23.7533 3.64103 23.6567 3.53008C23.3909 3.21742 23.258 3.86292 22.9318 3.6612C22.7989 3.24767 23.4875 2.5114 22.2794 2.53157C22.2069 2.20882 22.2069 1.84573 21.6874 1.75495C21.5786 1.69444 21.4578 1.63392 21.3491 1.57341C21.5424 1.31117 21.7961 1.10945 22.1344 0.978337C22.2069 1.04894 22.2794 1.11954 22.364 1.18006C22.219 1.92642 22.7506 1.75495 23.258 1.63392C23.3425 1.70453 23.4271 1.77513 23.4996 1.84573C22.8955 2.45089 23.4271 2.48114 23.9829 2.49123C24.2124 2.68286 24.0312 3.30819 24.744 2.95518C24.9373 2.86441 25.2635 2.68286 25.1427 2.60217C24.8769 2.43071 24.5145 2.57192 24.1882 2.6526C24.1399 2.66269 24.0312 2.56183 23.9587 2.50131C24.0433 2.30968 24.2366 2.25925 24.442 2.17856C25.2031 1.90624 25.2152 1.87599 24.5386 1.44229C24.0795 1.1498 24.4541 1.12963 24.6836 1.0792C24.9615 1.02877 25.2877 0.978337 25.2031 0.685844C25.0823 0.302578 24.6957 0.474039 24.3936 0.514383C24.0674 0.554727 23.7412 0.615243 23.4271 0.665672C23.3546 0.595071 23.2821 0.524469 23.2217 0.453868C23.3305 0.131117 23.9587 0.403438 23.995 0C24.8407 0 25.7347 0 26.6287 0ZM26.0005 6.78784C25.783 6.76767 25.7226 6.89879 25.7226 7.0299C25.7226 7.10051 25.8313 7.24171 25.8555 7.23162C25.9884 7.19128 26.1817 7.15094 26.23 7.07025C26.2905 6.94922 26.1696 6.83827 26.0005 6.78784ZM22.4123 5.01272C22.5572 4.7404 22.3639 4.71014 22.219 4.68997C22.0256 4.64962 21.9169 4.76057 21.9048 4.90177C21.8807 5.03289 21.9411 5.18418 22.1223 5.17409C22.2431 5.164 22.3639 5.04297 22.4123 5.01272Z" fill="#353499"/>
<path d="M24.3921 8.34089C24.7425 8.67373 25.3104 8.43166 25.6849 8.68381C24.3922 10.8825 23.0994 13.0914 21.8067 15.2901C20.7918 16.9845 19.777 18.6689 18.7622 20.3633C17.3728 22.673 15.9834 24.9827 14.5819 27.2924C14.4369 27.5344 14.2316 27.7563 14.0503 27.9883C13.8812 27.7765 13.6879 27.5647 13.555 27.3428C9.18147 20.0204 4.80797 12.698 0.434444 5.36554C-0.254204 4.21574 -0.242123 4.19557 1.34056 4.19557C2.79035 4.19557 4.46968 3.86273 5.62951 4.35694C6.8135 4.85115 7.07927 6.35396 7.7196 7.42307C10.3292 11.76 12.9147 16.1071 15.488 20.4541C15.633 20.7063 15.7539 20.9584 16.0196 21.15C16.2009 20.9282 16.4062 20.7063 16.5512 20.4642C16.9499 19.8086 17.3244 19.1329 17.699 18.4672C18.7984 16.8333 19.8374 15.1792 20.7073 13.4545C21.8188 11.8407 22.9424 10.237 23.6552 8.47201C23.8002 8.41149 23.9331 8.35098 24.078 8.29046C24.1988 8.29046 24.2955 8.31063 24.3921 8.34089Z" fill="#E10C16"/>
<path d="M18.75 20.3737C19.7649 18.6792 20.7797 16.9949 21.7945 15.3004C22.8456 17.0352 23.8847 18.77 24.9357 20.5048C25.0807 20.7468 25.1895 21.1301 25.4794 21.12C25.7935 21.1099 25.8781 20.7166 26.0352 20.4745C29.116 15.3408 32.2089 10.207 35.2897 5.07328C35.5917 4.5589 35.8333 4.16555 36.7032 4.14537C37.8509 4.1252 37.6939 4.46812 37.3314 5.08337C35.338 8.39156 33.3687 11.7098 31.3873 15.0281C28.9468 19.1331 26.5064 23.2381 24.0659 27.3431C23.9209 27.5851 23.8605 27.9785 23.5222 27.9986C23.051 28.0289 23.0752 27.5649 22.9181 27.3128C21.5167 25.0132 20.1394 22.6934 18.75 20.3737Z" fill="#353499"/>
<path d="M20.7078 13.4645C19.8379 15.1892 18.7868 16.8433 17.6995 18.4772C14.9811 13.9688 12.2749 9.47042 9.54445 4.97209C9.13368 4.29633 9.27866 4.12487 10.1848 4.15513C11.8037 4.21565 13.6763 3.79204 14.9811 4.32659C16.2255 4.84097 16.5155 6.48498 17.2283 7.63478C18.4123 9.5612 19.548 11.5179 20.7078 13.4645Z" fill="#353499"/>
<path d="M28.114 0.705078C28.8993 0.987485 29.4792 1.45144 29.8295 2.10702C29.745 2.16754 29.6604 2.22806 29.5637 2.29866C29.2255 2.16754 29.1771 1.75402 28.7301 1.73384C28.6576 1.67333 28.5731 1.61281 28.5006 1.56238C28.4643 1.24972 28.0535 1.15895 27.8965 0.916883C27.969 0.846281 28.0415 0.77568 28.114 0.705078Z" fill="#353499"/>
<path d="M24.0891 8.29074C23.9441 8.35125 23.8112 8.41177 23.6663 8.47228C23.1951 8.42185 22.8085 8.22013 22.4219 7.99824C22.4944 7.91755 22.5668 7.82678 22.6393 7.74609C23.1226 7.92764 23.6058 8.10919 24.0891 8.29074Z" fill="#353499"/>
<path d="M20.5023 2.72283C20.4903 2.31939 20.7561 2.04707 21.0944 1.79492C21.1669 1.86552 21.2514 1.92604 21.3239 1.99664C21.1427 2.29922 20.9494 2.6018 20.7681 2.90438C20.6836 2.84386 20.5869 2.78334 20.5023 2.72283Z" fill="#353499"/>
<path d="M21.1908 7.0003C20.9129 6.91961 20.8404 6.70781 20.7559 6.50609C20.8404 6.44557 20.925 6.38505 21.0216 6.31445C21.1666 6.46574 21.2995 6.62712 21.4445 6.77841C21.3478 6.85909 21.2753 6.9297 21.1908 7.0003Z" fill="#353499"/>
<path d="M20.7559 6.50449C20.6471 6.31286 20.5384 6.12123 20.4297 5.92959C20.5143 5.86908 20.6109 5.80856 20.6955 5.74805C20.9613 5.86908 20.9613 6.10106 21.0217 6.31286C20.925 6.38346 20.8405 6.44398 20.7559 6.50449Z" fill="#353499"/>
<path d="M27.4382 0.414062C27.6798 0.484664 27.9577 0.49475 28.1027 0.706555C28.0302 0.777157 27.9577 0.847758 27.8852 0.91836C27.6315 0.86793 27.3657 0.857844 27.2207 0.635953C27.3053 0.555266 27.3657 0.484664 27.4382 0.414062Z" fill="#353499"/>
<path d="M22.5078 0.745617C22.6407 0.503555 22.9186 0.493469 23.1723 0.453125C23.2448 0.523727 23.3052 0.594328 23.3777 0.66493C23.2327 0.876735 22.9669 0.886821 22.7253 0.957422C22.6528 0.886821 22.5803 0.816219 22.5078 0.745617Z" fill="#353499"/>
<path d="M21.0938 1.80488C21.1662 1.7242 21.2387 1.63342 21.3112 1.55273C21.4199 1.61325 21.5407 1.67377 21.6495 1.73428C21.6132 1.88557 21.5045 1.97634 21.3233 2.0066C21.2508 1.936 21.1662 1.8654 21.0938 1.80488Z" fill="#353499"/>
<path d="M22.0977 0.957899C22.2306 0.887297 22.3635 0.816695 22.4964 0.746094C22.5688 0.816695 22.6413 0.887297 22.7259 0.957899C22.593 1.0285 22.4601 1.08902 22.3272 1.15962C22.2427 1.0991 22.1701 1.0285 22.0977 0.957899Z" fill="#353499"/>
<path d="M23.209 1.6138C23.3781 1.41209 23.6802 1.21037 23.8735 1.42217C24.1393 1.73484 23.6077 1.68441 23.4627 1.82561C23.3781 1.75501 23.2936 1.68441 23.209 1.6138Z" fill="#353499"/>
<path d="M22.2656 2.49219C22.4106 2.79477 22.3139 2.99648 21.9152 3.07717C21.6977 2.73425 21.7944 2.53253 22.2656 2.49219Z" fill="#353499"/>
<path d="M23.2582 6.93945C23.4877 6.95963 23.7898 6.89911 23.6206 7.24203C23.3548 7.25212 23.0649 7.29246 23.2582 6.93945Z" fill="#353499"/>
<path d="M166 23.5412C165.058 23.5109 164.115 23.6219 163.076 23.4202C163.004 22.3309 162.726 21.3324 161.53 20.5356C161.18 21.5341 161.228 22.4015 161.977 23.289C160.926 23.7328 159.984 23.5008 159.041 23.4605C159.343 20.4852 159.5 17.6611 158.969 14.7664C159.621 14.4941 160.358 14.5344 161.204 14.7261C161.53 16.3096 161.168 17.883 161.421 19.4463C162.291 19.2143 162.291 19.2143 162.859 18.5184C163.052 18.0948 162.448 17.8628 162.533 17.4896C162.859 16.9954 164.43 17.0055 165.662 17.5199C165.13 18.2965 164.055 18.6596 163.499 19.5371C164.14 20.7272 164.828 21.9678 166 22.9865C166 23.168 166 23.3596 166 23.5412Z" fill="#353499"/>
<path d="M43.4192 23.4099C42.5493 23.5713 41.9453 23.5915 41.3774 23.4402C40.568 22.9762 40.9304 22.0887 40.3022 21.5743C39.7706 22.129 39.8551 22.9157 39.1423 23.4503C38.4899 23.5915 37.7892 23.6318 36.9435 23.3293C35.9528 20.6666 34.938 17.9434 33.9473 15.2807C34.5755 14.7865 35.1071 14.8772 35.832 15.089C36.8831 17.1264 37.2576 19.4361 38.2604 21.6449C39.1786 20.2732 39.7585 18.952 38.9128 17.4088C38.5262 16.7028 38.3933 15.906 38.1517 15.1697C38.7074 14.7663 39.2511 14.8873 39.7947 14.9983C40.3142 15.4219 40.3022 16.0169 40.568 16.6019C41.1962 16.1985 40.9667 15.442 41.5707 15.089C42.0178 14.847 42.4889 14.8268 43.0567 15.1294C42.9359 16.5515 41.8848 17.7618 41.4861 19.2142C41.7399 19.8899 42.0057 20.6262 42.3439 21.5239C43.7092 19.3251 44.3737 17.0659 45.5576 15.0588C46.2101 14.847 46.7416 14.8066 47.4544 15.1193C46.1738 17.9131 44.8086 20.6766 43.4192 23.4099Z" fill="#353499"/>
<path d="M89.8266 23.3591C89.0293 23.6213 88.3406 23.6415 87.6641 23.349C88.0265 20.6056 88.0265 17.9026 87.6761 15.1088C88.4977 14.7154 89.428 14.9373 90.4549 14.9777C91.216 16.3796 91.5181 17.8925 92.1221 19.4558C93.1007 18.0236 93.0887 16.3695 94.0914 15.0281C94.9855 14.8264 95.8674 14.8566 96.9064 15.0281C96.0245 16.42 96.3507 17.8522 96.3628 19.2541C96.3749 20.6157 95.9882 22.0177 96.9185 23.3692C95.7949 23.6314 94.7922 23.6516 93.7652 23.3793C94.6714 21.5739 94.0914 19.7685 94.1881 17.9833C93.3303 19.355 93.1491 20.9082 92.4 22.179C92.1342 22.411 91.9288 22.4715 91.6993 22.4715C91.5301 22.4614 91.3731 22.4211 91.1556 22.3908C90.3099 21.0292 90.1287 19.4861 89.3555 18.0741C89.4401 19.7685 88.8239 21.5234 89.8266 23.3591Z" fill="#353499"/>
<path d="M136.147 21.6235C136.026 22.0269 136.28 22.2488 136.715 22.3194C137.101 22.38 137.5 22.39 137.887 22.3699C139.192 22.2892 140.061 22.7027 140.327 23.8323C139.989 25.4461 139.397 25.9806 137.802 26.1017C135.301 26.2933 134.6 26.0411 134.033 24.6997C133.972 24.2257 134.443 23.9433 134.564 23.5499C134.576 23.1667 134.238 22.8338 134.371 22.501C134.347 21.9463 134.878 21.6336 134.999 21.1091C134.83 20.7662 134.6 20.4031 134.456 19.9997C133.996 18.6582 134.903 17.3471 136.509 17.1655C137.548 17.0445 138.636 17.1453 139.687 17.1756C140.025 17.1857 140.315 17.3773 140.388 17.811C140.472 18.164 139.892 18.1539 139.687 18.396C139.904 20.8065 139.119 21.5327 136.147 21.6235ZM138.189 23.9836C137.428 23.8222 136.739 23.792 136.074 24.0038C135.7 24.3467 135.64 24.6795 135.917 25.0426C136.691 25.4864 137.452 25.4763 138.189 25.0326C138.442 24.7098 138.418 24.4072 138.189 23.9836ZM137.101 20.7057C137.995 19.5962 137.935 18.7591 136.993 18.0833C136.135 18.9205 136.147 19.808 137.101 20.7057Z" fill="#353499"/>
<path d="M61.2645 23.3082C60.5396 23.5906 60.008 23.6108 59.3556 23.3183C59.1986 21.8256 60.0685 20.2421 59.2107 18.7695C57.6642 18.4468 57.3259 18.588 56.8668 19.6369C56.6252 20.1816 56.6373 20.7262 56.601 21.2809C56.5648 21.9668 56.7098 22.6627 56.4319 23.3183C55.852 23.6007 55.3204 23.5805 54.6559 23.3284C54.2935 21.9869 54.9579 20.6354 54.8734 19.2536C54.7888 17.882 54.7284 16.48 54.9821 15.1386C55.562 14.7957 56.0936 14.8461 56.6977 15.0478C57.181 15.7538 56.7098 16.5809 57.0118 17.4382C57.6642 17.2768 58.2804 16.944 59.0294 16.9036C60.9142 16.9339 61.6874 17.9324 61.5424 19.3949C61.4337 20.6859 61.4095 21.9869 61.2645 23.3082Z" fill="#353499"/>
<path d="M71.4619 23.2994C70.9182 23.5818 70.4471 23.5919 69.8671 23.37C69.4684 22.422 69.6134 21.3932 69.7826 20.4148C69.9638 19.4063 69.9034 18.3876 70.0604 17.3588C70.7974 16.9957 71.4257 16.8848 71.921 17.7118C72.5855 17.1773 73.4312 16.9957 74.2648 16.8848C76.2824 17.4395 76.512 17.6816 76.4999 19.3558C76.4878 20.6468 76.4637 21.9277 76.4395 23.0372C75.7992 23.6323 75.2555 23.5213 74.6635 23.4406C73.8661 21.9076 75.1589 20.2131 74.2044 18.7507C72.7546 18.5288 72.0901 18.8616 71.8606 19.9307C71.7398 20.4754 71.8002 21.0402 71.7518 21.5949C71.6914 22.1496 71.8606 22.7245 71.4619 23.2994Z" fill="#353499"/>
<path d="M101.376 17.5099C102.198 17.0056 102.935 17.0863 103.78 17.3283C104.566 19.2144 103.418 21.282 104.529 23.1883C103.925 23.8035 103.104 23.4404 102.355 23.5715C102.149 23.3295 102.004 23.1378 101.835 22.9361C101.702 22.9966 101.557 23.0572 101.412 23.1278C99.8779 23.9044 98.6456 23.4909 98.3677 22.0385C98.2228 21.3123 98.3074 20.5558 98.2953 19.8196C98.2832 19.043 98.4402 18.2361 97.7637 17.52C98.5248 16.9148 99.298 17.167 100.108 17.2981C100.784 18.9824 99.8538 20.7576 100.748 22.4016C102.451 21.9174 101.896 20.8483 101.956 20.0112C102.028 19.164 102.161 18.2764 101.376 17.5099Z" fill="#353499"/>
<path d="M80.7651 18.1245C79.9798 18.2254 79.1582 18.3263 78.3729 18.4271C78.0105 18.0338 78.1313 17.7009 78.4696 17.3177C79.6777 16.9747 80.9463 16.7428 82.2994 17.126C83.0001 17.3177 83.5076 17.6808 83.5197 18.3061C83.5438 19.9602 83.5076 21.6143 83.4955 23.0868C82.7948 23.6516 82.2632 23.5609 81.6833 23.4398C81.1879 22.5523 81.7316 21.584 81.357 20.7166C79.3878 21.0394 79.3032 21.0999 79.3757 22.1488C79.7744 22.5825 80.463 22.29 80.9221 22.5725C81.1396 22.9355 80.898 23.1877 80.6563 23.4197C80.3422 23.6113 80.0039 23.6113 79.6656 23.6012C78.3004 23.581 77.648 23.2079 77.4185 22.3203C77.1527 21.2915 77.5997 20.4342 78.6991 20.0005C79.5448 19.6677 80.5234 19.587 81.2966 19.1735C81.5624 18.7095 81.4658 18.3969 80.7651 18.1245Z" fill="#353499"/>
<path d="M51.4909 18.5782C50.476 17.5696 49.3646 18.5681 48.3376 18.3866C47.9993 18.0437 48.096 17.7209 48.4342 17.3276C49.5337 17.0351 50.6814 16.7123 51.9258 17.0754C53.0011 17.3982 53.5568 17.8722 53.5206 18.8001C53.4602 20.313 53.2669 21.8259 53.134 23.2783C52.5782 23.6111 52.1191 23.5909 51.5996 23.3085C51.2009 22.4714 51.7325 21.5031 51.3097 20.6358C49.3887 20.9686 49.3766 20.9686 49.28 22.1285C49.4491 22.3605 49.727 22.3806 50.0048 22.4008C50.2827 22.421 50.5606 22.4311 50.766 22.6529C50.8626 22.9253 50.8627 23.1875 50.476 23.4699C49.8116 23.6313 49.0262 23.6918 48.2893 23.4195C46.9724 22.9253 46.767 21.4124 47.8544 20.4946C48.4222 20.0104 49.0987 19.7381 49.8961 19.5969C50.5606 19.4759 51.2493 19.375 51.4909 18.5782Z" fill="#353499"/>
<path d="M68.2718 23.3399C67.5832 23.592 67.0636 23.6223 66.5079 23.3399C66.0246 22.4523 67.0636 21.5244 66.375 20.5662C65.4568 20.8486 64.2607 20.7982 64.1278 21.9278C64.5144 22.6036 65.3118 22.2708 65.783 22.533C66.1334 22.886 65.8917 23.1381 65.6743 23.3701C65.2273 23.6223 64.7681 23.6021 64.3211 23.5819C63.3063 23.5315 62.5572 23.0675 62.3277 22.3414C62.0739 21.5748 62.4243 20.6772 63.2096 20.2334C63.862 19.8602 64.6232 19.6787 65.3722 19.4769C65.8797 19.3357 66.5321 19.2954 66.5804 18.5793C65.6018 17.4598 64.3815 18.6297 63.2821 18.4482C63.1009 18.0548 63.258 17.722 63.5237 17.3387C64.599 17.1068 65.6743 16.7134 66.8945 17.0362C68.0181 17.3387 68.6705 17.8229 68.5497 18.7104C68.3322 20.2334 68.5497 21.7665 68.2718 23.3399Z" fill="#353499"/>
<path d="M120.731 15.1593C121.806 14.8063 122.217 14.7962 123.618 15.129C122.893 17.5295 123.413 19.9602 123.244 22.4514C123.908 22.5321 124.416 22.4312 124.838 22.2799C125.418 21.8261 125.225 21.0091 126.167 20.767C127.037 21.6344 126.482 22.4817 126.228 23.3087C124.742 23.6617 121.878 23.6415 120.658 23.2885C121.456 20.5855 121.347 17.8825 120.731 15.1593Z" fill="#353499"/>
<path d="M133.404 20.2829C133.38 20.6965 133.404 21.0293 133.332 21.342C133.078 22.6531 131.713 23.6113 130.19 23.5609C128.716 23.5205 127.46 22.5725 127.291 21.2915C127.17 20.3737 127.134 19.4559 127.689 18.5784C128.354 17.5396 129.357 17.005 130.625 17.116C131.894 17.2269 133.017 18.0439 133.295 19.1231C133.404 19.5366 133.38 19.9602 133.404 20.2829ZM130.178 17.943C128.91 19.1533 129.321 20.4746 129.466 21.7151C129.514 22.1892 129.804 22.7338 130.649 22.6128C131.713 21.2512 131.556 19.0424 130.178 17.943Z" fill="#353499"/>
<path d="M147.72 22.1689C147.684 21.4024 147.019 21.1906 146.451 20.9082C145.147 20.2526 144.555 19.4054 144.833 18.5783C145.135 17.6605 146.488 17.0352 147.95 17.1259C148.457 17.1562 148.94 17.2369 149.339 17.5193C149.496 18.2656 149.496 18.2656 149.134 18.891C148.24 19.0221 148.203 17.5899 147.056 18.1446C146.693 18.5178 146.826 18.891 147.213 19.2238C147.406 19.3852 147.66 19.5062 147.889 19.6272C149.436 20.4442 149.895 21.2511 149.424 22.3404C149.013 23.2985 147.889 23.7221 146.21 23.5507C145.751 23.5103 145.352 23.3792 144.917 23.1573C144.772 22.6127 144.47 22.0479 145.231 21.6545C145.956 21.7352 145.811 22.3807 146.294 22.5522C146.85 22.7438 147.358 22.7438 147.72 22.1689Z" fill="#353499"/>
<path d="M105.375 14.7264C105.991 14.4541 106.74 14.6255 107.381 14.6255C107.912 15.0592 107.779 15.503 107.791 15.9064C107.803 17.5706 107.791 19.2348 107.803 20.899C107.803 21.716 107.658 22.5531 108.48 23.3095C107.332 23.6625 106.378 23.602 105.411 23.4104C105.882 20.4956 105.943 17.6513 105.375 14.7264Z" fill="#353499"/>
<path d="M149.955 17.8933C150.994 17.3184 151.163 16.6426 151.236 15.9971C151.659 15.6441 152.094 15.6845 152.504 15.7954C153.036 16.0677 152.746 16.5922 153.108 16.9654C153.422 17.2579 154.075 17.0057 154.437 17.389C154.57 17.5907 154.582 17.8126 154.425 18.0042C154.063 18.3875 153.41 18.1152 152.975 18.5489C152.867 19.6987 152.77 20.9292 153.024 21.9882C153.495 22.5833 154.135 21.9882 154.546 22.4521C154.546 23.1985 153.797 23.3599 153.12 23.5213C152.408 23.6826 151.791 23.4809 151.357 22.9766C150.994 22.553 150.825 22.0689 150.837 21.5444C150.837 20.8485 150.825 20.1525 150.837 19.4667C150.837 18.8918 150.873 18.327 149.955 17.8933Z" fill="#353499"/>
<path d="M109.833 15.9856C110.425 15.6528 110.836 15.6628 111.234 15.8545C111.633 16.147 111.404 16.5907 111.694 16.9538C111.983 17.2665 112.636 17.0144 113.047 17.3976C113.204 17.559 113.18 17.7708 113.059 17.9826C112.708 18.376 112.056 18.1238 111.597 18.5172C111.536 19.7073 111.271 20.9781 111.706 21.9565C112.286 22.6121 112.926 21.9666 113.276 22.4507C112.624 23.429 112.08 23.6913 111.126 23.5097C110.268 23.3382 109.773 22.8642 109.736 21.9766C109.676 20.8672 109.724 19.7577 109.688 18.6483C109.64 18.2549 109.011 18.2953 108.891 17.8414C109.495 17.3875 109.918 16.7723 109.833 15.9856Z" fill="#353499"/>
<path d="M155.09 23.4288C155.694 21.3209 155.803 19.4146 155.018 17.3873C155.694 16.9032 156.528 17.1251 157.422 17.2562C157.965 19.2331 157.096 21.2603 158.038 23.2372C157.12 23.7919 156.117 23.5297 155.09 23.4288Z" fill="#353499"/>
<path d="M140.848 17.3475C141.597 17.0147 142.334 17.0953 143.228 17.3273C143.868 19.2537 142.95 21.3415 143.868 23.3184C142.914 23.7016 141.947 23.5604 140.932 23.4394C141.548 21.4121 141.693 19.4555 140.848 17.3475Z" fill="#353499"/>
<path d="M116.817 23.4003C115.718 23.5819 114.812 23.6827 113.918 23.3499C114.184 21.3428 114.474 19.3861 113.725 17.3891C114.437 16.9957 115.186 17.1168 116.02 17.258C116.673 19.2348 115.597 21.3327 116.817 23.4003Z" fill="#353499"/>
<path d="M141.584 15.0388C142.14 14.7866 142.647 14.7866 143.167 15.0085C143.517 15.4422 143.469 15.8658 143.179 16.2995C142.708 16.6424 142.2 16.6424 141.62 16.4206C141.294 15.9667 141.33 15.5027 141.584 15.0388Z" fill="#353499"/>
<path d="M155.743 15.0181C156.31 14.7861 156.782 14.8164 157.289 14.9576C157.7 15.4014 157.651 15.8653 157.325 16.3091C156.794 16.6419 156.286 16.5915 155.803 16.4402C155.453 15.9561 155.501 15.5224 155.743 15.0181Z" fill="#353499"/>
<path d="M114.569 14.9271C115.004 14.9069 115.282 14.8767 115.548 14.8868C115.705 14.8969 115.85 14.9775 116.007 15.028C116.272 15.4818 116.285 15.9256 116.019 16.3593C115.536 16.6417 115.076 16.6316 114.617 16.3694C114.303 15.9256 114.424 15.4818 114.569 14.9271Z" fill="#353499"/>
</svg>
