<svg width="32" height="33" viewBox="0 0 32 33" fill="none" xmlns="http://www.w3.org/2000/svg">
<path d="M9.33333 12.4987H22.6667M9.33333 17.832H16M28 27.1654L23.5676 24.9491C23.2316 24.7811 23.0636 24.6971 22.8875 24.6379C22.7312 24.5853 22.5703 24.5473 22.4069 24.5245C22.2229 24.4987 22.0351 24.4987 21.6594 24.4987H10.4C8.15979 24.4987 7.03969 24.4987 6.18404 24.0627C5.43139 23.6792 4.81947 23.0673 4.43597 22.3147C4 21.459 4 20.3389 4 18.0987V12.232C4 9.99182 4 8.87172 4.43597 8.01607C4.81947 7.26342 5.43139 6.6515 6.18404 6.26801C7.03969 5.83203 8.15979 5.83203 10.4 5.83203H21.6C23.8402 5.83203 24.9603 5.83203 25.816 6.26801C26.5686 6.6515 27.1805 7.26342 27.564 8.01607C28 8.87172 28 9.99182 28 12.232V27.1654Z" stroke="#8993A5" stroke-width="2" stroke-linecap="round" stroke-linejoin="round"/>
</svg>
