<svg width="32" height="33" viewBox="0 0 32 33" fill="none" xmlns="http://www.w3.org/2000/svg">
<path d="M15.9936 4.50001C9.37007 4.50141 4.00179 9.87479 4.00319 16.5017C4.00366 18.7964 4.66182 21.0429 5.89953 22.9747L4.03365 27.8184C3.93428 28.076 4.06246 28.3655 4.31993 28.4649C4.37751 28.4871 4.43864 28.4985 4.50034 28.4984C4.55759 28.4987 4.61441 28.4889 4.66824 28.4694L9.66531 26.6845C15.2875 30.1879 22.6839 28.4679 26.1855 22.8427C29.687 17.2174 27.9679 9.81728 22.3456 6.3139C20.4398 5.12626 18.2389 4.4978 15.9936 4.50001Z" stroke="#8993A5" stroke-width="2"/>
<path d="M22.3573 18.7774C22.3573 18.7774 20.9962 18.1108 20.144 17.6664C19.1796 17.1697 18.0462 18.0997 17.5129 18.6286C16.6829 18.3097 15.9248 17.8285 15.2829 17.213C14.6674 16.5713 14.1861 15.8132 13.8674 14.9831C14.3963 14.4486 15.324 13.3164 14.8296 12.352C14.3907 11.4987 13.7185 10.1387 13.7185 10.1376C13.6242 9.95042 13.4326 9.83224 13.223 9.83203H12.1119C10.4938 10.1115 9.31729 11.5234 9.33416 13.1653C9.33416 14.9097 11.4219 18.2608 12.8297 19.6697C14.2375 21.0785 17.5885 23.1652 19.334 23.1652C20.976 23.1821 22.3878 22.0055 22.6673 20.3875V19.2764C22.6675 19.0645 22.5473 18.871 22.3573 18.7774Z" stroke="#8993A5" stroke-width="2" stroke-linejoin="round"/>
</svg>
