<svg width="160" height="160" viewBox="0 0 160 160" fill="none" xmlns="http://www.w3.org/2000/svg">
<mask id="mask0_5020_106927" style="mask-type:alpha" maskUnits="userSpaceOnUse" x="0" y="0" width="160" height="160">
<circle cx="80" cy="80" r="80" fill="#F6F4FF"/>
</mask>
<g mask="url(#mask0_5020_106927)">
<circle cx="80" cy="80" r="80" fill="url(#paint0_linear_5020_106927)"/>
<circle cx="73.333" cy="15.5557" r="41.4815" fill="url(#paint1_linear_5020_106927)"/>
<path d="M174.067 24.4095L153.563 20.364C152.22 18.8512 150.266 17.8928 148.084 17.8928C146.967 17.8928 145.91 18.1515 144.962 18.5981C143.597 14.227 139.52 11.0542 134.701 11.0542C131.984 11.0542 129.511 12.0703 127.617 13.7338C125.979 7.12599 120.028 2.22266 112.918 2.22266C105.947 2.22266 100.091 6.93432 98.3182 13.3431C96.4937 11.9139 94.2006 11.0542 91.7048 11.0542C86.886 11.0542 82.8094 14.227 81.4443 18.5981C80.4958 18.1496 79.4413 17.8928 78.3217 17.8928C76.1123 17.8928 74.1353 18.8754 72.7926 20.4217L52.5859 24.4095L71.0369 24.4095C71.0351 24.4207 71.0332 24.4337 71.0313 24.4449L155.373 24.4449C155.371 24.4337 155.369 24.4207 155.367 24.4095L174.067 24.4095Z" fill="url(#paint2_linear_5020_106927)"/>
<path d="M78.5168 79.9682L60.3881 76.3272C59.2009 74.9657 57.4727 74.1032 55.5439 74.1032C54.5557 74.1032 53.6217 74.336 52.7831 74.7379C51.5761 70.8039 47.9718 67.9484 43.7113 67.9484C41.309 67.9484 39.122 68.8628 37.4481 70.3601C35.9994 64.413 30.7376 60 24.4513 60C18.2884 60 13.1104 64.2405 11.5434 70.0084C9.93028 68.7222 7.90282 67.9484 5.69614 67.9484C1.43569 67.9484 -2.16867 70.8039 -3.37561 74.7379C-4.21422 74.3343 -5.14655 74.1032 -6.13643 74.1032C-8.08989 74.1032 -9.83781 74.9874 -11.025 76.3792L-28.8906 79.9682L-12.5773 79.9682C-12.5789 79.9782 -12.5805 79.99 -12.5822 80L61.988 80C61.9864 79.99 61.9847 79.9782 61.9831 79.9682L78.5168 79.9682Z" fill="url(#paint3_linear_5020_106927)"/>
<path d="M214.809 98.4877L196.306 94.8468C195.094 93.4852 193.33 92.6227 191.361 92.6227C190.352 92.6227 189.399 92.8555 188.543 93.2574C187.311 89.3234 183.632 86.4679 179.284 86.4679C176.832 86.4679 174.599 87.3824 172.891 88.8796C171.412 82.9325 166.042 78.5195 159.625 78.5195C153.335 78.5195 148.05 82.76 146.45 88.5279C144.804 87.2417 142.734 86.4679 140.482 86.4679C136.133 86.4679 132.455 89.3234 131.223 93.2574C130.367 92.8538 129.415 92.6227 128.405 92.6227C126.411 92.6227 124.627 93.507 123.415 94.8987L105.18 98.4877L121.831 98.4877C121.829 98.4978 121.827 98.5095 121.826 98.5195L197.939 98.5195C197.937 98.5095 197.935 98.4978 197.934 98.4877L214.809 98.4877Z" fill="url(#paint4_linear_5020_106927)"/>
<circle cx="72.387" cy="120.473" r="75.1286" transform="rotate(4.9984 72.387 120.473)" fill="#381AE3"/>
<path d="M79.2874 45.6608C37.6328 42.0177 1.20625 72.0542 -2.52886 114.761C-3.57392 126.709 -1.9301 138.225 2.02218 148.604L137.509 160.454C143.203 150.918 146.821 139.863 147.866 127.914C151.601 85.2078 120.942 49.3039 79.2874 45.6608Z" fill="url(#paint5_linear_5020_106927)"/>
<path d="M92.2446 64.1868L100.576 64.9154C102.11 65.0496 103.309 66.4923 103.174 68.0413C103.039 69.5902 101.607 70.8028 100.072 70.6686L91.7414 69.94C90.2068 69.8057 89.0075 68.363 89.1429 66.8141C89.2784 65.2652 90.7099 64.0525 92.2446 64.1868Z" fill="white"/>
<path d="M54.979 60.927L63.3099 61.6556C64.8445 61.7898 66.0438 63.2326 65.9083 64.7815C65.7729 66.3304 64.3413 67.543 62.8067 67.4088L54.4758 66.6802C52.9411 66.546 51.7418 65.1033 51.8773 63.5543C52.0128 62.0054 53.4443 60.7928 54.979 60.927Z" fill="white"/>
<path d="M106.842 106.977L105.965 106.9C103.973 106.949 102.2 107.017 100.446 106.863L100.226 106.844C91.4764 105.856 84.6544 103.029 79.3414 98.1054C76.7042 95.4221 73.8541 95.1728 70.572 97.3384C60.5449 103.373 49.409 104.406 36.9837 99.975C25.6352 95.8609 18.6393 87.4451 18.4334 77.1705L18.6333 77.4109C20.2323 79.3345 22.0313 81.4986 24.7846 82.8543C29.3948 85.7101 34.4953 85.4873 38.5126 82.4941C41.7947 80.3285 44.877 77.9225 48.7782 76.2569C57.7348 72.3579 65.15 73.4524 72.5393 79.8959C73.3582 80.6364 76.234 83.1176 79.9933 80.5478C87.5313 75.1869 96.7586 75.771 105.263 82.089C108.158 84.349 110.815 86.811 112.633 88.7538C117.089 93.3799 122.112 94.0422 127.883 91.2024C129.972 90.0473 131.842 88.873 133.532 87.237C131.429 98.6475 120.789 106.636 106.842 106.977Z" fill="white"/>
<path d="M80.5251 130.728L-1.24923 105.35C-2.65915 111.694 -3.36404 120.154 -1.9541 120.859L75.5905 153.991C99.0888 145.532 146.368 131.433 147.495 128.613C148.778 125.407 147.965 112.399 147.495 110.989L80.5251 130.728Z" fill="#452CDF" fill-opacity="0.4"/>
</g>
<path d="M78.2162 29.7158L75.0156 23.0664" stroke="#FFD147" stroke-width="3" stroke-linecap="round"/>
<path d="M82.8819 28.2993L83.5055 22.2229" stroke="#FFD147" stroke-width="3" stroke-linecap="round"/>
<path d="M73.773 32.6008L69.6328 29.8281" stroke="#FFD147" stroke-width="3" stroke-linecap="round"/>
<circle cx="25.9259" cy="134.074" r="25.9259" fill="white"/>
<circle cx="25.9253" cy="134.074" r="22.2222" fill="#F2F0FF"/>
<path opacity="0.2" d="M30.8615 119H21.1415C15.5015 119 15.0665 124.07 18.1115 126.83L33.8915 141.17C36.9365 143.93 36.5015 149 30.8615 149H21.1415C15.5015 149 15.0665 143.93 18.1115 141.17L33.8915 126.83C36.9365 124.07 36.5015 119 30.8615 119Z" stroke="#388BFF" stroke-width="5" stroke-linecap="round" stroke-linejoin="round"/>
<path d="M32.6232 117H22.9032C17.2632 117 16.8282 122.07 19.8732 124.83L27.7632 132L35.6532 139.17C38.6982 141.93 38.2632 147 32.6232 147H22.9032C17.2632 147 16.8282 141.93 19.8732 139.17L35.6532 124.83C38.6982 122.07 38.2632 117 32.6232 117Z" stroke="#388BFF" stroke-width="5" stroke-linecap="round" stroke-linejoin="round"/>
<defs>
<linearGradient id="paint0_linear_5020_106927" x1="80" y1="0" x2="80" y2="160" gradientUnits="userSpaceOnUse">
<stop stop-color="#EBE8FF"/>
<stop offset="1" stop-color="#F6F4FF"/>
</linearGradient>
<linearGradient id="paint1_linear_5020_106927" x1="73.333" y1="-25.9258" x2="73.333" y2="57.0372" gradientUnits="userSpaceOnUse">
<stop stop-color="#FEE493"/>
<stop offset="1" stop-color="#FEE493" stop-opacity="0"/>
</linearGradient>
<linearGradient id="paint2_linear_5020_106927" x1="113.326" y1="4.50198" x2="113.326" y2="29.7188" gradientUnits="userSpaceOnUse">
<stop stop-color="white" stop-opacity="0.62"/>
<stop offset="1" stop-color="white" stop-opacity="0"/>
</linearGradient>
<linearGradient id="paint3_linear_5020_106927" x1="24.8127" y1="62.0514" x2="24.8127" y2="84.7465" gradientUnits="userSpaceOnUse">
<stop stop-color="white" stop-opacity="0.62"/>
<stop offset="1" stop-color="white" stop-opacity="0"/>
</linearGradient>
<linearGradient id="paint4_linear_5020_106927" x1="159.994" y1="80.5709" x2="159.994" y2="103.266" gradientUnits="userSpaceOnUse">
<stop stop-color="white" stop-opacity="0.62"/>
<stop offset="1" stop-color="white" stop-opacity="0"/>
</linearGradient>
<linearGradient id="paint5_linear_5020_106927" x1="79.2874" y1="45.6608" x2="69.7657" y2="154.529" gradientUnits="userSpaceOnUse">
<stop stop-color="#9886FF"/>
<stop offset="0.713542" stop-color="#5F44F6"/>
<stop offset="1" stop-color="#3112E0"/>
</linearGradient>
</defs>
</svg>
